%TF.GenerationSoftware,KiCad,Pcbnew,(5.1.10-1-10_14)*%
%TF.CreationDate,2021-12-23T00:47:36+01:00*%
%TF.ProjectId,NordstroemSupply,4e6f7264-7374-4726-9f65-6d537570706c,rev?*%
%TF.SameCoordinates,Original*%
%TF.FileFunction,Legend,Bot*%
%TF.FilePolarity,Positive*%
%FSLAX46Y46*%
G04 Gerber Fmt 4.6, Leading zero omitted, Abs format (unit mm)*
G04 Created by KiCad (PCBNEW (5.1.10-1-10_14)) date 2021-12-23 00:47:36*
%MOMM*%
%LPD*%
G01*
G04 APERTURE LIST*
%ADD10C,0.150000*%
%ADD11C,0.010000*%
G04 APERTURE END LIST*
D10*
X43742857Y90450000D02*
X44028571Y90450000D01*
X43685714Y90278571D02*
X43885714Y90878571D01*
X44085714Y90278571D01*
X44285714Y90278571D02*
X44285714Y90878571D01*
X44428571Y90878571D01*
X44514285Y90850000D01*
X44571428Y90792857D01*
X44600000Y90735714D01*
X44628571Y90621428D01*
X44628571Y90535714D01*
X44600000Y90421428D01*
X44571428Y90364285D01*
X44514285Y90307142D01*
X44428571Y90278571D01*
X44285714Y90278571D01*
X45057142Y90878571D02*
X45057142Y90450000D01*
X45028571Y90364285D01*
X44971428Y90307142D01*
X44885714Y90278571D01*
X44828571Y90278571D01*
X45342857Y90878571D02*
X45342857Y90392857D01*
X45371428Y90335714D01*
X45400000Y90307142D01*
X45457142Y90278571D01*
X45571428Y90278571D01*
X45628571Y90307142D01*
X45657142Y90335714D01*
X45685714Y90392857D01*
X45685714Y90878571D01*
X45942857Y90307142D02*
X46028571Y90278571D01*
X46171428Y90278571D01*
X46228571Y90307142D01*
X46257142Y90335714D01*
X46285714Y90392857D01*
X46285714Y90450000D01*
X46257142Y90507142D01*
X46228571Y90535714D01*
X46171428Y90564285D01*
X46057142Y90592857D01*
X46000000Y90621428D01*
X45971428Y90650000D01*
X45942857Y90707142D01*
X45942857Y90764285D01*
X45971428Y90821428D01*
X46000000Y90850000D01*
X46057142Y90878571D01*
X46200000Y90878571D01*
X46285714Y90850000D01*
X46457142Y90878571D02*
X46800000Y90878571D01*
X46628571Y90278571D02*
X46628571Y90878571D01*
X46971428Y90450000D02*
X47257142Y90450000D01*
X46914285Y90278571D02*
X47114285Y90878571D01*
X47314285Y90278571D01*
X47714285Y90592857D02*
X47800000Y90564285D01*
X47828571Y90535714D01*
X47857142Y90478571D01*
X47857142Y90392857D01*
X47828571Y90335714D01*
X47800000Y90307142D01*
X47742857Y90278571D01*
X47514285Y90278571D01*
X47514285Y90878571D01*
X47714285Y90878571D01*
X47771428Y90850000D01*
X47800000Y90821428D01*
X47828571Y90764285D01*
X47828571Y90707142D01*
X47800000Y90650000D01*
X47771428Y90621428D01*
X47714285Y90592857D01*
X47514285Y90592857D01*
X48399999Y90278571D02*
X48114285Y90278571D01*
X48114285Y90878571D01*
X48599999Y90592857D02*
X48799999Y90592857D01*
X48885714Y90278571D02*
X48599999Y90278571D01*
X48599999Y90878571D01*
X48885714Y90878571D01*
X49599999Y90278571D02*
X49599999Y90878571D01*
X49828571Y90878571D01*
X49885714Y90850000D01*
X49914285Y90821428D01*
X49942857Y90764285D01*
X49942857Y90678571D01*
X49914285Y90621428D01*
X49885714Y90592857D01*
X49828571Y90564285D01*
X49599999Y90564285D01*
X50314285Y90878571D02*
X50428571Y90878571D01*
X50485714Y90850000D01*
X50542857Y90792857D01*
X50571428Y90678571D01*
X50571428Y90478571D01*
X50542857Y90364285D01*
X50485714Y90307142D01*
X50428571Y90278571D01*
X50314285Y90278571D01*
X50257142Y90307142D01*
X50199999Y90364285D01*
X50171428Y90478571D01*
X50171428Y90678571D01*
X50199999Y90792857D01*
X50257142Y90850000D01*
X50314285Y90878571D01*
X50771428Y90878571D02*
X50914285Y90278571D01*
X51028571Y90707142D01*
X51142857Y90278571D01*
X51285714Y90878571D01*
X51514285Y90592857D02*
X51714285Y90592857D01*
X51799999Y90278571D02*
X51514285Y90278571D01*
X51514285Y90878571D01*
X51799999Y90878571D01*
X52399999Y90278571D02*
X52199999Y90564285D01*
X52057142Y90278571D02*
X52057142Y90878571D01*
X52285714Y90878571D01*
X52342857Y90850000D01*
X52371428Y90821428D01*
X52399999Y90764285D01*
X52399999Y90678571D01*
X52371428Y90621428D01*
X52342857Y90592857D01*
X52285714Y90564285D01*
X52057142Y90564285D01*
X53085714Y90307142D02*
X53171428Y90278571D01*
X53314285Y90278571D01*
X53371428Y90307142D01*
X53399999Y90335714D01*
X53428571Y90392857D01*
X53428571Y90450000D01*
X53399999Y90507142D01*
X53371428Y90535714D01*
X53314285Y90564285D01*
X53199999Y90592857D01*
X53142857Y90621428D01*
X53114285Y90650000D01*
X53085714Y90707142D01*
X53085714Y90764285D01*
X53114285Y90821428D01*
X53142857Y90850000D01*
X53199999Y90878571D01*
X53342857Y90878571D01*
X53428571Y90850000D01*
X53685714Y90878571D02*
X53685714Y90392857D01*
X53714285Y90335714D01*
X53742857Y90307142D01*
X53799999Y90278571D01*
X53914285Y90278571D01*
X53971428Y90307142D01*
X53999999Y90335714D01*
X54028571Y90392857D01*
X54028571Y90878571D01*
X54314285Y90278571D02*
X54314285Y90878571D01*
X54542857Y90878571D01*
X54599999Y90850000D01*
X54628571Y90821428D01*
X54657142Y90764285D01*
X54657142Y90678571D01*
X54628571Y90621428D01*
X54599999Y90592857D01*
X54542857Y90564285D01*
X54314285Y90564285D01*
X54914285Y90278571D02*
X54914285Y90878571D01*
X55142857Y90878571D01*
X55199999Y90850000D01*
X55228571Y90821428D01*
X55257142Y90764285D01*
X55257142Y90678571D01*
X55228571Y90621428D01*
X55199999Y90592857D01*
X55142857Y90564285D01*
X54914285Y90564285D01*
X55799999Y90278571D02*
X55514285Y90278571D01*
X55514285Y90878571D01*
X56114285Y90564285D02*
X56114285Y90278571D01*
X55914285Y90878571D02*
X56114285Y90564285D01*
X56314285Y90878571D01*
X43085714Y89228571D02*
X43085714Y89828571D01*
X43228571Y89828571D01*
X43314285Y89800000D01*
X43371428Y89742857D01*
X43400000Y89685714D01*
X43428571Y89571428D01*
X43428571Y89485714D01*
X43400000Y89371428D01*
X43371428Y89314285D01*
X43314285Y89257142D01*
X43228571Y89228571D01*
X43085714Y89228571D01*
X43685714Y89542857D02*
X43885714Y89542857D01*
X43971428Y89228571D02*
X43685714Y89228571D01*
X43685714Y89828571D01*
X43971428Y89828571D01*
X44200000Y89257142D02*
X44285714Y89228571D01*
X44428571Y89228571D01*
X44485714Y89257142D01*
X44514285Y89285714D01*
X44542857Y89342857D01*
X44542857Y89400000D01*
X44514285Y89457142D01*
X44485714Y89485714D01*
X44428571Y89514285D01*
X44314285Y89542857D01*
X44257142Y89571428D01*
X44228571Y89600000D01*
X44200000Y89657142D01*
X44200000Y89714285D01*
X44228571Y89771428D01*
X44257142Y89800000D01*
X44314285Y89828571D01*
X44457142Y89828571D01*
X44542857Y89800000D01*
X44800000Y89228571D02*
X44800000Y89828571D01*
X45400000Y89800000D02*
X45342857Y89828571D01*
X45257142Y89828571D01*
X45171428Y89800000D01*
X45114285Y89742857D01*
X45085714Y89685714D01*
X45057142Y89571428D01*
X45057142Y89485714D01*
X45085714Y89371428D01*
X45114285Y89314285D01*
X45171428Y89257142D01*
X45257142Y89228571D01*
X45314285Y89228571D01*
X45400000Y89257142D01*
X45428571Y89285714D01*
X45428571Y89485714D01*
X45314285Y89485714D01*
X45685714Y89228571D02*
X45685714Y89828571D01*
X46028571Y89228571D01*
X46028571Y89828571D01*
X46314285Y89542857D02*
X46514285Y89542857D01*
X46600000Y89228571D02*
X46314285Y89228571D01*
X46314285Y89828571D01*
X46600000Y89828571D01*
X46857142Y89228571D02*
X46857142Y89828571D01*
X47000000Y89828571D01*
X47085714Y89800000D01*
X47142857Y89742857D01*
X47171428Y89685714D01*
X47200000Y89571428D01*
X47200000Y89485714D01*
X47171428Y89371428D01*
X47142857Y89314285D01*
X47085714Y89257142D01*
X47000000Y89228571D01*
X46857142Y89228571D01*
X47885714Y89400000D02*
X48171428Y89400000D01*
X47828571Y89228571D02*
X48028571Y89828571D01*
X48228571Y89228571D01*
X48428571Y89228571D02*
X48428571Y89828571D01*
X48771428Y89228571D01*
X48771428Y89828571D01*
X49371428Y89800000D02*
X49314285Y89828571D01*
X49228571Y89828571D01*
X49142857Y89800000D01*
X49085714Y89742857D01*
X49057142Y89685714D01*
X49028571Y89571428D01*
X49028571Y89485714D01*
X49057142Y89371428D01*
X49085714Y89314285D01*
X49142857Y89257142D01*
X49228571Y89228571D01*
X49285714Y89228571D01*
X49371428Y89257142D01*
X49400000Y89285714D01*
X49400000Y89485714D01*
X49285714Y89485714D01*
X50114285Y89542857D02*
X50314285Y89542857D01*
X50400000Y89228571D02*
X50114285Y89228571D01*
X50114285Y89828571D01*
X50400000Y89828571D01*
X50657142Y89228571D02*
X50657142Y89828571D01*
X51000000Y89228571D01*
X51000000Y89828571D01*
X51600000Y89800000D02*
X51542857Y89828571D01*
X51457142Y89828571D01*
X51371428Y89800000D01*
X51314285Y89742857D01*
X51285714Y89685714D01*
X51257142Y89571428D01*
X51257142Y89485714D01*
X51285714Y89371428D01*
X51314285Y89314285D01*
X51371428Y89257142D01*
X51457142Y89228571D01*
X51514285Y89228571D01*
X51600000Y89257142D01*
X51628571Y89285714D01*
X51628571Y89485714D01*
X51514285Y89485714D01*
X51885714Y89228571D02*
X51885714Y89828571D01*
X52171428Y89228571D02*
X52171428Y89828571D01*
X52514285Y89228571D01*
X52514285Y89828571D01*
X52800000Y89542857D02*
X53000000Y89542857D01*
X53085714Y89228571D02*
X52800000Y89228571D01*
X52800000Y89828571D01*
X53085714Y89828571D01*
X53342857Y89542857D02*
X53542857Y89542857D01*
X53628571Y89228571D02*
X53342857Y89228571D01*
X53342857Y89828571D01*
X53628571Y89828571D01*
X54228571Y89228571D02*
X54028571Y89514285D01*
X53885714Y89228571D02*
X53885714Y89828571D01*
X54114285Y89828571D01*
X54171428Y89800000D01*
X54200000Y89771428D01*
X54228571Y89714285D01*
X54228571Y89628571D01*
X54200000Y89571428D01*
X54171428Y89542857D01*
X54114285Y89514285D01*
X53885714Y89514285D01*
X54485714Y89542857D02*
X54685714Y89542857D01*
X54771428Y89228571D02*
X54485714Y89228571D01*
X54485714Y89828571D01*
X54771428Y89828571D01*
X55028571Y89228571D02*
X55028571Y89828571D01*
X55171428Y89828571D01*
X55257142Y89800000D01*
X55314285Y89742857D01*
X55342857Y89685714D01*
X55371428Y89571428D01*
X55371428Y89485714D01*
X55342857Y89371428D01*
X55314285Y89314285D01*
X55257142Y89257142D01*
X55171428Y89228571D01*
X55028571Y89228571D01*
X56285714Y89542857D02*
X56371428Y89514285D01*
X56400000Y89485714D01*
X56428571Y89428571D01*
X56428571Y89342857D01*
X56400000Y89285714D01*
X56371428Y89257142D01*
X56314285Y89228571D01*
X56085714Y89228571D01*
X56085714Y89828571D01*
X56285714Y89828571D01*
X56342857Y89800000D01*
X56371428Y89771428D01*
X56400000Y89714285D01*
X56400000Y89657142D01*
X56371428Y89600000D01*
X56342857Y89571428D01*
X56285714Y89542857D01*
X56085714Y89542857D01*
X56800000Y89514285D02*
X56800000Y89228571D01*
X56600000Y89828571D02*
X56800000Y89514285D01*
X57000000Y89828571D01*
X44328571Y88178571D02*
X44328571Y88778571D01*
X44528571Y88350000D01*
X44728571Y88778571D01*
X44728571Y88178571D01*
X44985714Y88350000D02*
X45271428Y88350000D01*
X44928571Y88178571D02*
X45128571Y88778571D01*
X45328571Y88178571D01*
X45528571Y88178571D02*
X45528571Y88778571D01*
X45671428Y88778571D01*
X45757142Y88750000D01*
X45814285Y88692857D01*
X45842857Y88635714D01*
X45871428Y88521428D01*
X45871428Y88435714D01*
X45842857Y88321428D01*
X45814285Y88264285D01*
X45757142Y88207142D01*
X45671428Y88178571D01*
X45528571Y88178571D01*
X46100000Y88207142D02*
X46185714Y88178571D01*
X46328571Y88178571D01*
X46385714Y88207142D01*
X46414285Y88235714D01*
X46442857Y88292857D01*
X46442857Y88350000D01*
X46414285Y88407142D01*
X46385714Y88435714D01*
X46328571Y88464285D01*
X46214285Y88492857D01*
X46157142Y88521428D01*
X46128571Y88550000D01*
X46100000Y88607142D01*
X46100000Y88664285D01*
X46128571Y88721428D01*
X46157142Y88750000D01*
X46214285Y88778571D01*
X46357142Y88778571D01*
X46442857Y88750000D01*
X47500000Y88178571D02*
X47300000Y88464285D01*
X47157142Y88178571D02*
X47157142Y88778571D01*
X47385714Y88778571D01*
X47442857Y88750000D01*
X47471428Y88721428D01*
X47500000Y88664285D01*
X47500000Y88578571D01*
X47471428Y88521428D01*
X47442857Y88492857D01*
X47385714Y88464285D01*
X47157142Y88464285D01*
X47757142Y88778571D02*
X47757142Y88292857D01*
X47785714Y88235714D01*
X47814285Y88207142D01*
X47871428Y88178571D01*
X47985714Y88178571D01*
X48042857Y88207142D01*
X48071428Y88235714D01*
X48100000Y88292857D01*
X48100000Y88778571D01*
X48385714Y88178571D02*
X48385714Y88778571D01*
X48585714Y88350000D01*
X48785714Y88778571D01*
X48785714Y88178571D01*
X49357142Y88178571D02*
X49071428Y88178571D01*
X49071428Y88778571D01*
X49557142Y88492857D02*
X49757142Y88492857D01*
X49842857Y88178571D02*
X49557142Y88178571D01*
X49557142Y88778571D01*
X49842857Y88778571D01*
X50557142Y88178571D02*
X50557142Y88778571D01*
X50900000Y88178571D01*
X50900000Y88778571D01*
X51300000Y88778571D02*
X51414285Y88778571D01*
X51471428Y88750000D01*
X51528571Y88692857D01*
X51557142Y88578571D01*
X51557142Y88378571D01*
X51528571Y88264285D01*
X51471428Y88207142D01*
X51414285Y88178571D01*
X51300000Y88178571D01*
X51242857Y88207142D01*
X51185714Y88264285D01*
X51157142Y88378571D01*
X51157142Y88578571D01*
X51185714Y88692857D01*
X51242857Y88750000D01*
X51300000Y88778571D01*
X52157142Y88178571D02*
X51957142Y88464285D01*
X51814285Y88178571D02*
X51814285Y88778571D01*
X52042857Y88778571D01*
X52100000Y88750000D01*
X52128571Y88721428D01*
X52157142Y88664285D01*
X52157142Y88578571D01*
X52128571Y88521428D01*
X52100000Y88492857D01*
X52042857Y88464285D01*
X51814285Y88464285D01*
X52414285Y88178571D02*
X52414285Y88778571D01*
X52557142Y88778571D01*
X52642857Y88750000D01*
X52700000Y88692857D01*
X52728571Y88635714D01*
X52757142Y88521428D01*
X52757142Y88435714D01*
X52728571Y88321428D01*
X52700000Y88264285D01*
X52642857Y88207142D01*
X52557142Y88178571D01*
X52414285Y88178571D01*
X52985714Y88207142D02*
X53071428Y88178571D01*
X53214285Y88178571D01*
X53271428Y88207142D01*
X53300000Y88235714D01*
X53328571Y88292857D01*
X53328571Y88350000D01*
X53300000Y88407142D01*
X53271428Y88435714D01*
X53214285Y88464285D01*
X53100000Y88492857D01*
X53042857Y88521428D01*
X53014285Y88550000D01*
X52985714Y88607142D01*
X52985714Y88664285D01*
X53014285Y88721428D01*
X53042857Y88750000D01*
X53100000Y88778571D01*
X53242857Y88778571D01*
X53328571Y88750000D01*
X53499999Y88778571D02*
X53842857Y88778571D01*
X53671428Y88178571D02*
X53671428Y88778571D01*
X54385714Y88178571D02*
X54185714Y88464285D01*
X54042857Y88178571D02*
X54042857Y88778571D01*
X54271428Y88778571D01*
X54328571Y88750000D01*
X54357142Y88721428D01*
X54385714Y88664285D01*
X54385714Y88578571D01*
X54357142Y88521428D01*
X54328571Y88492857D01*
X54271428Y88464285D01*
X54042857Y88464285D01*
X55042857Y88778571D02*
X54585714Y88178571D01*
X54757142Y88178571D02*
X54699999Y88207142D01*
X54642857Y88264285D01*
X54614285Y88378571D01*
X54614285Y88578571D01*
X54642857Y88692857D01*
X54699999Y88750000D01*
X54757142Y88778571D01*
X54871428Y88778571D01*
X54928571Y88750000D01*
X54985714Y88692857D01*
X55014285Y88578571D01*
X55014285Y88378571D01*
X54985714Y88264285D01*
X54928571Y88207142D01*
X54871428Y88178571D01*
X54757142Y88178571D01*
X55271428Y88178571D02*
X55271428Y88778571D01*
X55471428Y88350000D01*
X55671428Y88778571D01*
X55671428Y88178571D01*
D11*
%TO.C,G\u002A\u002A\u002A*%
G36*
X47882190Y93458689D02*
G01*
X47868708Y93444652D01*
X47844645Y93419534D01*
X47810922Y93384298D01*
X47768461Y93339909D01*
X47718183Y93287331D01*
X47661010Y93227527D01*
X47597863Y93161462D01*
X47529664Y93090099D01*
X47457335Y93014403D01*
X47381797Y92935337D01*
X47309797Y92859964D01*
X46789607Y92315370D01*
X46785323Y93409178D01*
X46548099Y93404558D01*
X46545977Y92573853D01*
X46545742Y92457776D01*
X46545637Y92346518D01*
X46545656Y92241195D01*
X46545794Y92142923D01*
X46546045Y92052819D01*
X46546403Y91971998D01*
X46546864Y91901576D01*
X46547421Y91842671D01*
X46548068Y91796398D01*
X46548801Y91763874D01*
X46549613Y91746213D01*
X46550141Y91743216D01*
X46556663Y91749112D01*
X46573903Y91766237D01*
X46601073Y91793778D01*
X46637385Y91830922D01*
X46682052Y91876853D01*
X46734285Y91930759D01*
X46793297Y91991827D01*
X46858299Y92059242D01*
X46928505Y92132191D01*
X47003127Y92209860D01*
X47081375Y92291435D01*
X47122722Y92334590D01*
X47689017Y92925895D01*
X47691159Y92380325D01*
X47693300Y91834754D01*
X47934689Y91834754D01*
X47934393Y93512820D01*
X47882190Y93458689D01*
G37*
X47882190Y93458689D02*
X47868708Y93444652D01*
X47844645Y93419534D01*
X47810922Y93384298D01*
X47768461Y93339909D01*
X47718183Y93287331D01*
X47661010Y93227527D01*
X47597863Y93161462D01*
X47529664Y93090099D01*
X47457335Y93014403D01*
X47381797Y92935337D01*
X47309797Y92859964D01*
X46789607Y92315370D01*
X46785323Y93409178D01*
X46548099Y93404558D01*
X46545977Y92573853D01*
X46545742Y92457776D01*
X46545637Y92346518D01*
X46545656Y92241195D01*
X46545794Y92142923D01*
X46546045Y92052819D01*
X46546403Y91971998D01*
X46546864Y91901576D01*
X46547421Y91842671D01*
X46548068Y91796398D01*
X46548801Y91763874D01*
X46549613Y91746213D01*
X46550141Y91743216D01*
X46556663Y91749112D01*
X46573903Y91766237D01*
X46601073Y91793778D01*
X46637385Y91830922D01*
X46682052Y91876853D01*
X46734285Y91930759D01*
X46793297Y91991827D01*
X46858299Y92059242D01*
X46928505Y92132191D01*
X47003127Y92209860D01*
X47081375Y92291435D01*
X47122722Y92334590D01*
X47689017Y92925895D01*
X47691159Y92380325D01*
X47693300Y91834754D01*
X47934689Y91834754D01*
X47934393Y93512820D01*
X47882190Y93458689D01*
G36*
X52710882Y93427578D02*
G01*
X52652222Y93423496D01*
X52600938Y93415686D01*
X52552442Y93403194D01*
X52502145Y93385066D01*
X52445455Y93360346D01*
X52440240Y93357932D01*
X52365115Y93323027D01*
X52365115Y93042853D01*
X52418060Y93079864D01*
X52473320Y93114694D01*
X52534086Y93146602D01*
X52595056Y93173133D01*
X52650931Y93191830D01*
X52669082Y93196234D01*
X52746822Y93206731D01*
X52828083Y93207080D01*
X52908122Y93197771D01*
X52982194Y93179293D01*
X53033184Y93158629D01*
X53114650Y93109689D01*
X53187520Y93048801D01*
X53249865Y92978156D01*
X53299757Y92899951D01*
X53335270Y92816377D01*
X53336054Y92813932D01*
X53359347Y92716453D01*
X53367632Y92620423D01*
X53361753Y92527151D01*
X53342548Y92437945D01*
X53310859Y92354115D01*
X53267527Y92276968D01*
X53213393Y92207814D01*
X53149297Y92147962D01*
X53076080Y92098721D01*
X52994584Y92061399D01*
X52905648Y92037305D01*
X52831491Y92028528D01*
X52753499Y92027625D01*
X52685542Y92034730D01*
X52622577Y92050778D01*
X52559558Y92076701D01*
X52552492Y92080153D01*
X52512157Y92101737D01*
X52470025Y92126877D01*
X52433365Y92151164D01*
X52423410Y92158465D01*
X52369279Y92199650D01*
X52366991Y92062025D01*
X52366571Y92000064D01*
X52367647Y91954608D01*
X52370224Y91925573D01*
X52373971Y91913233D01*
X52386702Y91904558D01*
X52411835Y91892335D01*
X52445853Y91877905D01*
X52485235Y91862611D01*
X52526463Y91847793D01*
X52566017Y91834794D01*
X52600379Y91824954D01*
X52613912Y91821765D01*
X52654975Y91815192D01*
X52706152Y91810139D01*
X52762369Y91806799D01*
X52818554Y91805368D01*
X52869633Y91806040D01*
X52910532Y91809010D01*
X52918213Y91810077D01*
X53031134Y91835982D01*
X53137511Y91876488D01*
X53236167Y91930547D01*
X53325928Y91997114D01*
X53405618Y92075141D01*
X53474060Y92163581D01*
X53530079Y92261387D01*
X53572499Y92367514D01*
X53582613Y92401606D01*
X53589961Y92430568D01*
X53595160Y92457538D01*
X53598545Y92486348D01*
X53600454Y92520830D01*
X53601223Y92564817D01*
X53601230Y92613410D01*
X53600658Y92670106D01*
X53599237Y92713947D01*
X53596623Y92748729D01*
X53592475Y92778244D01*
X53586451Y92806287D01*
X53582447Y92821607D01*
X53545905Y92925472D01*
X53495082Y93024720D01*
X53431685Y93117318D01*
X53357421Y93201230D01*
X53273998Y93274422D01*
X53183122Y93334859D01*
X53128130Y93363056D01*
X53067222Y93388465D01*
X53008696Y93406914D01*
X52948159Y93419237D01*
X52881219Y93426268D01*
X52803484Y93428841D01*
X52781509Y93428885D01*
X52710882Y93427578D01*
G37*
X52710882Y93427578D02*
X52652222Y93423496D01*
X52600938Y93415686D01*
X52552442Y93403194D01*
X52502145Y93385066D01*
X52445455Y93360346D01*
X52440240Y93357932D01*
X52365115Y93323027D01*
X52365115Y93042853D01*
X52418060Y93079864D01*
X52473320Y93114694D01*
X52534086Y93146602D01*
X52595056Y93173133D01*
X52650931Y93191830D01*
X52669082Y93196234D01*
X52746822Y93206731D01*
X52828083Y93207080D01*
X52908122Y93197771D01*
X52982194Y93179293D01*
X53033184Y93158629D01*
X53114650Y93109689D01*
X53187520Y93048801D01*
X53249865Y92978156D01*
X53299757Y92899951D01*
X53335270Y92816377D01*
X53336054Y92813932D01*
X53359347Y92716453D01*
X53367632Y92620423D01*
X53361753Y92527151D01*
X53342548Y92437945D01*
X53310859Y92354115D01*
X53267527Y92276968D01*
X53213393Y92207814D01*
X53149297Y92147962D01*
X53076080Y92098721D01*
X52994584Y92061399D01*
X52905648Y92037305D01*
X52831491Y92028528D01*
X52753499Y92027625D01*
X52685542Y92034730D01*
X52622577Y92050778D01*
X52559558Y92076701D01*
X52552492Y92080153D01*
X52512157Y92101737D01*
X52470025Y92126877D01*
X52433365Y92151164D01*
X52423410Y92158465D01*
X52369279Y92199650D01*
X52366991Y92062025D01*
X52366571Y92000064D01*
X52367647Y91954608D01*
X52370224Y91925573D01*
X52373971Y91913233D01*
X52386702Y91904558D01*
X52411835Y91892335D01*
X52445853Y91877905D01*
X52485235Y91862611D01*
X52526463Y91847793D01*
X52566017Y91834794D01*
X52600379Y91824954D01*
X52613912Y91821765D01*
X52654975Y91815192D01*
X52706152Y91810139D01*
X52762369Y91806799D01*
X52818554Y91805368D01*
X52869633Y91806040D01*
X52910532Y91809010D01*
X52918213Y91810077D01*
X53031134Y91835982D01*
X53137511Y91876488D01*
X53236167Y91930547D01*
X53325928Y91997114D01*
X53405618Y92075141D01*
X53474060Y92163581D01*
X53530079Y92261387D01*
X53572499Y92367514D01*
X53582613Y92401606D01*
X53589961Y92430568D01*
X53595160Y92457538D01*
X53598545Y92486348D01*
X53600454Y92520830D01*
X53601223Y92564817D01*
X53601230Y92613410D01*
X53600658Y92670106D01*
X53599237Y92713947D01*
X53596623Y92748729D01*
X53592475Y92778244D01*
X53586451Y92806287D01*
X53582447Y92821607D01*
X53545905Y92925472D01*
X53495082Y93024720D01*
X53431685Y93117318D01*
X53357421Y93201230D01*
X53273998Y93274422D01*
X53183122Y93334859D01*
X53128130Y93363056D01*
X53067222Y93388465D01*
X53008696Y93406914D01*
X52948159Y93419237D01*
X52881219Y93426268D01*
X52803484Y93428841D01*
X52781509Y93428885D01*
X52710882Y93427578D01*
G36*
X49009676Y93431249D02*
G01*
X48894930Y93418631D01*
X48788813Y93392214D01*
X48689981Y93351400D01*
X48597093Y93295588D01*
X48508807Y93224178D01*
X48475933Y93192575D01*
X48409568Y93120155D01*
X48356466Y93048374D01*
X48314005Y92972868D01*
X48279562Y92889270D01*
X48263087Y92838262D01*
X48247108Y92767080D01*
X48237653Y92686329D01*
X48234932Y92601856D01*
X48239151Y92519503D01*
X48249280Y92450933D01*
X48279998Y92342499D01*
X48325351Y92240487D01*
X48384149Y92146133D01*
X48455201Y92060670D01*
X48537315Y91985333D01*
X48629301Y91921355D01*
X48729966Y91869970D01*
X48838121Y91832413D01*
X48849041Y91829532D01*
X48912713Y91816697D01*
X48983797Y91808184D01*
X49056779Y91804254D01*
X49126141Y91805169D01*
X49186369Y91811192D01*
X49196781Y91813023D01*
X49314282Y91843352D01*
X49423152Y91887776D01*
X49524179Y91946655D01*
X49579443Y91987530D01*
X49665358Y92065512D01*
X49736140Y92149854D01*
X49792067Y92241152D01*
X49833421Y92340004D01*
X49860481Y92447004D01*
X49873529Y92562749D01*
X49874902Y92615843D01*
X49874815Y92617574D01*
X49636641Y92617574D01*
X49630731Y92520451D01*
X49612455Y92433197D01*
X49580915Y92353599D01*
X49535207Y92279444D01*
X49474432Y92208520D01*
X49467151Y92201180D01*
X49399266Y92139860D01*
X49332487Y92093388D01*
X49263650Y92060516D01*
X49189589Y92039995D01*
X49107141Y92030574D01*
X49033968Y92030160D01*
X48980112Y92033012D01*
X48936456Y92038326D01*
X48896610Y92047059D01*
X48870921Y92054644D01*
X48788593Y92089302D01*
X48711553Y92138102D01*
X48642040Y92198815D01*
X48582294Y92269210D01*
X48534552Y92347055D01*
X48504205Y92420083D01*
X48488997Y92482088D01*
X48479529Y92553672D01*
X48476089Y92628676D01*
X48478967Y92700941D01*
X48488162Y92763032D01*
X48515545Y92849444D01*
X48557134Y92930662D01*
X48611093Y93004849D01*
X48675583Y93070169D01*
X48748764Y93124782D01*
X48828801Y93166852D01*
X48913853Y93194542D01*
X48921541Y93196234D01*
X49020893Y93209301D01*
X49118373Y93206661D01*
X49212420Y93188855D01*
X49301477Y93156425D01*
X49383983Y93109912D01*
X49458380Y93049858D01*
X49512020Y92991165D01*
X49561939Y92919851D01*
X49598221Y92847060D01*
X49621962Y92769509D01*
X49634258Y92683914D01*
X49636641Y92617574D01*
X49874815Y92617574D01*
X49869110Y92729858D01*
X49850817Y92834039D01*
X49819234Y92930397D01*
X49773571Y93020940D01*
X49713038Y93107680D01*
X49656016Y93172914D01*
X49567846Y93254756D01*
X49473503Y93321130D01*
X49372960Y93372046D01*
X49266188Y93407514D01*
X49153161Y93427547D01*
X49033851Y93432156D01*
X49009676Y93431249D01*
G37*
X49009676Y93431249D02*
X48894930Y93418631D01*
X48788813Y93392214D01*
X48689981Y93351400D01*
X48597093Y93295588D01*
X48508807Y93224178D01*
X48475933Y93192575D01*
X48409568Y93120155D01*
X48356466Y93048374D01*
X48314005Y92972868D01*
X48279562Y92889270D01*
X48263087Y92838262D01*
X48247108Y92767080D01*
X48237653Y92686329D01*
X48234932Y92601856D01*
X48239151Y92519503D01*
X48249280Y92450933D01*
X48279998Y92342499D01*
X48325351Y92240487D01*
X48384149Y92146133D01*
X48455201Y92060670D01*
X48537315Y91985333D01*
X48629301Y91921355D01*
X48729966Y91869970D01*
X48838121Y91832413D01*
X48849041Y91829532D01*
X48912713Y91816697D01*
X48983797Y91808184D01*
X49056779Y91804254D01*
X49126141Y91805169D01*
X49186369Y91811192D01*
X49196781Y91813023D01*
X49314282Y91843352D01*
X49423152Y91887776D01*
X49524179Y91946655D01*
X49579443Y91987530D01*
X49665358Y92065512D01*
X49736140Y92149854D01*
X49792067Y92241152D01*
X49833421Y92340004D01*
X49860481Y92447004D01*
X49873529Y92562749D01*
X49874902Y92615843D01*
X49874815Y92617574D01*
X49636641Y92617574D01*
X49630731Y92520451D01*
X49612455Y92433197D01*
X49580915Y92353599D01*
X49535207Y92279444D01*
X49474432Y92208520D01*
X49467151Y92201180D01*
X49399266Y92139860D01*
X49332487Y92093388D01*
X49263650Y92060516D01*
X49189589Y92039995D01*
X49107141Y92030574D01*
X49033968Y92030160D01*
X48980112Y92033012D01*
X48936456Y92038326D01*
X48896610Y92047059D01*
X48870921Y92054644D01*
X48788593Y92089302D01*
X48711553Y92138102D01*
X48642040Y92198815D01*
X48582294Y92269210D01*
X48534552Y92347055D01*
X48504205Y92420083D01*
X48488997Y92482088D01*
X48479529Y92553672D01*
X48476089Y92628676D01*
X48478967Y92700941D01*
X48488162Y92763032D01*
X48515545Y92849444D01*
X48557134Y92930662D01*
X48611093Y93004849D01*
X48675583Y93070169D01*
X48748764Y93124782D01*
X48828801Y93166852D01*
X48913853Y93194542D01*
X48921541Y93196234D01*
X49020893Y93209301D01*
X49118373Y93206661D01*
X49212420Y93188855D01*
X49301477Y93156425D01*
X49383983Y93109912D01*
X49458380Y93049858D01*
X49512020Y92991165D01*
X49561939Y92919851D01*
X49598221Y92847060D01*
X49621962Y92769509D01*
X49634258Y92683914D01*
X49636641Y92617574D01*
X49874815Y92617574D01*
X49869110Y92729858D01*
X49850817Y92834039D01*
X49819234Y92930397D01*
X49773571Y93020940D01*
X49713038Y93107680D01*
X49656016Y93172914D01*
X49567846Y93254756D01*
X49473503Y93321130D01*
X49372960Y93372046D01*
X49266188Y93407514D01*
X49153161Y93427547D01*
X49033851Y93432156D01*
X49009676Y93431249D01*
G36*
X44746221Y93432055D02*
G01*
X44681995Y93425806D01*
X44680988Y93425645D01*
X44626029Y93413880D01*
X44563893Y93395949D01*
X44501727Y93374187D01*
X44446675Y93350931D01*
X44434902Y93345178D01*
X44395345Y93325162D01*
X44395345Y93042405D01*
X44433209Y93071308D01*
X44519889Y93128767D01*
X44608754Y93170121D01*
X44701212Y93195902D01*
X44790918Y93206334D01*
X44891285Y93203756D01*
X44983870Y93186481D01*
X45069002Y93154364D01*
X45147007Y93107258D01*
X45218211Y93045016D01*
X45262174Y92994900D01*
X45313251Y92921933D01*
X45350563Y92847568D01*
X45375512Y92768051D01*
X45389496Y92679624D01*
X45392030Y92646381D01*
X45390318Y92544573D01*
X45373063Y92448660D01*
X45340381Y92358934D01*
X45292390Y92275687D01*
X45229205Y92199212D01*
X45203065Y92173675D01*
X45134644Y92118296D01*
X45063379Y92077236D01*
X44986325Y92049293D01*
X44900540Y92033264D01*
X44849214Y92029122D01*
X44760563Y92029791D01*
X44680056Y92041793D01*
X44604235Y92066232D01*
X44529646Y92104209D01*
X44455722Y92154631D01*
X44395345Y92200354D01*
X44395345Y91912171D01*
X44451558Y91886635D01*
X44531714Y91855174D01*
X44617513Y91830287D01*
X44704925Y91812660D01*
X44789921Y91802976D01*
X44868470Y91801920D01*
X44920000Y91807084D01*
X45017137Y91826317D01*
X45101954Y91851066D01*
X45178273Y91882733D01*
X45249911Y91922716D01*
X45268537Y91934845D01*
X45360565Y92005982D01*
X45440400Y92087265D01*
X45507405Y92177321D01*
X45560937Y92274777D01*
X45600357Y92378259D01*
X45625026Y92486395D01*
X45634302Y92597812D01*
X45628169Y92706291D01*
X45605990Y92819709D01*
X45569241Y92927425D01*
X45519001Y93028169D01*
X45456349Y93120671D01*
X45382365Y93203660D01*
X45298127Y93275867D01*
X45204714Y93336020D01*
X45103206Y93382851D01*
X45034220Y93405319D01*
X44969918Y93419052D01*
X44896364Y93428323D01*
X44819738Y93432776D01*
X44746221Y93432055D01*
G37*
X44746221Y93432055D02*
X44681995Y93425806D01*
X44680988Y93425645D01*
X44626029Y93413880D01*
X44563893Y93395949D01*
X44501727Y93374187D01*
X44446675Y93350931D01*
X44434902Y93345178D01*
X44395345Y93325162D01*
X44395345Y93042405D01*
X44433209Y93071308D01*
X44519889Y93128767D01*
X44608754Y93170121D01*
X44701212Y93195902D01*
X44790918Y93206334D01*
X44891285Y93203756D01*
X44983870Y93186481D01*
X45069002Y93154364D01*
X45147007Y93107258D01*
X45218211Y93045016D01*
X45262174Y92994900D01*
X45313251Y92921933D01*
X45350563Y92847568D01*
X45375512Y92768051D01*
X45389496Y92679624D01*
X45392030Y92646381D01*
X45390318Y92544573D01*
X45373063Y92448660D01*
X45340381Y92358934D01*
X45292390Y92275687D01*
X45229205Y92199212D01*
X45203065Y92173675D01*
X45134644Y92118296D01*
X45063379Y92077236D01*
X44986325Y92049293D01*
X44900540Y92033264D01*
X44849214Y92029122D01*
X44760563Y92029791D01*
X44680056Y92041793D01*
X44604235Y92066232D01*
X44529646Y92104209D01*
X44455722Y92154631D01*
X44395345Y92200354D01*
X44395345Y91912171D01*
X44451558Y91886635D01*
X44531714Y91855174D01*
X44617513Y91830287D01*
X44704925Y91812660D01*
X44789921Y91802976D01*
X44868470Y91801920D01*
X44920000Y91807084D01*
X45017137Y91826317D01*
X45101954Y91851066D01*
X45178273Y91882733D01*
X45249911Y91922716D01*
X45268537Y91934845D01*
X45360565Y92005982D01*
X45440400Y92087265D01*
X45507405Y92177321D01*
X45560937Y92274777D01*
X45600357Y92378259D01*
X45625026Y92486395D01*
X45634302Y92597812D01*
X45628169Y92706291D01*
X45605990Y92819709D01*
X45569241Y92927425D01*
X45519001Y93028169D01*
X45456349Y93120671D01*
X45382365Y93203660D01*
X45298127Y93275867D01*
X45204714Y93336020D01*
X45103206Y93382851D01*
X45034220Y93405319D01*
X44969918Y93419052D01*
X44896364Y93428323D01*
X44819738Y93432776D01*
X44746221Y93432055D01*
G36*
X43541637Y93427041D02*
G01*
X43462473Y93406708D01*
X43390688Y93372194D01*
X43325819Y93323839D01*
X43302165Y93300982D01*
X43276430Y93273299D01*
X43251223Y93243972D01*
X43229150Y93216184D01*
X43212821Y93193120D01*
X43204844Y93177963D01*
X43204459Y93175713D01*
X43211075Y93170007D01*
X43228769Y93157792D01*
X43254312Y93141085D01*
X43284473Y93121904D01*
X43316025Y93102265D01*
X43345736Y93084188D01*
X43370378Y93069688D01*
X43386720Y93060783D01*
X43391383Y93058951D01*
X43396949Y93065224D01*
X43408350Y93081145D01*
X43415302Y93091462D01*
X43455508Y93142445D01*
X43499492Y93178016D01*
X43549599Y93199356D01*
X43608176Y93207648D01*
X43644782Y93207079D01*
X43708634Y93197074D01*
X43762506Y93175922D01*
X43805232Y93144643D01*
X43835647Y93104260D01*
X43852584Y93055793D01*
X43855807Y93022124D01*
X43852496Y92983326D01*
X43840901Y92949014D01*
X43819648Y92917918D01*
X43787362Y92888771D01*
X43742666Y92860301D01*
X43684187Y92831241D01*
X43619313Y92803803D01*
X43524227Y92763696D01*
X43444079Y92725138D01*
X43377342Y92687149D01*
X43322492Y92648749D01*
X43278002Y92608960D01*
X43242348Y92566800D01*
X43235819Y92557522D01*
X43204354Y92504354D01*
X43183021Y92450258D01*
X43170217Y92390074D01*
X43164784Y92329138D01*
X43166116Y92238173D01*
X43179910Y92156995D01*
X43206928Y92083541D01*
X43247930Y92015745D01*
X43303675Y91951544D01*
X43303959Y91951262D01*
X43369218Y91894454D01*
X43435895Y91852973D01*
X43506155Y91825506D01*
X43516197Y91822758D01*
X43562189Y91813929D01*
X43617560Y91808000D01*
X43675224Y91805380D01*
X43728091Y91806477D01*
X43754162Y91809033D01*
X43838469Y91828802D01*
X43916745Y91862863D01*
X43987010Y91909855D01*
X44047284Y91968418D01*
X44095588Y92037190D01*
X44101285Y92047561D01*
X44113463Y92073758D01*
X44127244Y92108477D01*
X44141189Y92147403D01*
X44153856Y92186220D01*
X44163806Y92220612D01*
X44169599Y92246264D01*
X44170492Y92254968D01*
X44162523Y92261232D01*
X44139647Y92269573D01*
X44103416Y92279499D01*
X44066306Y92288151D01*
X44025480Y92297172D01*
X43989557Y92305202D01*
X43962219Y92311409D01*
X43947148Y92314966D01*
X43946532Y92315124D01*
X43937884Y92315202D01*
X43931664Y92307905D01*
X43926340Y92290070D01*
X43921069Y92262498D01*
X43906548Y92200721D01*
X43885853Y92151276D01*
X43857134Y92110413D01*
X43835298Y92088466D01*
X43785512Y92054367D01*
X43728864Y92033427D01*
X43668568Y92025547D01*
X43607841Y92030626D01*
X43549899Y92048564D01*
X43497958Y92079261D01*
X43474911Y92099698D01*
X43445249Y92133821D01*
X43425343Y92167968D01*
X43413245Y92207063D01*
X43407008Y92256029D01*
X43405959Y92274019D01*
X43404634Y92311898D01*
X43405468Y92338610D01*
X43409303Y92359591D01*
X43416975Y92380277D01*
X43425000Y92397329D01*
X43458933Y92447872D01*
X43489956Y92477072D01*
X43510717Y92492947D01*
X43530952Y92506859D01*
X43553270Y92520151D01*
X43580281Y92534166D01*
X43614590Y92550249D01*
X43658808Y92569743D01*
X43715543Y92593992D01*
X43723258Y92597261D01*
X43798331Y92630630D01*
X43859854Y92661754D01*
X43910479Y92692253D01*
X43952858Y92723743D01*
X43989643Y92757843D01*
X43994073Y92762469D01*
X44042530Y92825094D01*
X44076315Y92893677D01*
X44095322Y92966149D01*
X44099446Y93040437D01*
X44088581Y93114472D01*
X44062621Y93186184D01*
X44021461Y93253501D01*
X44019257Y93256384D01*
X43962204Y93316957D01*
X43894324Y93365651D01*
X43817126Y93401781D01*
X43732117Y93424660D01*
X43640807Y93433601D01*
X43629598Y93433705D01*
X43541637Y93427041D01*
G37*
X43541637Y93427041D02*
X43462473Y93406708D01*
X43390688Y93372194D01*
X43325819Y93323839D01*
X43302165Y93300982D01*
X43276430Y93273299D01*
X43251223Y93243972D01*
X43229150Y93216184D01*
X43212821Y93193120D01*
X43204844Y93177963D01*
X43204459Y93175713D01*
X43211075Y93170007D01*
X43228769Y93157792D01*
X43254312Y93141085D01*
X43284473Y93121904D01*
X43316025Y93102265D01*
X43345736Y93084188D01*
X43370378Y93069688D01*
X43386720Y93060783D01*
X43391383Y93058951D01*
X43396949Y93065224D01*
X43408350Y93081145D01*
X43415302Y93091462D01*
X43455508Y93142445D01*
X43499492Y93178016D01*
X43549599Y93199356D01*
X43608176Y93207648D01*
X43644782Y93207079D01*
X43708634Y93197074D01*
X43762506Y93175922D01*
X43805232Y93144643D01*
X43835647Y93104260D01*
X43852584Y93055793D01*
X43855807Y93022124D01*
X43852496Y92983326D01*
X43840901Y92949014D01*
X43819648Y92917918D01*
X43787362Y92888771D01*
X43742666Y92860301D01*
X43684187Y92831241D01*
X43619313Y92803803D01*
X43524227Y92763696D01*
X43444079Y92725138D01*
X43377342Y92687149D01*
X43322492Y92648749D01*
X43278002Y92608960D01*
X43242348Y92566800D01*
X43235819Y92557522D01*
X43204354Y92504354D01*
X43183021Y92450258D01*
X43170217Y92390074D01*
X43164784Y92329138D01*
X43166116Y92238173D01*
X43179910Y92156995D01*
X43206928Y92083541D01*
X43247930Y92015745D01*
X43303675Y91951544D01*
X43303959Y91951262D01*
X43369218Y91894454D01*
X43435895Y91852973D01*
X43506155Y91825506D01*
X43516197Y91822758D01*
X43562189Y91813929D01*
X43617560Y91808000D01*
X43675224Y91805380D01*
X43728091Y91806477D01*
X43754162Y91809033D01*
X43838469Y91828802D01*
X43916745Y91862863D01*
X43987010Y91909855D01*
X44047284Y91968418D01*
X44095588Y92037190D01*
X44101285Y92047561D01*
X44113463Y92073758D01*
X44127244Y92108477D01*
X44141189Y92147403D01*
X44153856Y92186220D01*
X44163806Y92220612D01*
X44169599Y92246264D01*
X44170492Y92254968D01*
X44162523Y92261232D01*
X44139647Y92269573D01*
X44103416Y92279499D01*
X44066306Y92288151D01*
X44025480Y92297172D01*
X43989557Y92305202D01*
X43962219Y92311409D01*
X43947148Y92314966D01*
X43946532Y92315124D01*
X43937884Y92315202D01*
X43931664Y92307905D01*
X43926340Y92290070D01*
X43921069Y92262498D01*
X43906548Y92200721D01*
X43885853Y92151276D01*
X43857134Y92110413D01*
X43835298Y92088466D01*
X43785512Y92054367D01*
X43728864Y92033427D01*
X43668568Y92025547D01*
X43607841Y92030626D01*
X43549899Y92048564D01*
X43497958Y92079261D01*
X43474911Y92099698D01*
X43445249Y92133821D01*
X43425343Y92167968D01*
X43413245Y92207063D01*
X43407008Y92256029D01*
X43405959Y92274019D01*
X43404634Y92311898D01*
X43405468Y92338610D01*
X43409303Y92359591D01*
X43416975Y92380277D01*
X43425000Y92397329D01*
X43458933Y92447872D01*
X43489956Y92477072D01*
X43510717Y92492947D01*
X43530952Y92506859D01*
X43553270Y92520151D01*
X43580281Y92534166D01*
X43614590Y92550249D01*
X43658808Y92569743D01*
X43715543Y92593992D01*
X43723258Y92597261D01*
X43798331Y92630630D01*
X43859854Y92661754D01*
X43910479Y92692253D01*
X43952858Y92723743D01*
X43989643Y92757843D01*
X43994073Y92762469D01*
X44042530Y92825094D01*
X44076315Y92893677D01*
X44095322Y92966149D01*
X44099446Y93040437D01*
X44088581Y93114472D01*
X44062621Y93186184D01*
X44021461Y93253501D01*
X44019257Y93256384D01*
X43962204Y93316957D01*
X43894324Y93365651D01*
X43817126Y93401781D01*
X43732117Y93424660D01*
X43640807Y93433601D01*
X43629598Y93433705D01*
X43541637Y93427041D01*
G36*
X55947939Y93294213D02*
G01*
X55945615Y93183869D01*
X56579017Y93183869D01*
X56579017Y92800787D01*
X55962754Y92800787D01*
X55962754Y92584262D01*
X56579017Y92584262D01*
X56579017Y92051279D01*
X55946099Y92051279D01*
X55946099Y91834754D01*
X56820610Y91834754D01*
X56818485Y92619656D01*
X56816361Y93404558D01*
X55950263Y93404558D01*
X55947939Y93294213D01*
G37*
X55947939Y93294213D02*
X55945615Y93183869D01*
X56579017Y93183869D01*
X56579017Y92800787D01*
X55962754Y92800787D01*
X55962754Y92584262D01*
X56579017Y92584262D01*
X56579017Y92051279D01*
X55946099Y92051279D01*
X55946099Y91834754D01*
X56820610Y91834754D01*
X56818485Y92619656D01*
X56816361Y93404558D01*
X55950263Y93404558D01*
X55947939Y93294213D01*
G36*
X55398492Y92727918D02*
G01*
X55396361Y92051279D01*
X54938427Y92051279D01*
X54938427Y91834754D01*
X55638053Y91834754D01*
X55635928Y92619656D01*
X55633804Y93404558D01*
X55400623Y93404558D01*
X55398492Y92727918D01*
G37*
X55398492Y92727918D02*
X55396361Y92051279D01*
X54938427Y92051279D01*
X54938427Y91834754D01*
X55638053Y91834754D01*
X55635928Y92619656D01*
X55633804Y93404558D01*
X55400623Y93404558D01*
X55398492Y92727918D01*
G36*
X54274279Y93406714D02*
G01*
X53843312Y93404558D01*
X53840988Y93294213D01*
X53838665Y93183869D01*
X54472066Y93183869D01*
X54472066Y92800787D01*
X53864132Y92800787D01*
X53864132Y92584262D01*
X54472066Y92584262D01*
X54472066Y92051279D01*
X53839148Y92051279D01*
X53839148Y91834754D01*
X54705246Y91834754D01*
X54705246Y93408871D01*
X54274279Y93406714D01*
G37*
X54274279Y93406714D02*
X53843312Y93404558D01*
X53840988Y93294213D01*
X53838665Y93183869D01*
X54472066Y93183869D01*
X54472066Y92800787D01*
X53864132Y92800787D01*
X53864132Y92584262D01*
X54472066Y92584262D01*
X54472066Y92051279D01*
X53839148Y92051279D01*
X53839148Y91834754D01*
X54705246Y91834754D01*
X54705246Y93408871D01*
X54274279Y93406714D01*
G36*
X51274164Y93183869D02*
G01*
X51632263Y93183869D01*
X51632263Y91834754D01*
X51873771Y91834754D01*
X51873771Y93183869D01*
X52231869Y93183869D01*
X52231869Y93408721D01*
X51274164Y93408721D01*
X51274164Y93183869D01*
G37*
X51274164Y93183869D02*
X51632263Y93183869D01*
X51632263Y91834754D01*
X51873771Y91834754D01*
X51873771Y93183869D01*
X52231869Y93183869D01*
X52231869Y93408721D01*
X51274164Y93408721D01*
X51274164Y93183869D01*
G36*
X50930640Y93408648D02*
G01*
X50814494Y93407131D01*
X50713243Y93402476D01*
X50625357Y93394316D01*
X50549306Y93382282D01*
X50483562Y93366006D01*
X50426594Y93345120D01*
X50376873Y93319254D01*
X50332871Y93288042D01*
X50298141Y93256345D01*
X50248875Y93195148D01*
X50212545Y93126139D01*
X50188999Y93051613D01*
X50178083Y92973869D01*
X50179643Y92895205D01*
X50193527Y92817917D01*
X50219580Y92744304D01*
X50257649Y92676664D01*
X50307580Y92617293D01*
X50342853Y92586837D01*
X50377361Y92561592D01*
X50405660Y92544083D01*
X50433997Y92530990D01*
X50468617Y92518991D01*
X50473054Y92517602D01*
X50497079Y92508830D01*
X50512767Y92500589D01*
X50516385Y92496182D01*
X50511462Y92488075D01*
X50497692Y92467881D01*
X50476047Y92436967D01*
X50447500Y92396699D01*
X50413024Y92348444D01*
X50373590Y92293568D01*
X50330171Y92233439D01*
X50289003Y92176664D01*
X50242492Y92112641D01*
X50198730Y92052401D01*
X50158744Y91997356D01*
X50123559Y91948918D01*
X50094202Y91908500D01*
X50071699Y91877514D01*
X50057075Y91857372D01*
X50051577Y91849795D01*
X50048467Y91844385D01*
X50049553Y91840454D01*
X50056946Y91837768D01*
X50072753Y91836091D01*
X50099083Y91835187D01*
X50138045Y91834820D01*
X50186157Y91834754D01*
X50331618Y91834754D01*
X50555137Y92155372D01*
X50607501Y92230381D01*
X50651291Y92292808D01*
X50687379Y92343790D01*
X50716638Y92384462D01*
X50739942Y92415961D01*
X50758164Y92439421D01*
X50772176Y92455979D01*
X50782851Y92466771D01*
X50791063Y92472932D01*
X50797684Y92475598D01*
X50801558Y92475995D01*
X50824459Y92476000D01*
X50824459Y91834754D01*
X51057640Y91834754D01*
X51057640Y92684197D01*
X50824707Y92684197D01*
X50743387Y92684320D01*
X50700623Y92685735D01*
X50657065Y92689401D01*
X50620094Y92694629D01*
X50609755Y92696776D01*
X50543032Y92718735D01*
X50490046Y92749986D01*
X50450608Y92790684D01*
X50424527Y92840985D01*
X50421028Y92851770D01*
X50408443Y92917547D01*
X50410305Y92979398D01*
X50426227Y93035488D01*
X50455825Y93083983D01*
X50473759Y93103079D01*
X50511451Y93132244D01*
X50554985Y93153546D01*
X50607064Y93167788D01*
X50670390Y93175776D01*
X50725593Y93178126D01*
X50820295Y93179705D01*
X50824707Y92684197D01*
X51057640Y92684197D01*
X51057640Y93408721D01*
X50930640Y93408648D01*
G37*
X50930640Y93408648D02*
X50814494Y93407131D01*
X50713243Y93402476D01*
X50625357Y93394316D01*
X50549306Y93382282D01*
X50483562Y93366006D01*
X50426594Y93345120D01*
X50376873Y93319254D01*
X50332871Y93288042D01*
X50298141Y93256345D01*
X50248875Y93195148D01*
X50212545Y93126139D01*
X50188999Y93051613D01*
X50178083Y92973869D01*
X50179643Y92895205D01*
X50193527Y92817917D01*
X50219580Y92744304D01*
X50257649Y92676664D01*
X50307580Y92617293D01*
X50342853Y92586837D01*
X50377361Y92561592D01*
X50405660Y92544083D01*
X50433997Y92530990D01*
X50468617Y92518991D01*
X50473054Y92517602D01*
X50497079Y92508830D01*
X50512767Y92500589D01*
X50516385Y92496182D01*
X50511462Y92488075D01*
X50497692Y92467881D01*
X50476047Y92436967D01*
X50447500Y92396699D01*
X50413024Y92348444D01*
X50373590Y92293568D01*
X50330171Y92233439D01*
X50289003Y92176664D01*
X50242492Y92112641D01*
X50198730Y92052401D01*
X50158744Y91997356D01*
X50123559Y91948918D01*
X50094202Y91908500D01*
X50071699Y91877514D01*
X50057075Y91857372D01*
X50051577Y91849795D01*
X50048467Y91844385D01*
X50049553Y91840454D01*
X50056946Y91837768D01*
X50072753Y91836091D01*
X50099083Y91835187D01*
X50138045Y91834820D01*
X50186157Y91834754D01*
X50331618Y91834754D01*
X50555137Y92155372D01*
X50607501Y92230381D01*
X50651291Y92292808D01*
X50687379Y92343790D01*
X50716638Y92384462D01*
X50739942Y92415961D01*
X50758164Y92439421D01*
X50772176Y92455979D01*
X50782851Y92466771D01*
X50791063Y92472932D01*
X50797684Y92475598D01*
X50801558Y92475995D01*
X50824459Y92476000D01*
X50824459Y91834754D01*
X51057640Y91834754D01*
X51057640Y92684197D01*
X50824707Y92684197D01*
X50743387Y92684320D01*
X50700623Y92685735D01*
X50657065Y92689401D01*
X50620094Y92694629D01*
X50609755Y92696776D01*
X50543032Y92718735D01*
X50490046Y92749986D01*
X50450608Y92790684D01*
X50424527Y92840985D01*
X50421028Y92851770D01*
X50408443Y92917547D01*
X50410305Y92979398D01*
X50426227Y93035488D01*
X50455825Y93083983D01*
X50473759Y93103079D01*
X50511451Y93132244D01*
X50554985Y93153546D01*
X50607064Y93167788D01*
X50670390Y93175776D01*
X50725593Y93178126D01*
X50820295Y93179705D01*
X50824707Y92684197D01*
X51057640Y92684197D01*
X51057640Y93408721D01*
X50930640Y93408648D01*
G36*
X45936000Y91834754D02*
G01*
X46169181Y91834754D01*
X46169181Y93408721D01*
X45936000Y93408721D01*
X45936000Y91834754D01*
G37*
X45936000Y91834754D02*
X46169181Y91834754D01*
X46169181Y93408721D01*
X45936000Y93408721D01*
X45936000Y91834754D01*
G36*
X56696848Y96252529D02*
G01*
X56687754Y96243012D01*
X56667992Y96222330D01*
X56638402Y96191358D01*
X56599821Y96150975D01*
X56553088Y96102058D01*
X56499041Y96045484D01*
X56438517Y95982130D01*
X56372356Y95912873D01*
X56301395Y95838592D01*
X56226472Y95760163D01*
X56148426Y95678464D01*
X56128471Y95657575D01*
X55583836Y95087445D01*
X55579673Y95628428D01*
X55575509Y96169410D01*
X55456836Y96171721D01*
X55338164Y96174031D01*
X55338164Y95341016D01*
X55338193Y95224772D01*
X55338275Y95113345D01*
X55338408Y95007849D01*
X55338587Y94909398D01*
X55338808Y94819108D01*
X55339068Y94738092D01*
X55339363Y94667467D01*
X55339689Y94608347D01*
X55340041Y94561846D01*
X55340417Y94529080D01*
X55340811Y94511163D01*
X55341064Y94508000D01*
X55347106Y94513882D01*
X55363882Y94530988D01*
X55390613Y94558507D01*
X55426518Y94595630D01*
X55470817Y94641545D01*
X55522730Y94695443D01*
X55581477Y94756513D01*
X55646277Y94823945D01*
X55716351Y94896928D01*
X55790918Y94974652D01*
X55869197Y95056308D01*
X55913605Y95102656D01*
X56483246Y95697313D01*
X56485388Y95148460D01*
X56487529Y94599607D01*
X56720591Y94599607D01*
X56720591Y96277352D01*
X56696848Y96252529D01*
G37*
X56696848Y96252529D02*
X56687754Y96243012D01*
X56667992Y96222330D01*
X56638402Y96191358D01*
X56599821Y96150975D01*
X56553088Y96102058D01*
X56499041Y96045484D01*
X56438517Y95982130D01*
X56372356Y95912873D01*
X56301395Y95838592D01*
X56226472Y95760163D01*
X56148426Y95678464D01*
X56128471Y95657575D01*
X55583836Y95087445D01*
X55579673Y95628428D01*
X55575509Y96169410D01*
X55456836Y96171721D01*
X55338164Y96174031D01*
X55338164Y95341016D01*
X55338193Y95224772D01*
X55338275Y95113345D01*
X55338408Y95007849D01*
X55338587Y94909398D01*
X55338808Y94819108D01*
X55339068Y94738092D01*
X55339363Y94667467D01*
X55339689Y94608347D01*
X55340041Y94561846D01*
X55340417Y94529080D01*
X55340811Y94511163D01*
X55341064Y94508000D01*
X55347106Y94513882D01*
X55363882Y94530988D01*
X55390613Y94558507D01*
X55426518Y94595630D01*
X55470817Y94641545D01*
X55522730Y94695443D01*
X55581477Y94756513D01*
X55646277Y94823945D01*
X55716351Y94896928D01*
X55790918Y94974652D01*
X55869197Y95056308D01*
X55913605Y95102656D01*
X56483246Y95697313D01*
X56485388Y95148460D01*
X56487529Y94599607D01*
X56720591Y94599607D01*
X56720591Y96277352D01*
X56696848Y96252529D01*
G36*
X44689837Y96267078D02*
G01*
X44679426Y96244592D01*
X44663366Y96209237D01*
X44642189Y96162202D01*
X44616424Y96104673D01*
X44586603Y96037839D01*
X44553257Y95962888D01*
X44516915Y95881008D01*
X44478110Y95793385D01*
X44437372Y95701209D01*
X44432706Y95690639D01*
X44391616Y95597601D01*
X44352293Y95508661D01*
X44315282Y95425045D01*
X44281129Y95347980D01*
X44250378Y95278692D01*
X44223573Y95218407D01*
X44201260Y95168353D01*
X44183984Y95129755D01*
X44172289Y95103841D01*
X44166721Y95091836D01*
X44166547Y95091495D01*
X44160968Y95082186D01*
X44155881Y95080280D01*
X44149374Y95087802D01*
X44139532Y95106777D01*
X44127287Y95133052D01*
X44119085Y95150913D01*
X44104588Y95182537D01*
X44084432Y95226538D01*
X44059248Y95281533D01*
X44029672Y95346137D01*
X43996337Y95418965D01*
X43959876Y95498635D01*
X43920923Y95583761D01*
X43880112Y95672958D01*
X43849709Y95739415D01*
X43800890Y95845980D01*
X43758473Y95938212D01*
X43722039Y96016973D01*
X43691169Y96083125D01*
X43665442Y96137531D01*
X43644441Y96181052D01*
X43627745Y96214550D01*
X43614935Y96238888D01*
X43605593Y96254927D01*
X43599299Y96263530D01*
X43595633Y96265558D01*
X43594549Y96264071D01*
X43592245Y96253152D01*
X43587341Y96227249D01*
X43580076Y96187717D01*
X43570688Y96135915D01*
X43559417Y96073199D01*
X43546500Y96000926D01*
X43532175Y95920455D01*
X43516682Y95833141D01*
X43500259Y95740342D01*
X43483143Y95643416D01*
X43465575Y95543719D01*
X43447791Y95442608D01*
X43430031Y95341441D01*
X43412533Y95241575D01*
X43395535Y95144367D01*
X43379276Y95051174D01*
X43363994Y94963353D01*
X43349928Y94882262D01*
X43337317Y94809258D01*
X43326397Y94745697D01*
X43317409Y94692937D01*
X43310591Y94652336D01*
X43306180Y94625250D01*
X43304416Y94613036D01*
X43304394Y94612623D01*
X43306399Y94607479D01*
X43314015Y94603871D01*
X43329639Y94601540D01*
X43355671Y94600229D01*
X43394508Y94599679D01*
X43425148Y94599607D01*
X43467833Y94600012D01*
X43503881Y94601127D01*
X43530367Y94602801D01*
X43544366Y94604882D01*
X43545819Y94605853D01*
X43547077Y94616660D01*
X43550733Y94641987D01*
X43556491Y94679999D01*
X43564055Y94728863D01*
X43573131Y94786747D01*
X43583422Y94851816D01*
X43594633Y94922238D01*
X43606469Y94996179D01*
X43618633Y95071807D01*
X43630832Y95147288D01*
X43642768Y95220788D01*
X43654148Y95290476D01*
X43664674Y95354517D01*
X43674052Y95411078D01*
X43681986Y95458326D01*
X43688181Y95494428D01*
X43692341Y95517551D01*
X43694096Y95525738D01*
X43698275Y95522582D01*
X43708113Y95506193D01*
X43723739Y95476306D01*
X43745279Y95432654D01*
X43772861Y95374972D01*
X43806613Y95302996D01*
X43846661Y95216458D01*
X43893134Y95115094D01*
X43928965Y95036475D01*
X43968080Y94950612D01*
X44005210Y94869373D01*
X44039779Y94794004D01*
X44071209Y94725752D01*
X44098922Y94665861D01*
X44122342Y94615578D01*
X44140891Y94576149D01*
X44153992Y94548819D01*
X44161068Y94534835D01*
X44162145Y94533226D01*
X44166132Y94540684D01*
X44176250Y94562130D01*
X44191931Y94596304D01*
X44212609Y94641945D01*
X44237717Y94697790D01*
X44266690Y94762578D01*
X44298961Y94835049D01*
X44333963Y94913941D01*
X44371131Y94997992D01*
X44386832Y95033580D01*
X44424747Y95119460D01*
X44460737Y95200764D01*
X44494235Y95276221D01*
X44524673Y95344563D01*
X44551480Y95404520D01*
X44574091Y95454820D01*
X44591935Y95494195D01*
X44604446Y95521375D01*
X44611054Y95535090D01*
X44611920Y95536523D01*
X44614173Y95529093D01*
X44619027Y95506700D01*
X44626209Y95470785D01*
X44635449Y95422792D01*
X44646474Y95364163D01*
X44659013Y95296341D01*
X44672793Y95220769D01*
X44687543Y95138888D01*
X44699548Y95071564D01*
X44782591Y94603771D01*
X44906387Y94601461D01*
X45030183Y94599150D01*
X45025718Y94618116D01*
X45023526Y94628795D01*
X45018364Y94654696D01*
X45010454Y94694694D01*
X45000017Y94747666D01*
X44987272Y94812486D01*
X44972440Y94888029D01*
X44955743Y94973170D01*
X44937402Y95066785D01*
X44917636Y95167749D01*
X44896667Y95274937D01*
X44874715Y95387224D01*
X44860617Y95459377D01*
X44838221Y95573667D01*
X44816637Y95683126D01*
X44796086Y95786674D01*
X44776787Y95883229D01*
X44758962Y95971711D01*
X44742831Y96051040D01*
X44728614Y96120134D01*
X44716533Y96177914D01*
X44706807Y96223298D01*
X44699657Y96255206D01*
X44695304Y96272557D01*
X44694068Y96275508D01*
X44689837Y96267078D01*
G37*
X44689837Y96267078D02*
X44679426Y96244592D01*
X44663366Y96209237D01*
X44642189Y96162202D01*
X44616424Y96104673D01*
X44586603Y96037839D01*
X44553257Y95962888D01*
X44516915Y95881008D01*
X44478110Y95793385D01*
X44437372Y95701209D01*
X44432706Y95690639D01*
X44391616Y95597601D01*
X44352293Y95508661D01*
X44315282Y95425045D01*
X44281129Y95347980D01*
X44250378Y95278692D01*
X44223573Y95218407D01*
X44201260Y95168353D01*
X44183984Y95129755D01*
X44172289Y95103841D01*
X44166721Y95091836D01*
X44166547Y95091495D01*
X44160968Y95082186D01*
X44155881Y95080280D01*
X44149374Y95087802D01*
X44139532Y95106777D01*
X44127287Y95133052D01*
X44119085Y95150913D01*
X44104588Y95182537D01*
X44084432Y95226538D01*
X44059248Y95281533D01*
X44029672Y95346137D01*
X43996337Y95418965D01*
X43959876Y95498635D01*
X43920923Y95583761D01*
X43880112Y95672958D01*
X43849709Y95739415D01*
X43800890Y95845980D01*
X43758473Y95938212D01*
X43722039Y96016973D01*
X43691169Y96083125D01*
X43665442Y96137531D01*
X43644441Y96181052D01*
X43627745Y96214550D01*
X43614935Y96238888D01*
X43605593Y96254927D01*
X43599299Y96263530D01*
X43595633Y96265558D01*
X43594549Y96264071D01*
X43592245Y96253152D01*
X43587341Y96227249D01*
X43580076Y96187717D01*
X43570688Y96135915D01*
X43559417Y96073199D01*
X43546500Y96000926D01*
X43532175Y95920455D01*
X43516682Y95833141D01*
X43500259Y95740342D01*
X43483143Y95643416D01*
X43465575Y95543719D01*
X43447791Y95442608D01*
X43430031Y95341441D01*
X43412533Y95241575D01*
X43395535Y95144367D01*
X43379276Y95051174D01*
X43363994Y94963353D01*
X43349928Y94882262D01*
X43337317Y94809258D01*
X43326397Y94745697D01*
X43317409Y94692937D01*
X43310591Y94652336D01*
X43306180Y94625250D01*
X43304416Y94613036D01*
X43304394Y94612623D01*
X43306399Y94607479D01*
X43314015Y94603871D01*
X43329639Y94601540D01*
X43355671Y94600229D01*
X43394508Y94599679D01*
X43425148Y94599607D01*
X43467833Y94600012D01*
X43503881Y94601127D01*
X43530367Y94602801D01*
X43544366Y94604882D01*
X43545819Y94605853D01*
X43547077Y94616660D01*
X43550733Y94641987D01*
X43556491Y94679999D01*
X43564055Y94728863D01*
X43573131Y94786747D01*
X43583422Y94851816D01*
X43594633Y94922238D01*
X43606469Y94996179D01*
X43618633Y95071807D01*
X43630832Y95147288D01*
X43642768Y95220788D01*
X43654148Y95290476D01*
X43664674Y95354517D01*
X43674052Y95411078D01*
X43681986Y95458326D01*
X43688181Y95494428D01*
X43692341Y95517551D01*
X43694096Y95525738D01*
X43698275Y95522582D01*
X43708113Y95506193D01*
X43723739Y95476306D01*
X43745279Y95432654D01*
X43772861Y95374972D01*
X43806613Y95302996D01*
X43846661Y95216458D01*
X43893134Y95115094D01*
X43928965Y95036475D01*
X43968080Y94950612D01*
X44005210Y94869373D01*
X44039779Y94794004D01*
X44071209Y94725752D01*
X44098922Y94665861D01*
X44122342Y94615578D01*
X44140891Y94576149D01*
X44153992Y94548819D01*
X44161068Y94534835D01*
X44162145Y94533226D01*
X44166132Y94540684D01*
X44176250Y94562130D01*
X44191931Y94596304D01*
X44212609Y94641945D01*
X44237717Y94697790D01*
X44266690Y94762578D01*
X44298961Y94835049D01*
X44333963Y94913941D01*
X44371131Y94997992D01*
X44386832Y95033580D01*
X44424747Y95119460D01*
X44460737Y95200764D01*
X44494235Y95276221D01*
X44524673Y95344563D01*
X44551480Y95404520D01*
X44574091Y95454820D01*
X44591935Y95494195D01*
X44604446Y95521375D01*
X44611054Y95535090D01*
X44611920Y95536523D01*
X44614173Y95529093D01*
X44619027Y95506700D01*
X44626209Y95470785D01*
X44635449Y95422792D01*
X44646474Y95364163D01*
X44659013Y95296341D01*
X44672793Y95220769D01*
X44687543Y95138888D01*
X44699548Y95071564D01*
X44782591Y94603771D01*
X44906387Y94601461D01*
X45030183Y94599150D01*
X45025718Y94618116D01*
X45023526Y94628795D01*
X45018364Y94654696D01*
X45010454Y94694694D01*
X45000017Y94747666D01*
X44987272Y94812486D01*
X44972440Y94888029D01*
X44955743Y94973170D01*
X44937402Y95066785D01*
X44917636Y95167749D01*
X44896667Y95274937D01*
X44874715Y95387224D01*
X44860617Y95459377D01*
X44838221Y95573667D01*
X44816637Y95683126D01*
X44796086Y95786674D01*
X44776787Y95883229D01*
X44758962Y95971711D01*
X44742831Y96051040D01*
X44728614Y96120134D01*
X44716533Y96177914D01*
X44706807Y96223298D01*
X44699657Y96255206D01*
X44695304Y96272557D01*
X44694068Y96275508D01*
X44689837Y96267078D01*
G36*
X54118037Y96193441D02*
G01*
X54052299Y96185941D01*
X53998126Y96174829D01*
X53940259Y96155417D01*
X53876953Y96128332D01*
X53814401Y96096599D01*
X53758796Y96063240D01*
X53734495Y96046114D01*
X53668345Y95990106D01*
X53605201Y95925380D01*
X53548080Y95855646D01*
X53499996Y95784615D01*
X53463963Y95715998D01*
X53461319Y95709842D01*
X53440109Y95656727D01*
X53424490Y95609870D01*
X53413663Y95564875D01*
X53406832Y95517343D01*
X53403198Y95462879D01*
X53401964Y95397084D01*
X53401935Y95382426D01*
X53402193Y95326605D01*
X53403186Y95283801D01*
X53405241Y95250380D01*
X53408685Y95222708D01*
X53413845Y95197152D01*
X53421048Y95170077D01*
X53421051Y95170066D01*
X53459691Y95064743D01*
X53512644Y94965753D01*
X53578416Y94874601D01*
X53655514Y94792791D01*
X53742442Y94721828D01*
X53837708Y94663215D01*
X53939818Y94618457D01*
X53982504Y94604694D01*
X54084107Y94582375D01*
X54191055Y94571820D01*
X54296296Y94573672D01*
X54309957Y94574904D01*
X54390356Y94586624D01*
X54464320Y94606060D01*
X54539517Y94635357D01*
X54560530Y94645002D01*
X54635472Y94683606D01*
X54699960Y94724767D01*
X54760103Y94772796D01*
X54813811Y94823687D01*
X54888088Y94909304D01*
X54947245Y95001526D01*
X54991393Y95100652D01*
X55020645Y95206983D01*
X55035112Y95320818D01*
X55035953Y95412375D01*
X54795976Y95412375D01*
X54794442Y95358483D01*
X54787083Y95272435D01*
X54772024Y95198256D01*
X54747702Y95132330D01*
X54712552Y95071042D01*
X54665010Y95010777D01*
X54626476Y94970197D01*
X54560060Y94909925D01*
X54495348Y94863942D01*
X54429284Y94830574D01*
X54358814Y94808147D01*
X54314919Y94799525D01*
X54271625Y94795664D01*
X54218438Y94795344D01*
X54161662Y94798235D01*
X54107603Y94804001D01*
X54062567Y94812311D01*
X54059836Y94813000D01*
X53979329Y94841966D01*
X53902359Y94885305D01*
X53831308Y94940772D01*
X53768559Y95006123D01*
X53716494Y95079116D01*
X53677495Y95157505D01*
X53668870Y95181225D01*
X53643715Y95282381D01*
X53635115Y95384483D01*
X53643070Y95486651D01*
X53667579Y95588003D01*
X53668969Y95592224D01*
X53702943Y95670295D01*
X53750522Y95744660D01*
X53808953Y95812155D01*
X53875485Y95869615D01*
X53947363Y95913874D01*
X53949699Y95915026D01*
X54007369Y95940942D01*
X54059644Y95958541D01*
X54112541Y95969191D01*
X54172073Y95974262D01*
X54214082Y95975199D01*
X54306163Y95970510D01*
X54388388Y95954561D01*
X54464101Y95926246D01*
X54536647Y95884460D01*
X54576164Y95855528D01*
X54640017Y95796074D01*
X54696009Y95725390D01*
X54741653Y95647383D01*
X54774466Y95565961D01*
X54784792Y95527429D01*
X54791451Y95491602D01*
X54795079Y95455000D01*
X54795976Y95412375D01*
X55035953Y95412375D01*
X55036023Y95419902D01*
X55024697Y95534299D01*
X54999674Y95640145D01*
X54960367Y95738717D01*
X54906188Y95831292D01*
X54836548Y95919145D01*
X54778717Y95978109D01*
X54688309Y96052882D01*
X54591787Y96112245D01*
X54488611Y96156482D01*
X54388871Y96183755D01*
X54330325Y96192365D01*
X54262223Y96196771D01*
X54189736Y96197090D01*
X54118037Y96193441D01*
G37*
X54118037Y96193441D02*
X54052299Y96185941D01*
X53998126Y96174829D01*
X53940259Y96155417D01*
X53876953Y96128332D01*
X53814401Y96096599D01*
X53758796Y96063240D01*
X53734495Y96046114D01*
X53668345Y95990106D01*
X53605201Y95925380D01*
X53548080Y95855646D01*
X53499996Y95784615D01*
X53463963Y95715998D01*
X53461319Y95709842D01*
X53440109Y95656727D01*
X53424490Y95609870D01*
X53413663Y95564875D01*
X53406832Y95517343D01*
X53403198Y95462879D01*
X53401964Y95397084D01*
X53401935Y95382426D01*
X53402193Y95326605D01*
X53403186Y95283801D01*
X53405241Y95250380D01*
X53408685Y95222708D01*
X53413845Y95197152D01*
X53421048Y95170077D01*
X53421051Y95170066D01*
X53459691Y95064743D01*
X53512644Y94965753D01*
X53578416Y94874601D01*
X53655514Y94792791D01*
X53742442Y94721828D01*
X53837708Y94663215D01*
X53939818Y94618457D01*
X53982504Y94604694D01*
X54084107Y94582375D01*
X54191055Y94571820D01*
X54296296Y94573672D01*
X54309957Y94574904D01*
X54390356Y94586624D01*
X54464320Y94606060D01*
X54539517Y94635357D01*
X54560530Y94645002D01*
X54635472Y94683606D01*
X54699960Y94724767D01*
X54760103Y94772796D01*
X54813811Y94823687D01*
X54888088Y94909304D01*
X54947245Y95001526D01*
X54991393Y95100652D01*
X55020645Y95206983D01*
X55035112Y95320818D01*
X55035953Y95412375D01*
X54795976Y95412375D01*
X54794442Y95358483D01*
X54787083Y95272435D01*
X54772024Y95198256D01*
X54747702Y95132330D01*
X54712552Y95071042D01*
X54665010Y95010777D01*
X54626476Y94970197D01*
X54560060Y94909925D01*
X54495348Y94863942D01*
X54429284Y94830574D01*
X54358814Y94808147D01*
X54314919Y94799525D01*
X54271625Y94795664D01*
X54218438Y94795344D01*
X54161662Y94798235D01*
X54107603Y94804001D01*
X54062567Y94812311D01*
X54059836Y94813000D01*
X53979329Y94841966D01*
X53902359Y94885305D01*
X53831308Y94940772D01*
X53768559Y95006123D01*
X53716494Y95079116D01*
X53677495Y95157505D01*
X53668870Y95181225D01*
X53643715Y95282381D01*
X53635115Y95384483D01*
X53643070Y95486651D01*
X53667579Y95588003D01*
X53668969Y95592224D01*
X53702943Y95670295D01*
X53750522Y95744660D01*
X53808953Y95812155D01*
X53875485Y95869615D01*
X53947363Y95913874D01*
X53949699Y95915026D01*
X54007369Y95940942D01*
X54059644Y95958541D01*
X54112541Y95969191D01*
X54172073Y95974262D01*
X54214082Y95975199D01*
X54306163Y95970510D01*
X54388388Y95954561D01*
X54464101Y95926246D01*
X54536647Y95884460D01*
X54576164Y95855528D01*
X54640017Y95796074D01*
X54696009Y95725390D01*
X54741653Y95647383D01*
X54774466Y95565961D01*
X54784792Y95527429D01*
X54791451Y95491602D01*
X54795079Y95455000D01*
X54795976Y95412375D01*
X55035953Y95412375D01*
X55036023Y95419902D01*
X55024697Y95534299D01*
X54999674Y95640145D01*
X54960367Y95738717D01*
X54906188Y95831292D01*
X54836548Y95919145D01*
X54778717Y95978109D01*
X54688309Y96052882D01*
X54591787Y96112245D01*
X54488611Y96156482D01*
X54388871Y96183755D01*
X54330325Y96192365D01*
X54262223Y96196771D01*
X54189736Y96197090D01*
X54118037Y96193441D01*
G36*
X49743414Y96188981D02*
G01*
X49665522Y96163184D01*
X49594107Y96122605D01*
X49528257Y96066942D01*
X49528053Y96066738D01*
X49507888Y96044818D01*
X49486370Y96018652D01*
X49465871Y95991532D01*
X49448764Y95966752D01*
X49437420Y95947606D01*
X49434211Y95937387D01*
X49434525Y95936876D01*
X49442727Y95931492D01*
X49461940Y95919774D01*
X49488782Y95903767D01*
X49504492Y95894511D01*
X49537481Y95875090D01*
X49568064Y95856977D01*
X49591213Y95843156D01*
X49597025Y95839643D01*
X49622935Y95823874D01*
X49652840Y95868915D01*
X49689428Y95915093D01*
X49729850Y95947205D01*
X49777102Y95966777D01*
X49834179Y95975336D01*
X49862968Y95976008D01*
X49927568Y95968725D01*
X49983408Y95948019D01*
X50029489Y95914290D01*
X50037778Y95905651D01*
X50063682Y95872648D01*
X50078300Y95840782D01*
X50084369Y95802979D01*
X50085028Y95783568D01*
X50080502Y95744334D01*
X50065292Y95708885D01*
X50038223Y95676101D01*
X49998121Y95644863D01*
X49943810Y95614050D01*
X49874164Y95582563D01*
X49784018Y95544157D01*
X49708120Y95509258D01*
X49644734Y95476704D01*
X49592122Y95445330D01*
X49548546Y95413972D01*
X49512267Y95381468D01*
X49481549Y95346652D01*
X49454652Y95308361D01*
X49447590Y95296893D01*
X49419024Y95238411D01*
X49401232Y95174750D01*
X49393526Y95102654D01*
X49393892Y95042463D01*
X49402208Y94961109D01*
X49420282Y94890081D01*
X49449408Y94825360D01*
X49478469Y94779678D01*
X49537446Y94710554D01*
X49605694Y94655100D01*
X49682625Y94613562D01*
X49767648Y94586190D01*
X49860174Y94573228D01*
X49959612Y94574925D01*
X49965549Y94575476D01*
X50052568Y94591889D01*
X50132775Y94623097D01*
X50204832Y94668165D01*
X50267403Y94726158D01*
X50319151Y94796141D01*
X50342284Y94838924D01*
X50353964Y94866408D01*
X50366093Y94900049D01*
X50377609Y94936125D01*
X50387449Y94970913D01*
X50394549Y95000691D01*
X50397845Y95021737D01*
X50396858Y95029984D01*
X50387943Y95032954D01*
X50366360Y95038567D01*
X50335735Y95045996D01*
X50299690Y95054418D01*
X50261850Y95063007D01*
X50225838Y95070939D01*
X50195279Y95077387D01*
X50173796Y95081527D01*
X50165651Y95082623D01*
X50160795Y95075254D01*
X50155594Y95056708D01*
X50153796Y95047230D01*
X50137045Y94974833D01*
X50112752Y94916221D01*
X50079971Y94869885D01*
X50037757Y94834317D01*
X50010775Y94819090D01*
X49983743Y94807134D01*
X49959094Y94800132D01*
X49930457Y94796843D01*
X49892317Y94796029D01*
X49830406Y94800327D01*
X49779378Y94814249D01*
X49735587Y94839282D01*
X49696375Y94875805D01*
X49662122Y94925205D01*
X49640427Y94981112D01*
X49631309Y95040312D01*
X49634787Y95099592D01*
X49650879Y95155739D01*
X49679603Y95205539D01*
X49694378Y95222697D01*
X49720524Y95246174D01*
X49754378Y95269697D01*
X49797937Y95294381D01*
X49853199Y95321346D01*
X49922160Y95351709D01*
X49933379Y95356445D01*
X50004416Y95387277D01*
X50062308Y95414856D01*
X50109836Y95440808D01*
X50149779Y95466758D01*
X50184916Y95494334D01*
X50212641Y95519836D01*
X50263671Y95579923D01*
X50299731Y95644272D01*
X50321469Y95711366D01*
X50329536Y95779687D01*
X50324582Y95847719D01*
X50307257Y95913945D01*
X50278211Y95976848D01*
X50238094Y96034911D01*
X50187556Y96086617D01*
X50127247Y96130449D01*
X50057818Y96164890D01*
X49979917Y96188423D01*
X49922279Y96197438D01*
X49828695Y96200298D01*
X49743414Y96188981D01*
G37*
X49743414Y96188981D02*
X49665522Y96163184D01*
X49594107Y96122605D01*
X49528257Y96066942D01*
X49528053Y96066738D01*
X49507888Y96044818D01*
X49486370Y96018652D01*
X49465871Y95991532D01*
X49448764Y95966752D01*
X49437420Y95947606D01*
X49434211Y95937387D01*
X49434525Y95936876D01*
X49442727Y95931492D01*
X49461940Y95919774D01*
X49488782Y95903767D01*
X49504492Y95894511D01*
X49537481Y95875090D01*
X49568064Y95856977D01*
X49591213Y95843156D01*
X49597025Y95839643D01*
X49622935Y95823874D01*
X49652840Y95868915D01*
X49689428Y95915093D01*
X49729850Y95947205D01*
X49777102Y95966777D01*
X49834179Y95975336D01*
X49862968Y95976008D01*
X49927568Y95968725D01*
X49983408Y95948019D01*
X50029489Y95914290D01*
X50037778Y95905651D01*
X50063682Y95872648D01*
X50078300Y95840782D01*
X50084369Y95802979D01*
X50085028Y95783568D01*
X50080502Y95744334D01*
X50065292Y95708885D01*
X50038223Y95676101D01*
X49998121Y95644863D01*
X49943810Y95614050D01*
X49874164Y95582563D01*
X49784018Y95544157D01*
X49708120Y95509258D01*
X49644734Y95476704D01*
X49592122Y95445330D01*
X49548546Y95413972D01*
X49512267Y95381468D01*
X49481549Y95346652D01*
X49454652Y95308361D01*
X49447590Y95296893D01*
X49419024Y95238411D01*
X49401232Y95174750D01*
X49393526Y95102654D01*
X49393892Y95042463D01*
X49402208Y94961109D01*
X49420282Y94890081D01*
X49449408Y94825360D01*
X49478469Y94779678D01*
X49537446Y94710554D01*
X49605694Y94655100D01*
X49682625Y94613562D01*
X49767648Y94586190D01*
X49860174Y94573228D01*
X49959612Y94574925D01*
X49965549Y94575476D01*
X50052568Y94591889D01*
X50132775Y94623097D01*
X50204832Y94668165D01*
X50267403Y94726158D01*
X50319151Y94796141D01*
X50342284Y94838924D01*
X50353964Y94866408D01*
X50366093Y94900049D01*
X50377609Y94936125D01*
X50387449Y94970913D01*
X50394549Y95000691D01*
X50397845Y95021737D01*
X50396858Y95029984D01*
X50387943Y95032954D01*
X50366360Y95038567D01*
X50335735Y95045996D01*
X50299690Y95054418D01*
X50261850Y95063007D01*
X50225838Y95070939D01*
X50195279Y95077387D01*
X50173796Y95081527D01*
X50165651Y95082623D01*
X50160795Y95075254D01*
X50155594Y95056708D01*
X50153796Y95047230D01*
X50137045Y94974833D01*
X50112752Y94916221D01*
X50079971Y94869885D01*
X50037757Y94834317D01*
X50010775Y94819090D01*
X49983743Y94807134D01*
X49959094Y94800132D01*
X49930457Y94796843D01*
X49892317Y94796029D01*
X49830406Y94800327D01*
X49779378Y94814249D01*
X49735587Y94839282D01*
X49696375Y94875805D01*
X49662122Y94925205D01*
X49640427Y94981112D01*
X49631309Y95040312D01*
X49634787Y95099592D01*
X49650879Y95155739D01*
X49679603Y95205539D01*
X49694378Y95222697D01*
X49720524Y95246174D01*
X49754378Y95269697D01*
X49797937Y95294381D01*
X49853199Y95321346D01*
X49922160Y95351709D01*
X49933379Y95356445D01*
X50004416Y95387277D01*
X50062308Y95414856D01*
X50109836Y95440808D01*
X50149779Y95466758D01*
X50184916Y95494334D01*
X50212641Y95519836D01*
X50263671Y95579923D01*
X50299731Y95644272D01*
X50321469Y95711366D01*
X50329536Y95779687D01*
X50324582Y95847719D01*
X50307257Y95913945D01*
X50278211Y95976848D01*
X50238094Y96034911D01*
X50187556Y96086617D01*
X50127247Y96130449D01*
X50057818Y96164890D01*
X49979917Y96188423D01*
X49922279Y96197438D01*
X49828695Y96200298D01*
X49743414Y96188981D01*
G36*
X45290803Y96073725D02*
G01*
X45375466Y95988322D01*
X45460130Y95902918D01*
X45426627Y95857115D01*
X45368027Y95763164D01*
X45323402Y95661714D01*
X45293059Y95554781D01*
X45277302Y95444378D01*
X45276435Y95332521D01*
X45290763Y95221224D01*
X45316033Y95125798D01*
X45347648Y95043935D01*
X45385926Y94971187D01*
X45434347Y94901434D01*
X45464502Y94864532D01*
X45548516Y94778222D01*
X45640224Y94706604D01*
X45739047Y94649914D01*
X45844403Y94608389D01*
X45955712Y94582267D01*
X46072391Y94571785D01*
X46173345Y94575172D01*
X46277552Y94590676D01*
X46375501Y94619042D01*
X46408185Y94631772D01*
X46453266Y94652188D01*
X46500798Y94676613D01*
X46545477Y94702113D01*
X46582001Y94725758D01*
X46593028Y94733953D01*
X46613717Y94750226D01*
X46781617Y94582898D01*
X46847557Y94649227D01*
X46913498Y94715557D01*
X46832034Y94799509D01*
X46799933Y94832782D01*
X46778008Y94856418D01*
X46764759Y94872663D01*
X46758688Y94883762D01*
X46758298Y94891959D01*
X46762089Y94899499D01*
X46763730Y94901846D01*
X46766288Y94906030D01*
X46438781Y94906030D01*
X46428831Y94898350D01*
X46407327Y94885984D01*
X46378033Y94870780D01*
X46344715Y94854588D01*
X46311137Y94839257D01*
X46281065Y94826637D01*
X46265177Y94820762D01*
X46188106Y94802126D01*
X46104010Y94794854D01*
X46018016Y94798917D01*
X45935254Y94814288D01*
X45907053Y94822646D01*
X45825332Y94858103D01*
X45749159Y94907750D01*
X45680427Y94969528D01*
X45621029Y95041376D01*
X45572857Y95121235D01*
X45537804Y95207047D01*
X45530422Y95232525D01*
X45520350Y95287338D01*
X45515544Y95351129D01*
X45515920Y95418024D01*
X45521389Y95482150D01*
X45531865Y95537636D01*
X45535105Y95548984D01*
X45546119Y95580421D01*
X45560557Y95615966D01*
X45576826Y95652340D01*
X45593330Y95686262D01*
X45608477Y95714452D01*
X45620671Y95733632D01*
X45628208Y95740525D01*
X45635484Y95734735D01*
X45653079Y95718147D01*
X45679855Y95691930D01*
X45714676Y95657256D01*
X45756406Y95615293D01*
X45803906Y95567213D01*
X45856041Y95514187D01*
X45911673Y95457384D01*
X45969666Y95397975D01*
X46028884Y95337129D01*
X46088188Y95276019D01*
X46146442Y95215814D01*
X46202510Y95157683D01*
X46255255Y95102799D01*
X46303539Y95052330D01*
X46346226Y95007448D01*
X46382180Y94969323D01*
X46410263Y94939125D01*
X46429338Y94918025D01*
X46438269Y94907193D01*
X46438781Y94906030D01*
X46766288Y94906030D01*
X46822624Y94998152D01*
X46867360Y95101715D01*
X46897668Y95210595D01*
X46913276Y95322849D01*
X46913740Y95405694D01*
X46674781Y95405694D01*
X46673820Y95328223D01*
X46669689Y95292125D01*
X46659775Y95245884D01*
X46644394Y95193988D01*
X46625696Y95142572D01*
X46605833Y95097775D01*
X46594065Y95076323D01*
X46577425Y95049203D01*
X46366702Y95263700D01*
X46306330Y95325225D01*
X46239268Y95393691D01*
X46169033Y95465499D01*
X46099143Y95537050D01*
X46033115Y95604744D01*
X45974468Y95664982D01*
X45962650Y95677139D01*
X45905937Y95735843D01*
X45860486Y95783692D01*
X45825622Y95821449D01*
X45800673Y95849874D01*
X45784964Y95869731D01*
X45777821Y95881780D01*
X45777704Y95886182D01*
X45791465Y95896383D01*
X45816934Y95910020D01*
X45850008Y95925286D01*
X45886586Y95940375D01*
X45922566Y95953480D01*
X45948492Y95961410D01*
X45989941Y95969031D01*
X46042153Y95973491D01*
X46099535Y95974788D01*
X46156497Y95972918D01*
X46207446Y95967876D01*
X46239968Y95961598D01*
X46329195Y95929914D01*
X46411708Y95883999D01*
X46485816Y95825501D01*
X46549826Y95756068D01*
X46602047Y95677348D01*
X46640787Y95590991D01*
X46650064Y95561998D01*
X46666691Y95485970D01*
X46674781Y95405694D01*
X46913740Y95405694D01*
X46913914Y95436538D01*
X46899310Y95549720D01*
X46869575Y95659359D01*
X46827489Y95755925D01*
X46770881Y95847219D01*
X46701476Y95931628D01*
X46621002Y96007538D01*
X46531183Y96073335D01*
X46433747Y96127405D01*
X46330419Y96168135D01*
X46322733Y96170530D01*
X46295049Y96178680D01*
X46270921Y96184625D01*
X46246870Y96188715D01*
X46219416Y96191300D01*
X46185081Y96192729D01*
X46140387Y96193353D01*
X46094230Y96193508D01*
X46038715Y96193431D01*
X45996406Y96192811D01*
X45963856Y96191306D01*
X45937616Y96188576D01*
X45914239Y96184281D01*
X45890276Y96178082D01*
X45866976Y96171094D01*
X45797422Y96146146D01*
X45727764Y96114972D01*
X45664661Y96080699D01*
X45637369Y96063188D01*
X45601066Y96038276D01*
X45514490Y96124556D01*
X45427915Y96210837D01*
X45290803Y96073725D01*
G37*
X45290803Y96073725D02*
X45375466Y95988322D01*
X45460130Y95902918D01*
X45426627Y95857115D01*
X45368027Y95763164D01*
X45323402Y95661714D01*
X45293059Y95554781D01*
X45277302Y95444378D01*
X45276435Y95332521D01*
X45290763Y95221224D01*
X45316033Y95125798D01*
X45347648Y95043935D01*
X45385926Y94971187D01*
X45434347Y94901434D01*
X45464502Y94864532D01*
X45548516Y94778222D01*
X45640224Y94706604D01*
X45739047Y94649914D01*
X45844403Y94608389D01*
X45955712Y94582267D01*
X46072391Y94571785D01*
X46173345Y94575172D01*
X46277552Y94590676D01*
X46375501Y94619042D01*
X46408185Y94631772D01*
X46453266Y94652188D01*
X46500798Y94676613D01*
X46545477Y94702113D01*
X46582001Y94725758D01*
X46593028Y94733953D01*
X46613717Y94750226D01*
X46781617Y94582898D01*
X46847557Y94649227D01*
X46913498Y94715557D01*
X46832034Y94799509D01*
X46799933Y94832782D01*
X46778008Y94856418D01*
X46764759Y94872663D01*
X46758688Y94883762D01*
X46758298Y94891959D01*
X46762089Y94899499D01*
X46763730Y94901846D01*
X46766288Y94906030D01*
X46438781Y94906030D01*
X46428831Y94898350D01*
X46407327Y94885984D01*
X46378033Y94870780D01*
X46344715Y94854588D01*
X46311137Y94839257D01*
X46281065Y94826637D01*
X46265177Y94820762D01*
X46188106Y94802126D01*
X46104010Y94794854D01*
X46018016Y94798917D01*
X45935254Y94814288D01*
X45907053Y94822646D01*
X45825332Y94858103D01*
X45749159Y94907750D01*
X45680427Y94969528D01*
X45621029Y95041376D01*
X45572857Y95121235D01*
X45537804Y95207047D01*
X45530422Y95232525D01*
X45520350Y95287338D01*
X45515544Y95351129D01*
X45515920Y95418024D01*
X45521389Y95482150D01*
X45531865Y95537636D01*
X45535105Y95548984D01*
X45546119Y95580421D01*
X45560557Y95615966D01*
X45576826Y95652340D01*
X45593330Y95686262D01*
X45608477Y95714452D01*
X45620671Y95733632D01*
X45628208Y95740525D01*
X45635484Y95734735D01*
X45653079Y95718147D01*
X45679855Y95691930D01*
X45714676Y95657256D01*
X45756406Y95615293D01*
X45803906Y95567213D01*
X45856041Y95514187D01*
X45911673Y95457384D01*
X45969666Y95397975D01*
X46028884Y95337129D01*
X46088188Y95276019D01*
X46146442Y95215814D01*
X46202510Y95157683D01*
X46255255Y95102799D01*
X46303539Y95052330D01*
X46346226Y95007448D01*
X46382180Y94969323D01*
X46410263Y94939125D01*
X46429338Y94918025D01*
X46438269Y94907193D01*
X46438781Y94906030D01*
X46766288Y94906030D01*
X46822624Y94998152D01*
X46867360Y95101715D01*
X46897668Y95210595D01*
X46913276Y95322849D01*
X46913740Y95405694D01*
X46674781Y95405694D01*
X46673820Y95328223D01*
X46669689Y95292125D01*
X46659775Y95245884D01*
X46644394Y95193988D01*
X46625696Y95142572D01*
X46605833Y95097775D01*
X46594065Y95076323D01*
X46577425Y95049203D01*
X46366702Y95263700D01*
X46306330Y95325225D01*
X46239268Y95393691D01*
X46169033Y95465499D01*
X46099143Y95537050D01*
X46033115Y95604744D01*
X45974468Y95664982D01*
X45962650Y95677139D01*
X45905937Y95735843D01*
X45860486Y95783692D01*
X45825622Y95821449D01*
X45800673Y95849874D01*
X45784964Y95869731D01*
X45777821Y95881780D01*
X45777704Y95886182D01*
X45791465Y95896383D01*
X45816934Y95910020D01*
X45850008Y95925286D01*
X45886586Y95940375D01*
X45922566Y95953480D01*
X45948492Y95961410D01*
X45989941Y95969031D01*
X46042153Y95973491D01*
X46099535Y95974788D01*
X46156497Y95972918D01*
X46207446Y95967876D01*
X46239968Y95961598D01*
X46329195Y95929914D01*
X46411708Y95883999D01*
X46485816Y95825501D01*
X46549826Y95756068D01*
X46602047Y95677348D01*
X46640787Y95590991D01*
X46650064Y95561998D01*
X46666691Y95485970D01*
X46674781Y95405694D01*
X46913740Y95405694D01*
X46913914Y95436538D01*
X46899310Y95549720D01*
X46869575Y95659359D01*
X46827489Y95755925D01*
X46770881Y95847219D01*
X46701476Y95931628D01*
X46621002Y96007538D01*
X46531183Y96073335D01*
X46433747Y96127405D01*
X46330419Y96168135D01*
X46322733Y96170530D01*
X46295049Y96178680D01*
X46270921Y96184625D01*
X46246870Y96188715D01*
X46219416Y96191300D01*
X46185081Y96192729D01*
X46140387Y96193353D01*
X46094230Y96193508D01*
X46038715Y96193431D01*
X45996406Y96192811D01*
X45963856Y96191306D01*
X45937616Y96188576D01*
X45914239Y96184281D01*
X45890276Y96178082D01*
X45866976Y96171094D01*
X45797422Y96146146D01*
X45727764Y96114972D01*
X45664661Y96080699D01*
X45637369Y96063188D01*
X45601066Y96038276D01*
X45514490Y96124556D01*
X45427915Y96210837D01*
X45290803Y96073725D01*
G36*
X52941820Y96173503D02*
G01*
X52832048Y96172213D01*
X52737048Y96168175D01*
X52655101Y96160980D01*
X52584489Y96150215D01*
X52523491Y96135470D01*
X52470389Y96116332D01*
X52423464Y96092392D01*
X52380997Y96063237D01*
X52343180Y96030301D01*
X52291179Y95969492D01*
X52251465Y95899878D01*
X52226099Y95825152D01*
X52224349Y95817148D01*
X52216127Y95751765D01*
X52216435Y95681627D01*
X52224705Y95612034D01*
X52240366Y95548285D01*
X52257863Y95505000D01*
X52300202Y95437081D01*
X52353188Y95378058D01*
X52414214Y95330258D01*
X52480671Y95296010D01*
X52499652Y95289245D01*
X52527081Y95279142D01*
X52546358Y95269587D01*
X52553790Y95262453D01*
X52553690Y95261790D01*
X52548243Y95253442D01*
X52533960Y95232980D01*
X52511810Y95201755D01*
X52482761Y95161118D01*
X52447780Y95112419D01*
X52407837Y95057010D01*
X52363900Y94996241D01*
X52316936Y94931463D01*
X52316112Y94930329D01*
X52269250Y94865698D01*
X52225516Y94805219D01*
X52185860Y94750219D01*
X52151231Y94702021D01*
X52122577Y94661949D01*
X52100850Y94631330D01*
X52086999Y94611486D01*
X52081972Y94603742D01*
X52081968Y94603710D01*
X52089848Y94602399D01*
X52111698Y94601317D01*
X52144836Y94600532D01*
X52186575Y94600112D01*
X52225623Y94600087D01*
X52369279Y94600568D01*
X52590031Y94918628D01*
X52642468Y94994041D01*
X52686379Y95056818D01*
X52722618Y95108085D01*
X52752041Y95148969D01*
X52775504Y95180596D01*
X52793861Y95204092D01*
X52807968Y95220584D01*
X52818681Y95231196D01*
X52826855Y95237056D01*
X52833345Y95239289D01*
X52833621Y95239324D01*
X52856459Y95241959D01*
X52856459Y94599607D01*
X53097968Y94599607D01*
X53097968Y95446574D01*
X52856459Y95446574D01*
X52762771Y95451387D01*
X52695040Y95457290D01*
X52637351Y95467252D01*
X52612343Y95473941D01*
X52553918Y95498753D01*
X52509039Y95532817D01*
X52477105Y95576925D01*
X52457514Y95631869D01*
X52450127Y95687500D01*
X52452188Y95754448D01*
X52466610Y95810585D01*
X52493783Y95856682D01*
X52534102Y95893514D01*
X52563620Y95910914D01*
X52603883Y95926045D01*
X52656098Y95937891D01*
X52715751Y95945664D01*
X52778327Y95948574D01*
X52779427Y95948577D01*
X52856459Y95948721D01*
X52856459Y95446574D01*
X53097968Y95446574D01*
X53097968Y96173574D01*
X52941820Y96173503D01*
G37*
X52941820Y96173503D02*
X52832048Y96172213D01*
X52737048Y96168175D01*
X52655101Y96160980D01*
X52584489Y96150215D01*
X52523491Y96135470D01*
X52470389Y96116332D01*
X52423464Y96092392D01*
X52380997Y96063237D01*
X52343180Y96030301D01*
X52291179Y95969492D01*
X52251465Y95899878D01*
X52226099Y95825152D01*
X52224349Y95817148D01*
X52216127Y95751765D01*
X52216435Y95681627D01*
X52224705Y95612034D01*
X52240366Y95548285D01*
X52257863Y95505000D01*
X52300202Y95437081D01*
X52353188Y95378058D01*
X52414214Y95330258D01*
X52480671Y95296010D01*
X52499652Y95289245D01*
X52527081Y95279142D01*
X52546358Y95269587D01*
X52553790Y95262453D01*
X52553690Y95261790D01*
X52548243Y95253442D01*
X52533960Y95232980D01*
X52511810Y95201755D01*
X52482761Y95161118D01*
X52447780Y95112419D01*
X52407837Y95057010D01*
X52363900Y94996241D01*
X52316936Y94931463D01*
X52316112Y94930329D01*
X52269250Y94865698D01*
X52225516Y94805219D01*
X52185860Y94750219D01*
X52151231Y94702021D01*
X52122577Y94661949D01*
X52100850Y94631330D01*
X52086999Y94611486D01*
X52081972Y94603742D01*
X52081968Y94603710D01*
X52089848Y94602399D01*
X52111698Y94601317D01*
X52144836Y94600532D01*
X52186575Y94600112D01*
X52225623Y94600087D01*
X52369279Y94600568D01*
X52590031Y94918628D01*
X52642468Y94994041D01*
X52686379Y95056818D01*
X52722618Y95108085D01*
X52752041Y95148969D01*
X52775504Y95180596D01*
X52793861Y95204092D01*
X52807968Y95220584D01*
X52818681Y95231196D01*
X52826855Y95237056D01*
X52833345Y95239289D01*
X52833621Y95239324D01*
X52856459Y95241959D01*
X52856459Y94599607D01*
X53097968Y94599607D01*
X53097968Y95446574D01*
X52856459Y95446574D01*
X52762771Y95451387D01*
X52695040Y95457290D01*
X52637351Y95467252D01*
X52612343Y95473941D01*
X52553918Y95498753D01*
X52509039Y95532817D01*
X52477105Y95576925D01*
X52457514Y95631869D01*
X52450127Y95687500D01*
X52452188Y95754448D01*
X52466610Y95810585D01*
X52493783Y95856682D01*
X52534102Y95893514D01*
X52563620Y95910914D01*
X52603883Y95926045D01*
X52656098Y95937891D01*
X52715751Y95945664D01*
X52778327Y95948574D01*
X52779427Y95948577D01*
X52856459Y95948721D01*
X52856459Y95446574D01*
X53097968Y95446574D01*
X53097968Y96173574D01*
X52941820Y96173503D01*
G36*
X51527230Y96172739D02*
G01*
X51435170Y96170055D01*
X51355365Y96165253D01*
X51285654Y96158064D01*
X51223875Y96148220D01*
X51167864Y96135452D01*
X51115461Y96119491D01*
X51074121Y96104016D01*
X51019475Y96079346D01*
X50970386Y96050911D01*
X50922661Y96015796D01*
X50872106Y95971084D01*
X50844798Y95944558D01*
X50788255Y95884515D01*
X50743144Y95826949D01*
X50707168Y95767725D01*
X50678034Y95702706D01*
X50653447Y95627756D01*
X50639462Y95574410D01*
X50627299Y95504457D01*
X50621575Y95424949D01*
X50622217Y95341662D01*
X50629152Y95260372D01*
X50642309Y95186854D01*
X50644415Y95178394D01*
X50679933Y95072435D01*
X50729187Y94974367D01*
X50791028Y94885367D01*
X50864304Y94806615D01*
X50947866Y94739290D01*
X51040564Y94684572D01*
X51141248Y94643639D01*
X51175991Y94633368D01*
X51218703Y94623297D01*
X51265483Y94615248D01*
X51318478Y94609058D01*
X51379834Y94604563D01*
X51451698Y94601601D01*
X51536217Y94600007D01*
X51619443Y94599607D01*
X51840459Y94599607D01*
X51840459Y94824459D01*
X51598951Y94824459D01*
X51484443Y94824569D01*
X51406496Y94826544D01*
X51340735Y94832533D01*
X51294984Y94840269D01*
X51202900Y94866552D01*
X51121357Y94905261D01*
X51048928Y94957238D01*
X50984186Y95023328D01*
X50983308Y95024381D01*
X50935166Y95091049D01*
X50900019Y95160878D01*
X50876917Y95236721D01*
X50864909Y95321431D01*
X50862596Y95386590D01*
X50867743Y95480694D01*
X50883846Y95564014D01*
X50911901Y95639115D01*
X50952902Y95708561D01*
X51007842Y95774917D01*
X51016765Y95784170D01*
X51069448Y95831727D01*
X51125980Y95869901D01*
X51188606Y95899493D01*
X51259568Y95921303D01*
X51341112Y95936131D01*
X51435482Y95944779D01*
X51471951Y95946493D01*
X51598951Y95951231D01*
X51598951Y94824459D01*
X51840459Y94824459D01*
X51840459Y96173574D01*
X51633709Y96173574D01*
X51527230Y96172739D01*
G37*
X51527230Y96172739D02*
X51435170Y96170055D01*
X51355365Y96165253D01*
X51285654Y96158064D01*
X51223875Y96148220D01*
X51167864Y96135452D01*
X51115461Y96119491D01*
X51074121Y96104016D01*
X51019475Y96079346D01*
X50970386Y96050911D01*
X50922661Y96015796D01*
X50872106Y95971084D01*
X50844798Y95944558D01*
X50788255Y95884515D01*
X50743144Y95826949D01*
X50707168Y95767725D01*
X50678034Y95702706D01*
X50653447Y95627756D01*
X50639462Y95574410D01*
X50627299Y95504457D01*
X50621575Y95424949D01*
X50622217Y95341662D01*
X50629152Y95260372D01*
X50642309Y95186854D01*
X50644415Y95178394D01*
X50679933Y95072435D01*
X50729187Y94974367D01*
X50791028Y94885367D01*
X50864304Y94806615D01*
X50947866Y94739290D01*
X51040564Y94684572D01*
X51141248Y94643639D01*
X51175991Y94633368D01*
X51218703Y94623297D01*
X51265483Y94615248D01*
X51318478Y94609058D01*
X51379834Y94604563D01*
X51451698Y94601601D01*
X51536217Y94600007D01*
X51619443Y94599607D01*
X51840459Y94599607D01*
X51840459Y94824459D01*
X51598951Y94824459D01*
X51484443Y94824569D01*
X51406496Y94826544D01*
X51340735Y94832533D01*
X51294984Y94840269D01*
X51202900Y94866552D01*
X51121357Y94905261D01*
X51048928Y94957238D01*
X50984186Y95023328D01*
X50983308Y95024381D01*
X50935166Y95091049D01*
X50900019Y95160878D01*
X50876917Y95236721D01*
X50864909Y95321431D01*
X50862596Y95386590D01*
X50867743Y95480694D01*
X50883846Y95564014D01*
X50911901Y95639115D01*
X50952902Y95708561D01*
X51007842Y95774917D01*
X51016765Y95784170D01*
X51069448Y95831727D01*
X51125980Y95869901D01*
X51188606Y95899493D01*
X51259568Y95921303D01*
X51341112Y95936131D01*
X51435482Y95944779D01*
X51471951Y95946493D01*
X51598951Y95951231D01*
X51598951Y94824459D01*
X51840459Y94824459D01*
X51840459Y96173574D01*
X51633709Y96173574D01*
X51527230Y96172739D01*
G36*
X48309443Y95948721D02*
G01*
X48667541Y95948721D01*
X48667541Y94599607D01*
X48909050Y94599607D01*
X48909050Y95948721D01*
X49267148Y95948721D01*
X49267148Y96173574D01*
X48309443Y96173574D01*
X48309443Y95948721D01*
G37*
X48309443Y95948721D02*
X48667541Y95948721D01*
X48667541Y94599607D01*
X48909050Y94599607D01*
X48909050Y95948721D01*
X49267148Y95948721D01*
X49267148Y96173574D01*
X48309443Y96173574D01*
X48309443Y95948721D01*
G36*
X47936771Y96173293D02*
G01*
X47820025Y96171432D01*
X47718208Y96165988D01*
X47629887Y96156503D01*
X47553631Y96142516D01*
X47488009Y96123567D01*
X47431587Y96099197D01*
X47382935Y96068946D01*
X47340620Y96032353D01*
X47303210Y95988959D01*
X47285623Y95964157D01*
X47248541Y95894171D01*
X47224678Y95817111D01*
X47214048Y95736048D01*
X47216660Y95654053D01*
X47232527Y95574198D01*
X47261660Y95499555D01*
X47283761Y95461195D01*
X47331006Y95400980D01*
X47386901Y95349619D01*
X47448171Y95309638D01*
X47511540Y95283558D01*
X47515830Y95282357D01*
X47539297Y95275767D01*
X47554908Y95270968D01*
X47558277Y95269639D01*
X47553935Y95262892D01*
X47540949Y95244240D01*
X47520456Y95215258D01*
X47493592Y95177523D01*
X47461492Y95132612D01*
X47425292Y95082102D01*
X47386127Y95027569D01*
X47345134Y94970590D01*
X47303449Y94912741D01*
X47262206Y94855600D01*
X47222542Y94800743D01*
X47185593Y94749747D01*
X47152493Y94704188D01*
X47124380Y94665643D01*
X47102389Y94635689D01*
X47087655Y94615903D01*
X47083128Y94610017D01*
X47083285Y94606154D01*
X47091949Y94603324D01*
X47110893Y94601392D01*
X47141891Y94600224D01*
X47186716Y94599684D01*
X47220508Y94599607D01*
X47366136Y94599607D01*
X47589784Y94920230D01*
X47642134Y94995181D01*
X47685906Y95057558D01*
X47721974Y95108498D01*
X47751215Y95149138D01*
X47774503Y95180616D01*
X47792716Y95204071D01*
X47806728Y95220638D01*
X47817414Y95231457D01*
X47825652Y95237664D01*
X47832316Y95240397D01*
X47836585Y95240853D01*
X47859738Y95240853D01*
X47859738Y94599607D01*
X48092918Y94599607D01*
X48092918Y95446599D01*
X47859738Y95446599D01*
X47761886Y95451448D01*
X47718135Y95454581D01*
X47675852Y95459286D01*
X47640488Y95464868D01*
X47621137Y95469407D01*
X47560225Y95495171D01*
X47512188Y95531382D01*
X47476765Y95578243D01*
X47472680Y95585896D01*
X47459881Y95613039D01*
X47452321Y95636454D01*
X47448688Y95662474D01*
X47447668Y95697435D01*
X47447663Y95706650D01*
X47448787Y95747193D01*
X47452639Y95777063D01*
X47460251Y95802156D01*
X47467056Y95817377D01*
X47493823Y95858921D01*
X47529957Y95891710D01*
X47576819Y95916358D01*
X47635772Y95933478D01*
X47708175Y95943685D01*
X47753558Y95946547D01*
X47859738Y95950932D01*
X47859738Y95446599D01*
X48092918Y95446599D01*
X48092918Y96173574D01*
X47936771Y96173293D01*
G37*
X47936771Y96173293D02*
X47820025Y96171432D01*
X47718208Y96165988D01*
X47629887Y96156503D01*
X47553631Y96142516D01*
X47488009Y96123567D01*
X47431587Y96099197D01*
X47382935Y96068946D01*
X47340620Y96032353D01*
X47303210Y95988959D01*
X47285623Y95964157D01*
X47248541Y95894171D01*
X47224678Y95817111D01*
X47214048Y95736048D01*
X47216660Y95654053D01*
X47232527Y95574198D01*
X47261660Y95499555D01*
X47283761Y95461195D01*
X47331006Y95400980D01*
X47386901Y95349619D01*
X47448171Y95309638D01*
X47511540Y95283558D01*
X47515830Y95282357D01*
X47539297Y95275767D01*
X47554908Y95270968D01*
X47558277Y95269639D01*
X47553935Y95262892D01*
X47540949Y95244240D01*
X47520456Y95215258D01*
X47493592Y95177523D01*
X47461492Y95132612D01*
X47425292Y95082102D01*
X47386127Y95027569D01*
X47345134Y94970590D01*
X47303449Y94912741D01*
X47262206Y94855600D01*
X47222542Y94800743D01*
X47185593Y94749747D01*
X47152493Y94704188D01*
X47124380Y94665643D01*
X47102389Y94635689D01*
X47087655Y94615903D01*
X47083128Y94610017D01*
X47083285Y94606154D01*
X47091949Y94603324D01*
X47110893Y94601392D01*
X47141891Y94600224D01*
X47186716Y94599684D01*
X47220508Y94599607D01*
X47366136Y94599607D01*
X47589784Y94920230D01*
X47642134Y94995181D01*
X47685906Y95057558D01*
X47721974Y95108498D01*
X47751215Y95149138D01*
X47774503Y95180616D01*
X47792716Y95204071D01*
X47806728Y95220638D01*
X47817414Y95231457D01*
X47825652Y95237664D01*
X47832316Y95240397D01*
X47836585Y95240853D01*
X47859738Y95240853D01*
X47859738Y94599607D01*
X48092918Y94599607D01*
X48092918Y95446599D01*
X47859738Y95446599D01*
X47761886Y95451448D01*
X47718135Y95454581D01*
X47675852Y95459286D01*
X47640488Y95464868D01*
X47621137Y95469407D01*
X47560225Y95495171D01*
X47512188Y95531382D01*
X47476765Y95578243D01*
X47472680Y95585896D01*
X47459881Y95613039D01*
X47452321Y95636454D01*
X47448688Y95662474D01*
X47447668Y95697435D01*
X47447663Y95706650D01*
X47448787Y95747193D01*
X47452639Y95777063D01*
X47460251Y95802156D01*
X47467056Y95817377D01*
X47493823Y95858921D01*
X47529957Y95891710D01*
X47576819Y95916358D01*
X47635772Y95933478D01*
X47708175Y95943685D01*
X47753558Y95946547D01*
X47859738Y95950932D01*
X47859738Y95446599D01*
X48092918Y95446599D01*
X48092918Y96173574D01*
X47936771Y96173293D01*
%TD*%
M02*
