M48
; DRILL file {KiCad (5.1.10-1-10_14)} date Thursday, December 23, 2021 at 12:47:12 AM
; FORMAT={3:3/ absolute / metric / suppress leading zeros}
; #@! TF.CreationDate,2021-12-23T00:47:12+01:00
; #@! TF.GenerationSoftware,Kicad,Pcbnew,(5.1.10-1-10_14)
FMAT,2
METRIC,TZ
T1C0.400
T2C0.500
T3C0.700
T4C0.800
T5C0.900
T6C1.000
T7C1.100
T8C1.500
T9C2.000
T10C3.200
%
G90
G05
T1
X2250Y49750
X2250Y48500
X2250Y47250
X5750Y19250
X7000Y33750
X8250Y19000
X9000Y28750
X10750Y30500
X14500Y32000
X17000Y34000
X17000Y26750
X18250Y25250
X18250Y23250
X18250Y15000
X18250Y10750
X19000Y39250
X19750Y18750
X20500Y32750
X20750Y10750
X21000Y15000
X22000Y39250
X22750Y23000
X22750Y16000
X23000Y8250
X24500Y33000
X25500Y26250
X25750Y10000
X28000Y8000
X28250Y23000
X30250Y6500
X30750Y34000
X32750Y6500
X34750Y12500
X35750Y35500
X36500Y18750
X36750Y39250
X38250Y17000
X38250Y7250
X39750Y39250
X40750Y34000
X41000Y16000
X42250Y24750
X43250Y10250
X44000Y29000
X44250Y32750
X44250Y22750
X44250Y10250
X45000Y41500
X46500Y8000
X46750Y30250
X46750Y16000
X47000Y20000
X47250Y39250
X48000Y25000
X48750Y10500
X50250Y50000
X50250Y48500
X50250Y47000
X50750Y23750
X51000Y32750
X51500Y43750
X51500Y14250
X54250Y34750
X55250Y43750
X55500Y13750
X55750Y16250
X58500Y43500
X58500Y32000
X59500Y28000
X59500Y24250
X62000Y33750
X62000Y30250
X62500Y41750
X64250Y24250
X64750Y22500
X66750Y32250
X70500Y39500
X70500Y27250
X70500Y25500
X70500Y23750
X70500Y14250
X70500Y9750
X72500Y39500
X72750Y22750
X72750Y20500
X72750Y18500
X72750Y16500
X72750Y14250
X72750Y12000
X72750Y9750
X75000Y16500
X75000Y14250
X75000Y12000
X75000Y9750
X75000Y7500
X75000Y5250
X75250Y22750
X77250Y16500
X77250Y14250
X77250Y12000
X77250Y9750
X77250Y7500
X77250Y5250
X77500Y22750
X81500Y68500
X81500Y66250
X81500Y64000
X81500Y61750
X81500Y59500
X81500Y57250
X83750Y68500
X83750Y66250
X83750Y64000
X83750Y61750
X83750Y59500
X83750Y57250
X86000Y68500
X86000Y66250
X86000Y64000
X86000Y61750
X86000Y59500
X86000Y57250
X96500Y83750
X96500Y77500
T2
X1850Y4250
X2100Y95500
X2553Y5947
X2553Y2553
X2803Y97197
X2803Y93803
X4250Y6650
X4250Y1850
X4500Y97900
X4500Y93100
X5947Y5947
X5947Y2553
X6197Y97197
X6197Y93803
X6650Y4250
X6900Y95500
X93100Y95500
X93350Y4250
X93803Y97197
X93803Y93803
X94053Y5947
X94053Y2553
X95500Y97900
X95500Y93100
X95750Y6650
X95750Y1850
X97197Y97197
X97197Y93803
X97447Y5947
X97447Y2553
X97900Y95500
X98150Y4250
T3
X78250Y35750
X78250Y33250
X85750Y35750
X85750Y33250
T4
X7170Y15500
X9710Y15500
X12250Y15500
T5
X51750Y6040
X51750Y3500
X58500Y6040
X58500Y3500
T6
X17500Y3500
X20040Y3500
X22580Y3500
X29000Y3500
X31540Y3500
X34080Y3500
X40500Y3500
X43040Y3500
X45580Y3500
T7
X6000Y87900
X6000Y82820
X6000Y77740
X6000Y72660
X6000Y67580
X6000Y62500
X66420Y6500
X71500Y6500
T8
X97000Y52950
X97000Y47500
X97000Y42050
X97000Y22950
X97000Y17500
X97000Y12050
T9
X37500Y85500
X37500Y75500
X75500Y85500
X75500Y75500
T10
X4250Y4250
X4500Y95500
X95500Y95500
X95750Y4250
T0
M30
