%TF.GenerationSoftware,KiCad,Pcbnew,(5.1.10-1-10_14)*%
%TF.CreationDate,2021-12-23T00:47:36+01:00*%
%TF.ProjectId,NordstroemSupply,4e6f7264-7374-4726-9f65-6d537570706c,rev?*%
%TF.SameCoordinates,Original*%
%TF.FileFunction,Copper,L1,Top*%
%TF.FilePolarity,Positive*%
%FSLAX46Y46*%
G04 Gerber Fmt 4.6, Leading zero omitted, Abs format (unit mm)*
G04 Created by KiCad (PCBNEW (5.1.10-1-10_14)) date 2021-12-23 00:47:36*
%MOMM*%
%LPD*%
G01*
G04 APERTURE LIST*
%TA.AperFunction,ComponentPad*%
%ADD10R,1.500000X1.500000*%
%TD*%
%TA.AperFunction,ComponentPad*%
%ADD11C,0.800000*%
%TD*%
%TA.AperFunction,ComponentPad*%
%ADD12C,6.400000*%
%TD*%
%TA.AperFunction,ComponentPad*%
%ADD13R,4.000000X4.000000*%
%TD*%
%TA.AperFunction,ComponentPad*%
%ADD14C,4.000000*%
%TD*%
%TA.AperFunction,SMDPad,CuDef*%
%ADD15R,1.270000X1.400000*%
%TD*%
%TA.AperFunction,SMDPad,CuDef*%
%ADD16R,4.720000X4.800000*%
%TD*%
%TA.AperFunction,SMDPad,CuDef*%
%ADD17R,1.200000X0.900000*%
%TD*%
%TA.AperFunction,SMDPad,CuDef*%
%ADD18R,0.900000X1.200000*%
%TD*%
%TA.AperFunction,ComponentPad*%
%ADD19R,1.800000X1.800000*%
%TD*%
%TA.AperFunction,ComponentPad*%
%ADD20C,1.800000*%
%TD*%
%TA.AperFunction,ComponentPad*%
%ADD21R,2.100000X2.100000*%
%TD*%
%TA.AperFunction,ComponentPad*%
%ADD22C,2.100000*%
%TD*%
%TA.AperFunction,ComponentPad*%
%ADD23R,4.500000X2.500000*%
%TD*%
%TA.AperFunction,ComponentPad*%
%ADD24O,4.500000X2.500000*%
%TD*%
%TA.AperFunction,SMDPad,CuDef*%
%ADD25R,0.800000X0.900000*%
%TD*%
%TA.AperFunction,SMDPad,CuDef*%
%ADD26R,1.550000X2.550000*%
%TD*%
%TA.AperFunction,ComponentPad*%
%ADD27C,1.440000*%
%TD*%
%TA.AperFunction,ComponentPad*%
%ADD28R,1.700000X1.700000*%
%TD*%
%TA.AperFunction,ComponentPad*%
%ADD29O,1.700000X1.700000*%
%TD*%
%TA.AperFunction,ViaPad*%
%ADD30C,0.800000*%
%TD*%
%TA.AperFunction,Conductor*%
%ADD31C,1.000000*%
%TD*%
%TA.AperFunction,Conductor*%
%ADD32C,4.000000*%
%TD*%
%TA.AperFunction,Conductor*%
%ADD33C,0.500000*%
%TD*%
%TA.AperFunction,Conductor*%
%ADD34C,0.250000*%
%TD*%
%TA.AperFunction,Conductor*%
%ADD35C,0.400000*%
%TD*%
%TA.AperFunction,Conductor*%
%ADD36C,2.000000*%
%TD*%
%TA.AperFunction,Conductor*%
%ADD37C,0.254000*%
%TD*%
%TA.AperFunction,Conductor*%
%ADD38C,0.100000*%
%TD*%
G04 APERTURE END LIST*
D10*
%TO.P,H8,1*%
%TO.N,+15V*%
X78250000Y35750000D03*
%TD*%
%TO.P,H7,1*%
%TO.N,Net-(H7-Pad1)*%
X85750000Y35750000D03*
%TD*%
%TO.P,H6,1*%
%TO.N,-15V*%
X78250000Y33250000D03*
%TD*%
%TO.P,C12,1*%
%TO.N,GND*%
%TA.AperFunction,SMDPad,CuDef*%
G36*
G01*
X3850000Y43949997D02*
X3850000Y53050003D01*
G75*
G02*
X4099997Y53300000I249997J0D01*
G01*
X11400003Y53300000D01*
G75*
G02*
X11650000Y53050003I0J-249997D01*
G01*
X11650000Y43949997D01*
G75*
G02*
X11400003Y43700000I-249997J0D01*
G01*
X4099997Y43700000D01*
G75*
G02*
X3850000Y43949997I0J249997D01*
G01*
G37*
%TD.AperFunction*%
%TO.P,C12,2*%
%TO.N,Net-(C12-Pad2)*%
%TA.AperFunction,SMDPad,CuDef*%
G36*
G01*
X16350000Y43949997D02*
X16350000Y53050003D01*
G75*
G02*
X16599997Y53300000I249997J0D01*
G01*
X23900003Y53300000D01*
G75*
G02*
X24150000Y53050003I0J-249997D01*
G01*
X24150000Y43949997D01*
G75*
G02*
X23900003Y43700000I-249997J0D01*
G01*
X16599997Y43700000D01*
G75*
G02*
X16350000Y43949997I0J249997D01*
G01*
G37*
%TD.AperFunction*%
%TD*%
D11*
%TO.P,H4,1*%
%TO.N,GND*%
X97447056Y5947056D03*
X95750000Y6650000D03*
X94052944Y5947056D03*
X93350000Y4250000D03*
X94052944Y2552944D03*
X95750000Y1850000D03*
X97447056Y2552944D03*
X98150000Y4250000D03*
D12*
X95750000Y4250000D03*
%TD*%
D11*
%TO.P,H3,1*%
%TO.N,GND*%
X5947056Y5947056D03*
X4250000Y6650000D03*
X2552944Y5947056D03*
X1850000Y4250000D03*
X2552944Y2552944D03*
X4250000Y1850000D03*
X5947056Y2552944D03*
X6650000Y4250000D03*
D12*
X4250000Y4250000D03*
%TD*%
D11*
%TO.P,H2,1*%
%TO.N,Center_tap*%
X97197056Y97197056D03*
X95500000Y97900000D03*
X93802944Y97197056D03*
X93100000Y95500000D03*
X93802944Y93802944D03*
X95500000Y93100000D03*
X97197056Y93802944D03*
X97900000Y95500000D03*
D12*
X95500000Y95500000D03*
%TD*%
D11*
%TO.P,H1,1*%
%TO.N,Center_tap*%
X6197056Y97197056D03*
X4500000Y97900000D03*
X2802944Y97197056D03*
X2100000Y95500000D03*
X2802944Y93802944D03*
X4500000Y93100000D03*
X6197056Y93802944D03*
X6900000Y95500000D03*
D12*
X4500000Y95500000D03*
%TD*%
%TO.P,C23,2*%
%TO.N,Center_tap*%
%TA.AperFunction,SMDPad,CuDef*%
G36*
G01*
X70500000Y20750000D02*
X70500000Y18750000D01*
G75*
G02*
X70250000Y18500000I-250000J0D01*
G01*
X66350000Y18500000D01*
G75*
G02*
X66100000Y18750000I0J250000D01*
G01*
X66100000Y20750000D01*
G75*
G02*
X66350000Y21000000I250000J0D01*
G01*
X70250000Y21000000D01*
G75*
G02*
X70500000Y20750000I0J-250000D01*
G01*
G37*
%TD.AperFunction*%
%TO.P,C23,1*%
%TO.N,GND*%
%TA.AperFunction,SMDPad,CuDef*%
G36*
G01*
X78900000Y20750000D02*
X78900000Y18750000D01*
G75*
G02*
X78650000Y18500000I-250000J0D01*
G01*
X74750000Y18500000D01*
G75*
G02*
X74500000Y18750000I0J250000D01*
G01*
X74500000Y20750000D01*
G75*
G02*
X74750000Y21000000I250000J0D01*
G01*
X78650000Y21000000D01*
G75*
G02*
X78900000Y20750000I0J-250000D01*
G01*
G37*
%TD.AperFunction*%
%TD*%
D13*
%TO.P,C1,1*%
%TO.N,Power_In*%
X37500000Y75500000D03*
D14*
%TO.P,C1,2*%
%TO.N,Center_tap*%
X37500000Y85500000D03*
%TD*%
%TO.P,C2,2*%
%TO.N,Center_tap*%
X75500000Y85500000D03*
D13*
%TO.P,C2,1*%
%TO.N,Power_In*%
X75500000Y75500000D03*
%TD*%
%TO.P,C3,1*%
%TO.N,Power_In*%
%TA.AperFunction,SMDPad,CuDef*%
G36*
G01*
X97600001Y78450000D02*
X95399999Y78450000D01*
G75*
G02*
X95150000Y78699999I0J249999D01*
G01*
X95150000Y79350001D01*
G75*
G02*
X95399999Y79600000I249999J0D01*
G01*
X97600001Y79600000D01*
G75*
G02*
X97850000Y79350001I0J-249999D01*
G01*
X97850000Y78699999D01*
G75*
G02*
X97600001Y78450000I-249999J0D01*
G01*
G37*
%TD.AperFunction*%
%TO.P,C3,2*%
%TO.N,Center_tap*%
%TA.AperFunction,SMDPad,CuDef*%
G36*
G01*
X97600001Y81400000D02*
X95399999Y81400000D01*
G75*
G02*
X95150000Y81649999I0J249999D01*
G01*
X95150000Y82300001D01*
G75*
G02*
X95399999Y82550000I249999J0D01*
G01*
X97600001Y82550000D01*
G75*
G02*
X97850000Y82300001I0J-249999D01*
G01*
X97850000Y81649999D01*
G75*
G02*
X97600001Y81400000I-249999J0D01*
G01*
G37*
%TD.AperFunction*%
%TD*%
%TO.P,C4,2*%
%TO.N,GND*%
%TA.AperFunction,SMDPad,CuDef*%
G36*
G01*
X39850000Y43949997D02*
X39850000Y53050003D01*
G75*
G02*
X40099997Y53300000I249997J0D01*
G01*
X47400003Y53300000D01*
G75*
G02*
X47650000Y53050003I0J-249997D01*
G01*
X47650000Y43949997D01*
G75*
G02*
X47400003Y43700000I-249997J0D01*
G01*
X40099997Y43700000D01*
G75*
G02*
X39850000Y43949997I0J249997D01*
G01*
G37*
%TD.AperFunction*%
%TO.P,C4,1*%
%TO.N,Net-(C4-Pad1)*%
%TA.AperFunction,SMDPad,CuDef*%
G36*
G01*
X27350000Y43949997D02*
X27350000Y53050003D01*
G75*
G02*
X27599997Y53300000I249997J0D01*
G01*
X34900003Y53300000D01*
G75*
G02*
X35150000Y53050003I0J-249997D01*
G01*
X35150000Y43949997D01*
G75*
G02*
X34900003Y43700000I-249997J0D01*
G01*
X27599997Y43700000D01*
G75*
G02*
X27350000Y43949997I0J249997D01*
G01*
G37*
%TD.AperFunction*%
%TD*%
%TO.P,C5,1*%
%TO.N,Net-(C4-Pad1)*%
%TA.AperFunction,SMDPad,CuDef*%
G36*
G01*
X43149999Y38025000D02*
X45350001Y38025000D01*
G75*
G02*
X45600000Y37775001I0J-249999D01*
G01*
X45600000Y37124999D01*
G75*
G02*
X45350001Y36875000I-249999J0D01*
G01*
X43149999Y36875000D01*
G75*
G02*
X42900000Y37124999I0J249999D01*
G01*
X42900000Y37775001D01*
G75*
G02*
X43149999Y38025000I249999J0D01*
G01*
G37*
%TD.AperFunction*%
%TO.P,C5,2*%
%TO.N,GND*%
%TA.AperFunction,SMDPad,CuDef*%
G36*
G01*
X43149999Y35075000D02*
X45350001Y35075000D01*
G75*
G02*
X45600000Y34825001I0J-249999D01*
G01*
X45600000Y34174999D01*
G75*
G02*
X45350001Y33925000I-249999J0D01*
G01*
X43149999Y33925000D01*
G75*
G02*
X42900000Y34174999I0J249999D01*
G01*
X42900000Y34825001D01*
G75*
G02*
X43149999Y35075000I249999J0D01*
G01*
G37*
%TD.AperFunction*%
%TD*%
%TO.P,C6,2*%
%TO.N,GND*%
%TA.AperFunction,SMDPad,CuDef*%
G36*
G01*
X40275000Y36000000D02*
X41225000Y36000000D01*
G75*
G02*
X41475000Y35750000I0J-250000D01*
G01*
X41475000Y35250000D01*
G75*
G02*
X41225000Y35000000I-250000J0D01*
G01*
X40275000Y35000000D01*
G75*
G02*
X40025000Y35250000I0J250000D01*
G01*
X40025000Y35750000D01*
G75*
G02*
X40275000Y36000000I250000J0D01*
G01*
G37*
%TD.AperFunction*%
%TO.P,C6,1*%
%TO.N,Net-(C4-Pad1)*%
%TA.AperFunction,SMDPad,CuDef*%
G36*
G01*
X40275000Y37900000D02*
X41225000Y37900000D01*
G75*
G02*
X41475000Y37650000I0J-250000D01*
G01*
X41475000Y37150000D01*
G75*
G02*
X41225000Y36900000I-250000J0D01*
G01*
X40275000Y36900000D01*
G75*
G02*
X40025000Y37150000I0J250000D01*
G01*
X40025000Y37650000D01*
G75*
G02*
X40275000Y37900000I250000J0D01*
G01*
G37*
%TD.AperFunction*%
%TD*%
%TO.P,C7,1*%
%TO.N,+15V*%
%TA.AperFunction,SMDPad,CuDef*%
G36*
G01*
X30275000Y38000000D02*
X31225000Y38000000D01*
G75*
G02*
X31475000Y37750000I0J-250000D01*
G01*
X31475000Y37250000D01*
G75*
G02*
X31225000Y37000000I-250000J0D01*
G01*
X30275000Y37000000D01*
G75*
G02*
X30025000Y37250000I0J250000D01*
G01*
X30025000Y37750000D01*
G75*
G02*
X30275000Y38000000I250000J0D01*
G01*
G37*
%TD.AperFunction*%
%TO.P,C7,2*%
%TO.N,GND*%
%TA.AperFunction,SMDPad,CuDef*%
G36*
G01*
X30275000Y36100000D02*
X31225000Y36100000D01*
G75*
G02*
X31475000Y35850000I0J-250000D01*
G01*
X31475000Y35350000D01*
G75*
G02*
X31225000Y35100000I-250000J0D01*
G01*
X30275000Y35100000D01*
G75*
G02*
X30025000Y35350000I0J250000D01*
G01*
X30025000Y35850000D01*
G75*
G02*
X30275000Y36100000I250000J0D01*
G01*
G37*
%TD.AperFunction*%
%TD*%
%TO.P,C8,1*%
%TO.N,+15V*%
%TA.AperFunction,SMDPad,CuDef*%
G36*
G01*
X26900000Y31475000D02*
X26900000Y30525000D01*
G75*
G02*
X26650000Y30275000I-250000J0D01*
G01*
X26150000Y30275000D01*
G75*
G02*
X25900000Y30525000I0J250000D01*
G01*
X25900000Y31475000D01*
G75*
G02*
X26150000Y31725000I250000J0D01*
G01*
X26650000Y31725000D01*
G75*
G02*
X26900000Y31475000I0J-250000D01*
G01*
G37*
%TD.AperFunction*%
%TO.P,C8,2*%
%TO.N,GND*%
%TA.AperFunction,SMDPad,CuDef*%
G36*
G01*
X25000000Y31475000D02*
X25000000Y30525000D01*
G75*
G02*
X24750000Y30275000I-250000J0D01*
G01*
X24250000Y30275000D01*
G75*
G02*
X24000000Y30525000I0J250000D01*
G01*
X24000000Y31475000D01*
G75*
G02*
X24250000Y31725000I250000J0D01*
G01*
X24750000Y31725000D01*
G75*
G02*
X25000000Y31475000I0J-250000D01*
G01*
G37*
%TD.AperFunction*%
%TD*%
%TO.P,C9,1*%
%TO.N,+15V*%
%TA.AperFunction,SMDPad,CuDef*%
G36*
G01*
X26900000Y16475000D02*
X26900000Y15525000D01*
G75*
G02*
X26650000Y15275000I-250000J0D01*
G01*
X26150000Y15275000D01*
G75*
G02*
X25900000Y15525000I0J250000D01*
G01*
X25900000Y16475000D01*
G75*
G02*
X26150000Y16725000I250000J0D01*
G01*
X26650000Y16725000D01*
G75*
G02*
X26900000Y16475000I0J-250000D01*
G01*
G37*
%TD.AperFunction*%
%TO.P,C9,2*%
%TO.N,GND*%
%TA.AperFunction,SMDPad,CuDef*%
G36*
G01*
X25000000Y16475000D02*
X25000000Y15525000D01*
G75*
G02*
X24750000Y15275000I-250000J0D01*
G01*
X24250000Y15275000D01*
G75*
G02*
X24000000Y15525000I0J250000D01*
G01*
X24000000Y16475000D01*
G75*
G02*
X24250000Y16725000I250000J0D01*
G01*
X24750000Y16725000D01*
G75*
G02*
X25000000Y16475000I0J-250000D01*
G01*
G37*
%TD.AperFunction*%
%TD*%
%TO.P,C10,1*%
%TO.N,+15V*%
%TA.AperFunction,SMDPad,CuDef*%
G36*
G01*
X60950000Y42225000D02*
X60950000Y41275000D01*
G75*
G02*
X60700000Y41025000I-250000J0D01*
G01*
X60200000Y41025000D01*
G75*
G02*
X59950000Y41275000I0J250000D01*
G01*
X59950000Y42225000D01*
G75*
G02*
X60200000Y42475000I250000J0D01*
G01*
X60700000Y42475000D01*
G75*
G02*
X60950000Y42225000I0J-250000D01*
G01*
G37*
%TD.AperFunction*%
%TO.P,C10,2*%
%TO.N,GND*%
%TA.AperFunction,SMDPad,CuDef*%
G36*
G01*
X59050000Y42225000D02*
X59050000Y41275000D01*
G75*
G02*
X58800000Y41025000I-250000J0D01*
G01*
X58300000Y41025000D01*
G75*
G02*
X58050000Y41275000I0J250000D01*
G01*
X58050000Y42225000D01*
G75*
G02*
X58300000Y42475000I250000J0D01*
G01*
X58800000Y42475000D01*
G75*
G02*
X59050000Y42225000I0J-250000D01*
G01*
G37*
%TD.AperFunction*%
%TD*%
%TO.P,C11,1*%
%TO.N,+15V*%
%TA.AperFunction,SMDPad,CuDef*%
G36*
G01*
X60900000Y30725000D02*
X60900000Y29775000D01*
G75*
G02*
X60650000Y29525000I-250000J0D01*
G01*
X60150000Y29525000D01*
G75*
G02*
X59900000Y29775000I0J250000D01*
G01*
X59900000Y30725000D01*
G75*
G02*
X60150000Y30975000I250000J0D01*
G01*
X60650000Y30975000D01*
G75*
G02*
X60900000Y30725000I0J-250000D01*
G01*
G37*
%TD.AperFunction*%
%TO.P,C11,2*%
%TO.N,GND*%
%TA.AperFunction,SMDPad,CuDef*%
G36*
G01*
X59000000Y30725000D02*
X59000000Y29775000D01*
G75*
G02*
X58750000Y29525000I-250000J0D01*
G01*
X58250000Y29525000D01*
G75*
G02*
X58000000Y29775000I0J250000D01*
G01*
X58000000Y30725000D01*
G75*
G02*
X58250000Y30975000I250000J0D01*
G01*
X58750000Y30975000D01*
G75*
G02*
X59000000Y30725000I0J-250000D01*
G01*
G37*
%TD.AperFunction*%
%TD*%
%TO.P,C13,2*%
%TO.N,Net-(C12-Pad2)*%
%TA.AperFunction,SMDPad,CuDef*%
G36*
G01*
X21600001Y36925000D02*
X19399999Y36925000D01*
G75*
G02*
X19150000Y37174999I0J249999D01*
G01*
X19150000Y37825001D01*
G75*
G02*
X19399999Y38075000I249999J0D01*
G01*
X21600001Y38075000D01*
G75*
G02*
X21850000Y37825001I0J-249999D01*
G01*
X21850000Y37174999D01*
G75*
G02*
X21600001Y36925000I-249999J0D01*
G01*
G37*
%TD.AperFunction*%
%TO.P,C13,1*%
%TO.N,GND*%
%TA.AperFunction,SMDPad,CuDef*%
G36*
G01*
X21600001Y33975000D02*
X19399999Y33975000D01*
G75*
G02*
X19150000Y34224999I0J249999D01*
G01*
X19150000Y34875001D01*
G75*
G02*
X19399999Y35125000I249999J0D01*
G01*
X21600001Y35125000D01*
G75*
G02*
X21850000Y34875001I0J-249999D01*
G01*
X21850000Y34224999D01*
G75*
G02*
X21600001Y33975000I-249999J0D01*
G01*
G37*
%TD.AperFunction*%
%TD*%
%TO.P,C14,1*%
%TO.N,GND*%
%TA.AperFunction,SMDPad,CuDef*%
G36*
G01*
X17475000Y35100000D02*
X16525000Y35100000D01*
G75*
G02*
X16275000Y35350000I0J250000D01*
G01*
X16275000Y35850000D01*
G75*
G02*
X16525000Y36100000I250000J0D01*
G01*
X17475000Y36100000D01*
G75*
G02*
X17725000Y35850000I0J-250000D01*
G01*
X17725000Y35350000D01*
G75*
G02*
X17475000Y35100000I-250000J0D01*
G01*
G37*
%TD.AperFunction*%
%TO.P,C14,2*%
%TO.N,Net-(C12-Pad2)*%
%TA.AperFunction,SMDPad,CuDef*%
G36*
G01*
X17475000Y37000000D02*
X16525000Y37000000D01*
G75*
G02*
X16275000Y37250000I0J250000D01*
G01*
X16275000Y37750000D01*
G75*
G02*
X16525000Y38000000I250000J0D01*
G01*
X17475000Y38000000D01*
G75*
G02*
X17725000Y37750000I0J-250000D01*
G01*
X17725000Y37250000D01*
G75*
G02*
X17475000Y37000000I-250000J0D01*
G01*
G37*
%TD.AperFunction*%
%TD*%
%TO.P,C15,2*%
%TO.N,-15V*%
%TA.AperFunction,SMDPad,CuDef*%
G36*
G01*
X7475000Y36900000D02*
X6525000Y36900000D01*
G75*
G02*
X6275000Y37150000I0J250000D01*
G01*
X6275000Y37650000D01*
G75*
G02*
X6525000Y37900000I250000J0D01*
G01*
X7475000Y37900000D01*
G75*
G02*
X7725000Y37650000I0J-250000D01*
G01*
X7725000Y37150000D01*
G75*
G02*
X7475000Y36900000I-250000J0D01*
G01*
G37*
%TD.AperFunction*%
%TO.P,C15,1*%
%TO.N,GND*%
%TA.AperFunction,SMDPad,CuDef*%
G36*
G01*
X7475000Y35000000D02*
X6525000Y35000000D01*
G75*
G02*
X6275000Y35250000I0J250000D01*
G01*
X6275000Y35750000D01*
G75*
G02*
X6525000Y36000000I250000J0D01*
G01*
X7475000Y36000000D01*
G75*
G02*
X7725000Y35750000I0J-250000D01*
G01*
X7725000Y35250000D01*
G75*
G02*
X7475000Y35000000I-250000J0D01*
G01*
G37*
%TD.AperFunction*%
%TD*%
%TO.P,C16,2*%
%TO.N,-15V*%
%TA.AperFunction,SMDPad,CuDef*%
G36*
G01*
X25000000Y23475000D02*
X25000000Y22525000D01*
G75*
G02*
X24750000Y22275000I-250000J0D01*
G01*
X24250000Y22275000D01*
G75*
G02*
X24000000Y22525000I0J250000D01*
G01*
X24000000Y23475000D01*
G75*
G02*
X24250000Y23725000I250000J0D01*
G01*
X24750000Y23725000D01*
G75*
G02*
X25000000Y23475000I0J-250000D01*
G01*
G37*
%TD.AperFunction*%
%TO.P,C16,1*%
%TO.N,GND*%
%TA.AperFunction,SMDPad,CuDef*%
G36*
G01*
X26900000Y23475000D02*
X26900000Y22525000D01*
G75*
G02*
X26650000Y22275000I-250000J0D01*
G01*
X26150000Y22275000D01*
G75*
G02*
X25900000Y22525000I0J250000D01*
G01*
X25900000Y23475000D01*
G75*
G02*
X26150000Y23725000I250000J0D01*
G01*
X26650000Y23725000D01*
G75*
G02*
X26900000Y23475000I0J-250000D01*
G01*
G37*
%TD.AperFunction*%
%TD*%
%TO.P,C17,2*%
%TO.N,-15V*%
%TA.AperFunction,SMDPad,CuDef*%
G36*
G01*
X25100000Y8475000D02*
X25100000Y7525000D01*
G75*
G02*
X24850000Y7275000I-250000J0D01*
G01*
X24350000Y7275000D01*
G75*
G02*
X24100000Y7525000I0J250000D01*
G01*
X24100000Y8475000D01*
G75*
G02*
X24350000Y8725000I250000J0D01*
G01*
X24850000Y8725000D01*
G75*
G02*
X25100000Y8475000I0J-250000D01*
G01*
G37*
%TD.AperFunction*%
%TO.P,C17,1*%
%TO.N,GND*%
%TA.AperFunction,SMDPad,CuDef*%
G36*
G01*
X27000000Y8475000D02*
X27000000Y7525000D01*
G75*
G02*
X26750000Y7275000I-250000J0D01*
G01*
X26250000Y7275000D01*
G75*
G02*
X26000000Y7525000I0J250000D01*
G01*
X26000000Y8475000D01*
G75*
G02*
X26250000Y8725000I250000J0D01*
G01*
X26750000Y8725000D01*
G75*
G02*
X27000000Y8475000I0J-250000D01*
G01*
G37*
%TD.AperFunction*%
%TD*%
%TO.P,C18,2*%
%TO.N,-15V*%
%TA.AperFunction,SMDPad,CuDef*%
G36*
G01*
X59000000Y34225000D02*
X59000000Y33275000D01*
G75*
G02*
X58750000Y33025000I-250000J0D01*
G01*
X58250000Y33025000D01*
G75*
G02*
X58000000Y33275000I0J250000D01*
G01*
X58000000Y34225000D01*
G75*
G02*
X58250000Y34475000I250000J0D01*
G01*
X58750000Y34475000D01*
G75*
G02*
X59000000Y34225000I0J-250000D01*
G01*
G37*
%TD.AperFunction*%
%TO.P,C18,1*%
%TO.N,GND*%
%TA.AperFunction,SMDPad,CuDef*%
G36*
G01*
X60900000Y34225000D02*
X60900000Y33275000D01*
G75*
G02*
X60650000Y33025000I-250000J0D01*
G01*
X60150000Y33025000D01*
G75*
G02*
X59900000Y33275000I0J250000D01*
G01*
X59900000Y34225000D01*
G75*
G02*
X60150000Y34475000I250000J0D01*
G01*
X60650000Y34475000D01*
G75*
G02*
X60900000Y34225000I0J-250000D01*
G01*
G37*
%TD.AperFunction*%
%TD*%
%TO.P,C19,2*%
%TO.N,-15V*%
%TA.AperFunction,SMDPad,CuDef*%
G36*
G01*
X59000000Y22725000D02*
X59000000Y21775000D01*
G75*
G02*
X58750000Y21525000I-250000J0D01*
G01*
X58250000Y21525000D01*
G75*
G02*
X58000000Y21775000I0J250000D01*
G01*
X58000000Y22725000D01*
G75*
G02*
X58250000Y22975000I250000J0D01*
G01*
X58750000Y22975000D01*
G75*
G02*
X59000000Y22725000I0J-250000D01*
G01*
G37*
%TD.AperFunction*%
%TO.P,C19,1*%
%TO.N,GND*%
%TA.AperFunction,SMDPad,CuDef*%
G36*
G01*
X60900000Y22725000D02*
X60900000Y21775000D01*
G75*
G02*
X60650000Y21525000I-250000J0D01*
G01*
X60150000Y21525000D01*
G75*
G02*
X59900000Y21775000I0J250000D01*
G01*
X59900000Y22725000D01*
G75*
G02*
X60150000Y22975000I250000J0D01*
G01*
X60650000Y22975000D01*
G75*
G02*
X60900000Y22725000I0J-250000D01*
G01*
G37*
%TD.AperFunction*%
%TD*%
%TO.P,C20,2*%
%TO.N,Net-(C20-Pad2)*%
%TA.AperFunction,SMDPad,CuDef*%
G36*
G01*
X68225000Y38150000D02*
X67275000Y38150000D01*
G75*
G02*
X67025000Y38400000I0J250000D01*
G01*
X67025000Y38900000D01*
G75*
G02*
X67275000Y39150000I250000J0D01*
G01*
X68225000Y39150000D01*
G75*
G02*
X68475000Y38900000I0J-250000D01*
G01*
X68475000Y38400000D01*
G75*
G02*
X68225000Y38150000I-250000J0D01*
G01*
G37*
%TD.AperFunction*%
%TO.P,C20,1*%
%TO.N,Net-(C20-Pad1)*%
%TA.AperFunction,SMDPad,CuDef*%
G36*
G01*
X68225000Y36250000D02*
X67275000Y36250000D01*
G75*
G02*
X67025000Y36500000I0J250000D01*
G01*
X67025000Y37000000D01*
G75*
G02*
X67275000Y37250000I250000J0D01*
G01*
X68225000Y37250000D01*
G75*
G02*
X68475000Y37000000I0J-250000D01*
G01*
X68475000Y36500000D01*
G75*
G02*
X68225000Y36250000I-250000J0D01*
G01*
G37*
%TD.AperFunction*%
%TD*%
%TO.P,C21,1*%
%TO.N,Net-(C21-Pad1)*%
%TA.AperFunction,SMDPad,CuDef*%
G36*
G01*
X88450000Y54975000D02*
X88450000Y54025000D01*
G75*
G02*
X88200000Y53775000I-250000J0D01*
G01*
X87700000Y53775000D01*
G75*
G02*
X87450000Y54025000I0J250000D01*
G01*
X87450000Y54975000D01*
G75*
G02*
X87700000Y55225000I250000J0D01*
G01*
X88200000Y55225000D01*
G75*
G02*
X88450000Y54975000I0J-250000D01*
G01*
G37*
%TD.AperFunction*%
%TO.P,C21,2*%
%TO.N,Feedback_control*%
%TA.AperFunction,SMDPad,CuDef*%
G36*
G01*
X86550000Y54975000D02*
X86550000Y54025000D01*
G75*
G02*
X86300000Y53775000I-250000J0D01*
G01*
X85800000Y53775000D01*
G75*
G02*
X85550000Y54025000I0J250000D01*
G01*
X85550000Y54975000D01*
G75*
G02*
X85800000Y55225000I250000J0D01*
G01*
X86300000Y55225000D01*
G75*
G02*
X86550000Y54975000I0J-250000D01*
G01*
G37*
%TD.AperFunction*%
%TD*%
%TO.P,C22,1*%
%TO.N,Net-(C22-Pad1)*%
%TA.AperFunction,SMDPad,CuDef*%
G36*
G01*
X54100000Y41275000D02*
X54100000Y42225000D01*
G75*
G02*
X54350000Y42475000I250000J0D01*
G01*
X54850000Y42475000D01*
G75*
G02*
X55100000Y42225000I0J-250000D01*
G01*
X55100000Y41275000D01*
G75*
G02*
X54850000Y41025000I-250000J0D01*
G01*
X54350000Y41025000D01*
G75*
G02*
X54100000Y41275000I0J250000D01*
G01*
G37*
%TD.AperFunction*%
%TO.P,C22,2*%
%TO.N,CC_flag*%
%TA.AperFunction,SMDPad,CuDef*%
G36*
G01*
X56000000Y41275000D02*
X56000000Y42225000D01*
G75*
G02*
X56250000Y42475000I250000J0D01*
G01*
X56750000Y42475000D01*
G75*
G02*
X57000000Y42225000I0J-250000D01*
G01*
X57000000Y41275000D01*
G75*
G02*
X56750000Y41025000I-250000J0D01*
G01*
X56250000Y41025000D01*
G75*
G02*
X56000000Y41275000I0J250000D01*
G01*
G37*
%TD.AperFunction*%
%TD*%
%TO.P,C24,1*%
%TO.N,GND*%
%TA.AperFunction,SMDPad,CuDef*%
G36*
G01*
X70250000Y13225000D02*
X70250000Y12275000D01*
G75*
G02*
X70000000Y12025000I-250000J0D01*
G01*
X69500000Y12025000D01*
G75*
G02*
X69250000Y12275000I0J250000D01*
G01*
X69250000Y13225000D01*
G75*
G02*
X69500000Y13475000I250000J0D01*
G01*
X70000000Y13475000D01*
G75*
G02*
X70250000Y13225000I0J-250000D01*
G01*
G37*
%TD.AperFunction*%
%TO.P,C24,2*%
%TO.N,Center_tap*%
%TA.AperFunction,SMDPad,CuDef*%
G36*
G01*
X68350000Y13225000D02*
X68350000Y12275000D01*
G75*
G02*
X68100000Y12025000I-250000J0D01*
G01*
X67600000Y12025000D01*
G75*
G02*
X67350000Y12275000I0J250000D01*
G01*
X67350000Y13225000D01*
G75*
G02*
X67600000Y13475000I250000J0D01*
G01*
X68100000Y13475000D01*
G75*
G02*
X68350000Y13225000I0J-250000D01*
G01*
G37*
%TD.AperFunction*%
%TD*%
%TO.P,C25,2*%
%TO.N,Feedback_control*%
%TA.AperFunction,SMDPad,CuDef*%
G36*
G01*
X86500000Y24975000D02*
X86500000Y24025000D01*
G75*
G02*
X86250000Y23775000I-250000J0D01*
G01*
X85750000Y23775000D01*
G75*
G02*
X85500000Y24025000I0J250000D01*
G01*
X85500000Y24975000D01*
G75*
G02*
X85750000Y25225000I250000J0D01*
G01*
X86250000Y25225000D01*
G75*
G02*
X86500000Y24975000I0J-250000D01*
G01*
G37*
%TD.AperFunction*%
%TO.P,C25,1*%
%TO.N,Net-(C25-Pad1)*%
%TA.AperFunction,SMDPad,CuDef*%
G36*
G01*
X88400000Y24975000D02*
X88400000Y24025000D01*
G75*
G02*
X88150000Y23775000I-250000J0D01*
G01*
X87650000Y23775000D01*
G75*
G02*
X87400000Y24025000I0J250000D01*
G01*
X87400000Y24975000D01*
G75*
G02*
X87650000Y25225000I250000J0D01*
G01*
X88150000Y25225000D01*
G75*
G02*
X88400000Y24975000I0J-250000D01*
G01*
G37*
%TD.AperFunction*%
%TD*%
%TO.P,C26,1*%
%TO.N,Net-(C26-Pad1)*%
%TA.AperFunction,SMDPad,CuDef*%
G36*
G01*
X49050000Y28775000D02*
X49050000Y29725000D01*
G75*
G02*
X49300000Y29975000I250000J0D01*
G01*
X49800000Y29975000D01*
G75*
G02*
X50050000Y29725000I0J-250000D01*
G01*
X50050000Y28775000D01*
G75*
G02*
X49800000Y28525000I-250000J0D01*
G01*
X49300000Y28525000D01*
G75*
G02*
X49050000Y28775000I0J250000D01*
G01*
G37*
%TD.AperFunction*%
%TO.P,C26,2*%
%TO.N,CV_flag*%
%TA.AperFunction,SMDPad,CuDef*%
G36*
G01*
X50950000Y28775000D02*
X50950000Y29725000D01*
G75*
G02*
X51200000Y29975000I250000J0D01*
G01*
X51700000Y29975000D01*
G75*
G02*
X51950000Y29725000I0J-250000D01*
G01*
X51950000Y28775000D01*
G75*
G02*
X51700000Y28525000I-250000J0D01*
G01*
X51200000Y28525000D01*
G75*
G02*
X50950000Y28775000I0J250000D01*
G01*
G37*
%TD.AperFunction*%
%TD*%
%TO.P,C27,2*%
%TO.N,CV_flag*%
%TA.AperFunction,SMDPad,CuDef*%
G36*
G01*
X54475000Y27750000D02*
X53525000Y27750000D01*
G75*
G02*
X53275000Y28000000I0J250000D01*
G01*
X53275000Y28500000D01*
G75*
G02*
X53525000Y28750000I250000J0D01*
G01*
X54475000Y28750000D01*
G75*
G02*
X54725000Y28500000I0J-250000D01*
G01*
X54725000Y28000000D01*
G75*
G02*
X54475000Y27750000I-250000J0D01*
G01*
G37*
%TD.AperFunction*%
%TO.P,C27,1*%
%TO.N,Net-(C27-Pad1)*%
%TA.AperFunction,SMDPad,CuDef*%
G36*
G01*
X54475000Y25850000D02*
X53525000Y25850000D01*
G75*
G02*
X53275000Y26100000I0J250000D01*
G01*
X53275000Y26600000D01*
G75*
G02*
X53525000Y26850000I250000J0D01*
G01*
X54475000Y26850000D01*
G75*
G02*
X54725000Y26600000I0J-250000D01*
G01*
X54725000Y26100000D01*
G75*
G02*
X54475000Y25850000I-250000J0D01*
G01*
G37*
%TD.AperFunction*%
%TD*%
%TO.P,C28,2*%
%TO.N,Net-(C28-Pad2)*%
%TA.AperFunction,SMDPad,CuDef*%
G36*
G01*
X62525000Y21000000D02*
X63475000Y21000000D01*
G75*
G02*
X63725000Y20750000I0J-250000D01*
G01*
X63725000Y20250000D01*
G75*
G02*
X63475000Y20000000I-250000J0D01*
G01*
X62525000Y20000000D01*
G75*
G02*
X62275000Y20250000I0J250000D01*
G01*
X62275000Y20750000D01*
G75*
G02*
X62525000Y21000000I250000J0D01*
G01*
G37*
%TD.AperFunction*%
%TO.P,C28,1*%
%TO.N,GND*%
%TA.AperFunction,SMDPad,CuDef*%
G36*
G01*
X62525000Y22900000D02*
X63475000Y22900000D01*
G75*
G02*
X63725000Y22650000I0J-250000D01*
G01*
X63725000Y22150000D01*
G75*
G02*
X63475000Y21900000I-250000J0D01*
G01*
X62525000Y21900000D01*
G75*
G02*
X62275000Y22150000I0J250000D01*
G01*
X62275000Y22650000D01*
G75*
G02*
X62525000Y22900000I250000J0D01*
G01*
G37*
%TD.AperFunction*%
%TD*%
%TO.P,C29,1*%
%TO.N,CV_flag*%
%TA.AperFunction,SMDPad,CuDef*%
G36*
G01*
X53225000Y31250000D02*
X52275000Y31250000D01*
G75*
G02*
X52025000Y31500000I0J250000D01*
G01*
X52025000Y32000000D01*
G75*
G02*
X52275000Y32250000I250000J0D01*
G01*
X53225000Y32250000D01*
G75*
G02*
X53475000Y32000000I0J-250000D01*
G01*
X53475000Y31500000D01*
G75*
G02*
X53225000Y31250000I-250000J0D01*
G01*
G37*
%TD.AperFunction*%
%TO.P,C29,2*%
%TO.N,Feedback_control*%
%TA.AperFunction,SMDPad,CuDef*%
G36*
G01*
X53225000Y33150000D02*
X52275000Y33150000D01*
G75*
G02*
X52025000Y33400000I0J250000D01*
G01*
X52025000Y33900000D01*
G75*
G02*
X52275000Y34150000I250000J0D01*
G01*
X53225000Y34150000D01*
G75*
G02*
X53475000Y33900000I0J-250000D01*
G01*
X53475000Y33400000D01*
G75*
G02*
X53225000Y33150000I-250000J0D01*
G01*
G37*
%TD.AperFunction*%
%TD*%
%TO.P,C30,2*%
%TO.N,Center_tap*%
%TA.AperFunction,SMDPad,CuDef*%
G36*
G01*
X64150000Y17525000D02*
X64150000Y18475000D01*
G75*
G02*
X64400000Y18725000I250000J0D01*
G01*
X64900000Y18725000D01*
G75*
G02*
X65150000Y18475000I0J-250000D01*
G01*
X65150000Y17525000D01*
G75*
G02*
X64900000Y17275000I-250000J0D01*
G01*
X64400000Y17275000D01*
G75*
G02*
X64150000Y17525000I0J250000D01*
G01*
G37*
%TD.AperFunction*%
%TO.P,C30,1*%
%TO.N,Net-(C28-Pad2)*%
%TA.AperFunction,SMDPad,CuDef*%
G36*
G01*
X62250000Y17525000D02*
X62250000Y18475000D01*
G75*
G02*
X62500000Y18725000I250000J0D01*
G01*
X63000000Y18725000D01*
G75*
G02*
X63250000Y18475000I0J-250000D01*
G01*
X63250000Y17525000D01*
G75*
G02*
X63000000Y17275000I-250000J0D01*
G01*
X62500000Y17275000D01*
G75*
G02*
X62250000Y17525000I0J250000D01*
G01*
G37*
%TD.AperFunction*%
%TD*%
%TO.P,C31,2*%
%TO.N,GND*%
%TA.AperFunction,SMDPad,CuDef*%
G36*
G01*
X43250000Y16475000D02*
X43250000Y15525000D01*
G75*
G02*
X43000000Y15275000I-250000J0D01*
G01*
X42500000Y15275000D01*
G75*
G02*
X42250000Y15525000I0J250000D01*
G01*
X42250000Y16475000D01*
G75*
G02*
X42500000Y16725000I250000J0D01*
G01*
X43000000Y16725000D01*
G75*
G02*
X43250000Y16475000I0J-250000D01*
G01*
G37*
%TD.AperFunction*%
%TO.P,C31,1*%
%TO.N,+15V*%
%TA.AperFunction,SMDPad,CuDef*%
G36*
G01*
X45150000Y16475000D02*
X45150000Y15525000D01*
G75*
G02*
X44900000Y15275000I-250000J0D01*
G01*
X44400000Y15275000D01*
G75*
G02*
X44150000Y15525000I0J250000D01*
G01*
X44150000Y16475000D01*
G75*
G02*
X44400000Y16725000I250000J0D01*
G01*
X44900000Y16725000D01*
G75*
G02*
X45150000Y16475000I0J-250000D01*
G01*
G37*
%TD.AperFunction*%
%TD*%
%TO.P,C32,2*%
%TO.N,-15V*%
%TA.AperFunction,SMDPad,CuDef*%
G36*
G01*
X43350000Y8475000D02*
X43350000Y7525000D01*
G75*
G02*
X43100000Y7275000I-250000J0D01*
G01*
X42600000Y7275000D01*
G75*
G02*
X42350000Y7525000I0J250000D01*
G01*
X42350000Y8475000D01*
G75*
G02*
X42600000Y8725000I250000J0D01*
G01*
X43100000Y8725000D01*
G75*
G02*
X43350000Y8475000I0J-250000D01*
G01*
G37*
%TD.AperFunction*%
%TO.P,C32,1*%
%TO.N,GND*%
%TA.AperFunction,SMDPad,CuDef*%
G36*
G01*
X45250000Y8475000D02*
X45250000Y7525000D01*
G75*
G02*
X45000000Y7275000I-250000J0D01*
G01*
X44500000Y7275000D01*
G75*
G02*
X44250000Y7525000I0J250000D01*
G01*
X44250000Y8475000D01*
G75*
G02*
X44500000Y8725000I250000J0D01*
G01*
X45000000Y8725000D01*
G75*
G02*
X45250000Y8475000I0J-250000D01*
G01*
G37*
%TD.AperFunction*%
%TD*%
%TO.P,C33,1*%
%TO.N,+15V*%
%TA.AperFunction,SMDPad,CuDef*%
G36*
G01*
X5275000Y23450000D02*
X6225000Y23450000D01*
G75*
G02*
X6475000Y23200000I0J-250000D01*
G01*
X6475000Y22700000D01*
G75*
G02*
X6225000Y22450000I-250000J0D01*
G01*
X5275000Y22450000D01*
G75*
G02*
X5025000Y22700000I0J250000D01*
G01*
X5025000Y23200000D01*
G75*
G02*
X5275000Y23450000I250000J0D01*
G01*
G37*
%TD.AperFunction*%
%TO.P,C33,2*%
%TO.N,GND*%
%TA.AperFunction,SMDPad,CuDef*%
G36*
G01*
X5275000Y21550000D02*
X6225000Y21550000D01*
G75*
G02*
X6475000Y21300000I0J-250000D01*
G01*
X6475000Y20800000D01*
G75*
G02*
X6225000Y20550000I-250000J0D01*
G01*
X5275000Y20550000D01*
G75*
G02*
X5025000Y20800000I0J250000D01*
G01*
X5025000Y21300000D01*
G75*
G02*
X5275000Y21550000I250000J0D01*
G01*
G37*
%TD.AperFunction*%
%TD*%
D15*
%TO.P,D1,1*%
%TO.N,Net-(D1-Pad1)*%
X13235000Y92460000D03*
D16*
%TO.P,D1,3*%
%TO.N,Power_In*%
X17040000Y93500000D03*
D15*
%TO.P,D1,2*%
%TO.N,Net-(D1-Pad2)*%
X13235000Y94540000D03*
%TD*%
D17*
%TO.P,D2,2*%
%TO.N,Net-(D2-Pad2)*%
X22000000Y63550000D03*
%TO.P,D2,1*%
%TO.N,Net-(C4-Pad1)*%
X22000000Y60250000D03*
%TD*%
%TO.P,D3,1*%
%TO.N,Net-(C12-Pad2)*%
X19250000Y60250000D03*
%TO.P,D3,2*%
%TO.N,Net-(D3-Pad2)*%
X19250000Y63550000D03*
%TD*%
D18*
%TO.P,D4,1*%
%TO.N,CC_flag*%
X57850000Y45250000D03*
%TO.P,D4,2*%
%TO.N,Feedback_control*%
X61150000Y45250000D03*
%TD*%
D17*
%TO.P,D5,1*%
%TO.N,Net-(C20-Pad2)*%
X54000000Y36100000D03*
%TO.P,D5,2*%
%TO.N,Net-(C22-Pad1)*%
X54000000Y39400000D03*
%TD*%
%TO.P,D6,2*%
%TO.N,Net-(C20-Pad2)*%
X51000000Y36100000D03*
%TO.P,D6,1*%
%TO.N,Net-(C22-Pad1)*%
X51000000Y39400000D03*
%TD*%
D19*
%TO.P,D7,1*%
%TO.N,GND*%
X51750000Y3500000D03*
D20*
%TO.P,D7,2*%
%TO.N,Net-(D7-Pad2)*%
X51750000Y6040000D03*
%TD*%
%TO.P,D8,2*%
%TO.N,Net-(D8-Pad2)*%
X58500000Y6040000D03*
D19*
%TO.P,D8,1*%
%TO.N,GND*%
X58500000Y3500000D03*
%TD*%
D17*
%TO.P,D9,2*%
%TO.N,Feedback_control*%
X55750000Y33650000D03*
%TO.P,D9,1*%
%TO.N,CV_flag*%
X55750000Y30350000D03*
%TD*%
%TO.P,D10,2*%
%TO.N,GND*%
X55750000Y17950000D03*
%TO.P,D10,1*%
%TO.N,Net-(D10-Pad1)*%
X55750000Y21250000D03*
%TD*%
D18*
%TO.P,D11,1*%
%TO.N,GND*%
X57100000Y13750000D03*
%TO.P,D11,2*%
%TO.N,Net-(C28-Pad2)*%
X60400000Y13750000D03*
%TD*%
D21*
%TO.P,J1,1*%
%TO.N,Net-(D3-Pad2)*%
X6000000Y62500000D03*
D22*
%TO.P,J1,2*%
%TO.N,GND*%
X6000000Y67580000D03*
%TO.P,J1,3*%
%TO.N,Net-(D2-Pad2)*%
X6000000Y72660000D03*
%TO.P,J1,4*%
%TO.N,Net-(D1-Pad1)*%
X6000000Y77740000D03*
%TO.P,J1,5*%
%TO.N,Center_tap*%
X6000000Y82820000D03*
%TO.P,J1,6*%
%TO.N,Net-(D1-Pad2)*%
X6000000Y87900000D03*
%TD*%
D21*
%TO.P,J2,1*%
%TO.N,GND*%
X71500000Y6500000D03*
D22*
%TO.P,J2,2*%
%TO.N,Center_tap*%
X66420000Y6500000D03*
%TD*%
D23*
%TO.P,Q1,1*%
%TO.N,Net-(Q1-Pad1)*%
X97000000Y52950000D03*
D24*
%TO.P,Q1,2*%
%TO.N,Power_In*%
X97000000Y47500000D03*
%TO.P,Q1,3*%
%TO.N,Net-(Q1-Pad3)*%
X97000000Y42050000D03*
%TD*%
D25*
%TO.P,Q2,3*%
%TO.N,Net-(C21-Pad1)*%
X87000000Y48500000D03*
%TO.P,Q2,2*%
%TO.N,Net-(Q2-Pad2)*%
X87950000Y46500000D03*
%TO.P,Q2,1*%
%TO.N,Series_pass_out*%
X86050000Y46500000D03*
%TD*%
D24*
%TO.P,Q3,3*%
%TO.N,Net-(Q3-Pad3)*%
X97000000Y12050000D03*
%TO.P,Q3,2*%
%TO.N,Power_In*%
X97000000Y17500000D03*
D23*
%TO.P,Q3,1*%
%TO.N,Net-(Q3-Pad1)*%
X97000000Y22950000D03*
%TD*%
D25*
%TO.P,Q4,1*%
%TO.N,Series_pass_out*%
X86050000Y16000000D03*
%TO.P,Q4,2*%
%TO.N,Net-(Q2-Pad2)*%
X87950000Y16000000D03*
%TO.P,Q4,3*%
%TO.N,Net-(C25-Pad1)*%
X87000000Y18000000D03*
%TD*%
%TO.P,R3,1*%
%TO.N,Net-(R3-Pad1)*%
%TA.AperFunction,SMDPad,CuDef*%
G36*
G01*
X15799999Y21012500D02*
X16700001Y21012500D01*
G75*
G02*
X16950000Y20762501I0J-249999D01*
G01*
X16950000Y20237499D01*
G75*
G02*
X16700001Y19987500I-249999J0D01*
G01*
X15799999Y19987500D01*
G75*
G02*
X15550000Y20237499I0J249999D01*
G01*
X15550000Y20762501D01*
G75*
G02*
X15799999Y21012500I249999J0D01*
G01*
G37*
%TD.AperFunction*%
%TO.P,R3,2*%
%TO.N,Net-(R3-Pad2)*%
%TA.AperFunction,SMDPad,CuDef*%
G36*
G01*
X15799999Y19187500D02*
X16700001Y19187500D01*
G75*
G02*
X16950000Y18937501I0J-249999D01*
G01*
X16950000Y18412499D01*
G75*
G02*
X16700001Y18162500I-249999J0D01*
G01*
X15799999Y18162500D01*
G75*
G02*
X15550000Y18412499I0J249999D01*
G01*
X15550000Y18937501D01*
G75*
G02*
X15799999Y19187500I249999J0D01*
G01*
G37*
%TD.AperFunction*%
%TD*%
%TO.P,R6,1*%
%TO.N,Net-(Q1-Pad3)*%
%TA.AperFunction,SMDPad,CuDef*%
G36*
G01*
X92575000Y43425000D02*
X92575000Y40575000D01*
G75*
G02*
X92325000Y40325000I-250000J0D01*
G01*
X91600000Y40325000D01*
G75*
G02*
X91350000Y40575000I0J250000D01*
G01*
X91350000Y43425000D01*
G75*
G02*
X91600000Y43675000I250000J0D01*
G01*
X92325000Y43675000D01*
G75*
G02*
X92575000Y43425000I0J-250000D01*
G01*
G37*
%TD.AperFunction*%
%TO.P,R6,2*%
%TO.N,Series_pass_out*%
%TA.AperFunction,SMDPad,CuDef*%
G36*
G01*
X86650000Y43425000D02*
X86650000Y40575000D01*
G75*
G02*
X86400000Y40325000I-250000J0D01*
G01*
X85675000Y40325000D01*
G75*
G02*
X85425000Y40575000I0J250000D01*
G01*
X85425000Y43425000D01*
G75*
G02*
X85675000Y43675000I250000J0D01*
G01*
X86400000Y43675000D01*
G75*
G02*
X86650000Y43425000I0J-250000D01*
G01*
G37*
%TD.AperFunction*%
%TD*%
D26*
%TO.P,R11,4*%
%TO.N,Series_pass_out*%
X71500000Y33500000D03*
%TO.P,R11,3*%
%TO.N,I_sense-*%
X69450000Y33500000D03*
%TO.P,R11,2*%
%TO.N,GND*%
X69450000Y29550000D03*
%TO.P,R11,1*%
X71500000Y29550000D03*
%TD*%
%TO.P,R12,1*%
%TO.N,Net-(C22-Pad1)*%
%TA.AperFunction,SMDPad,CuDef*%
G36*
G01*
X33400000Y15975000D02*
X33400000Y15025000D01*
G75*
G02*
X33150000Y14775000I-250000J0D01*
G01*
X32650000Y14775000D01*
G75*
G02*
X32400000Y15025000I0J250000D01*
G01*
X32400000Y15975000D01*
G75*
G02*
X32650000Y16225000I250000J0D01*
G01*
X33150000Y16225000D01*
G75*
G02*
X33400000Y15975000I0J-250000D01*
G01*
G37*
%TD.AperFunction*%
%TO.P,R12,2*%
%TO.N,Iset*%
%TA.AperFunction,SMDPad,CuDef*%
G36*
G01*
X31500000Y15975000D02*
X31500000Y15025000D01*
G75*
G02*
X31250000Y14775000I-250000J0D01*
G01*
X30750000Y14775000D01*
G75*
G02*
X30500000Y15025000I0J250000D01*
G01*
X30500000Y15975000D01*
G75*
G02*
X30750000Y16225000I250000J0D01*
G01*
X31250000Y16225000D01*
G75*
G02*
X31500000Y15975000I0J-250000D01*
G01*
G37*
%TD.AperFunction*%
%TD*%
%TO.P,R13,2*%
%TO.N,Series_pass_out*%
%TA.AperFunction,SMDPad,CuDef*%
G36*
G01*
X86650000Y13425000D02*
X86650000Y10575000D01*
G75*
G02*
X86400000Y10325000I-250000J0D01*
G01*
X85675000Y10325000D01*
G75*
G02*
X85425000Y10575000I0J250000D01*
G01*
X85425000Y13425000D01*
G75*
G02*
X85675000Y13675000I250000J0D01*
G01*
X86400000Y13675000D01*
G75*
G02*
X86650000Y13425000I0J-250000D01*
G01*
G37*
%TD.AperFunction*%
%TO.P,R13,1*%
%TO.N,Net-(Q3-Pad3)*%
%TA.AperFunction,SMDPad,CuDef*%
G36*
G01*
X92575000Y13425000D02*
X92575000Y10575000D01*
G75*
G02*
X92325000Y10325000I-250000J0D01*
G01*
X91600000Y10325000D01*
G75*
G02*
X91350000Y10575000I0J250000D01*
G01*
X91350000Y13425000D01*
G75*
G02*
X91600000Y13675000I250000J0D01*
G01*
X92325000Y13675000D01*
G75*
G02*
X92575000Y13425000I0J-250000D01*
G01*
G37*
%TD.AperFunction*%
%TD*%
%TO.P,R14,1*%
%TO.N,Series_pass_out*%
%TA.AperFunction,SMDPad,CuDef*%
G36*
G01*
X80724999Y47487500D02*
X76775001Y47487500D01*
G75*
G02*
X76525000Y47737501I0J250001D01*
G01*
X76525000Y50262499D01*
G75*
G02*
X76775001Y50512500I250001J0D01*
G01*
X80724999Y50512500D01*
G75*
G02*
X80975000Y50262499I0J-250001D01*
G01*
X80975000Y47737501D01*
G75*
G02*
X80724999Y47487500I-250001J0D01*
G01*
G37*
%TD.AperFunction*%
%TO.P,R14,2*%
%TO.N,Center_tap*%
%TA.AperFunction,SMDPad,CuDef*%
G36*
G01*
X80724999Y52512500D02*
X76775001Y52512500D01*
G75*
G02*
X76525000Y52762501I0J250001D01*
G01*
X76525000Y55287499D01*
G75*
G02*
X76775001Y55537500I250001J0D01*
G01*
X80724999Y55537500D01*
G75*
G02*
X80975000Y55287499I0J-250001D01*
G01*
X80975000Y52762501D01*
G75*
G02*
X80724999Y52512500I-250001J0D01*
G01*
G37*
%TD.AperFunction*%
%TD*%
D27*
%TO.P,RV1,1*%
%TO.N,GND*%
X12250000Y15500000D03*
%TO.P,RV1,2*%
%TO.N,Net-(R3-Pad2)*%
X9710000Y15500000D03*
%TO.P,RV1,3*%
%TO.N,5.000V*%
X7170000Y15500000D03*
%TD*%
D28*
%TO.P,RV2,1*%
%TO.N,Vset*%
X17500000Y3500000D03*
D29*
%TO.P,RV2,2*%
%TO.N,Net-(R4-Pad2)*%
X20040000Y3500000D03*
%TO.P,RV2,3*%
X22580000Y3500000D03*
%TD*%
%TO.P,RV3,3*%
%TO.N,Net-(R5-Pad2)*%
X34080000Y3500000D03*
%TO.P,RV3,2*%
X31540000Y3500000D03*
D28*
%TO.P,RV3,1*%
%TO.N,Iset*%
X29000000Y3500000D03*
%TD*%
%TO.P,SW1,1*%
%TO.N,Vset*%
X40500000Y3500000D03*
D29*
%TO.P,SW1,2*%
%TO.N,Net-(R25-Pad2)*%
X43040000Y3500000D03*
%TO.P,SW1,3*%
%TO.N,GND*%
X45580000Y3500000D03*
%TD*%
%TO.P,U1,1*%
%TO.N,Net-(U1-Pad1)*%
%TA.AperFunction,SMDPad,CuDef*%
G36*
G01*
X7300000Y24255000D02*
X7300000Y24555000D01*
G75*
G02*
X7450000Y24705000I150000J0D01*
G01*
X8900000Y24705000D01*
G75*
G02*
X9050000Y24555000I0J-150000D01*
G01*
X9050000Y24255000D01*
G75*
G02*
X8900000Y24105000I-150000J0D01*
G01*
X7450000Y24105000D01*
G75*
G02*
X7300000Y24255000I0J150000D01*
G01*
G37*
%TD.AperFunction*%
%TO.P,U1,2*%
%TO.N,+15V*%
%TA.AperFunction,SMDPad,CuDef*%
G36*
G01*
X7300000Y22985000D02*
X7300000Y23285000D01*
G75*
G02*
X7450000Y23435000I150000J0D01*
G01*
X8900000Y23435000D01*
G75*
G02*
X9050000Y23285000I0J-150000D01*
G01*
X9050000Y22985000D01*
G75*
G02*
X8900000Y22835000I-150000J0D01*
G01*
X7450000Y22835000D01*
G75*
G02*
X7300000Y22985000I0J150000D01*
G01*
G37*
%TD.AperFunction*%
%TO.P,U1,3*%
%TO.N,Net-(U1-Pad3)*%
%TA.AperFunction,SMDPad,CuDef*%
G36*
G01*
X7300000Y21715000D02*
X7300000Y22015000D01*
G75*
G02*
X7450000Y22165000I150000J0D01*
G01*
X8900000Y22165000D01*
G75*
G02*
X9050000Y22015000I0J-150000D01*
G01*
X9050000Y21715000D01*
G75*
G02*
X8900000Y21565000I-150000J0D01*
G01*
X7450000Y21565000D01*
G75*
G02*
X7300000Y21715000I0J150000D01*
G01*
G37*
%TD.AperFunction*%
%TO.P,U1,4*%
%TO.N,GND*%
%TA.AperFunction,SMDPad,CuDef*%
G36*
G01*
X7300000Y20445000D02*
X7300000Y20745000D01*
G75*
G02*
X7450000Y20895000I150000J0D01*
G01*
X8900000Y20895000D01*
G75*
G02*
X9050000Y20745000I0J-150000D01*
G01*
X9050000Y20445000D01*
G75*
G02*
X8900000Y20295000I-150000J0D01*
G01*
X7450000Y20295000D01*
G75*
G02*
X7300000Y20445000I0J150000D01*
G01*
G37*
%TD.AperFunction*%
%TO.P,U1,5*%
%TO.N,Net-(R3-Pad1)*%
%TA.AperFunction,SMDPad,CuDef*%
G36*
G01*
X12450000Y20445000D02*
X12450000Y20745000D01*
G75*
G02*
X12600000Y20895000I150000J0D01*
G01*
X14050000Y20895000D01*
G75*
G02*
X14200000Y20745000I0J-150000D01*
G01*
X14200000Y20445000D01*
G75*
G02*
X14050000Y20295000I-150000J0D01*
G01*
X12600000Y20295000D01*
G75*
G02*
X12450000Y20445000I0J150000D01*
G01*
G37*
%TD.AperFunction*%
%TO.P,U1,6*%
%TO.N,5.000V*%
%TA.AperFunction,SMDPad,CuDef*%
G36*
G01*
X12450000Y21715000D02*
X12450000Y22015000D01*
G75*
G02*
X12600000Y22165000I150000J0D01*
G01*
X14050000Y22165000D01*
G75*
G02*
X14200000Y22015000I0J-150000D01*
G01*
X14200000Y21715000D01*
G75*
G02*
X14050000Y21565000I-150000J0D01*
G01*
X12600000Y21565000D01*
G75*
G02*
X12450000Y21715000I0J150000D01*
G01*
G37*
%TD.AperFunction*%
%TO.P,U1,7*%
%TO.N,Net-(U1-Pad7)*%
%TA.AperFunction,SMDPad,CuDef*%
G36*
G01*
X12450000Y22985000D02*
X12450000Y23285000D01*
G75*
G02*
X12600000Y23435000I150000J0D01*
G01*
X14050000Y23435000D01*
G75*
G02*
X14200000Y23285000I0J-150000D01*
G01*
X14200000Y22985000D01*
G75*
G02*
X14050000Y22835000I-150000J0D01*
G01*
X12600000Y22835000D01*
G75*
G02*
X12450000Y22985000I0J150000D01*
G01*
G37*
%TD.AperFunction*%
%TO.P,U1,8*%
%TO.N,Net-(U1-Pad8)*%
%TA.AperFunction,SMDPad,CuDef*%
G36*
G01*
X12450000Y24255000D02*
X12450000Y24555000D01*
G75*
G02*
X12600000Y24705000I150000J0D01*
G01*
X14050000Y24705000D01*
G75*
G02*
X14200000Y24555000I0J-150000D01*
G01*
X14200000Y24255000D01*
G75*
G02*
X14050000Y24105000I-150000J0D01*
G01*
X12600000Y24105000D01*
G75*
G02*
X12450000Y24255000I0J150000D01*
G01*
G37*
%TD.AperFunction*%
%TD*%
%TO.P,U2,8*%
%TO.N,+15V*%
%TA.AperFunction,SMDPad,CuDef*%
G36*
G01*
X27000000Y28755000D02*
X27000000Y29055000D01*
G75*
G02*
X27150000Y29205000I150000J0D01*
G01*
X28800000Y29205000D01*
G75*
G02*
X28950000Y29055000I0J-150000D01*
G01*
X28950000Y28755000D01*
G75*
G02*
X28800000Y28605000I-150000J0D01*
G01*
X27150000Y28605000D01*
G75*
G02*
X27000000Y28755000I0J150000D01*
G01*
G37*
%TD.AperFunction*%
%TO.P,U2,7*%
%TO.N,Net-(U2-Pad6)*%
%TA.AperFunction,SMDPad,CuDef*%
G36*
G01*
X27000000Y27485000D02*
X27000000Y27785000D01*
G75*
G02*
X27150000Y27935000I150000J0D01*
G01*
X28800000Y27935000D01*
G75*
G02*
X28950000Y27785000I0J-150000D01*
G01*
X28950000Y27485000D01*
G75*
G02*
X28800000Y27335000I-150000J0D01*
G01*
X27150000Y27335000D01*
G75*
G02*
X27000000Y27485000I0J150000D01*
G01*
G37*
%TD.AperFunction*%
%TO.P,U2,6*%
%TA.AperFunction,SMDPad,CuDef*%
G36*
G01*
X27000000Y26215000D02*
X27000000Y26515000D01*
G75*
G02*
X27150000Y26665000I150000J0D01*
G01*
X28800000Y26665000D01*
G75*
G02*
X28950000Y26515000I0J-150000D01*
G01*
X28950000Y26215000D01*
G75*
G02*
X28800000Y26065000I-150000J0D01*
G01*
X27150000Y26065000D01*
G75*
G02*
X27000000Y26215000I0J150000D01*
G01*
G37*
%TD.AperFunction*%
%TO.P,U2,5*%
%TO.N,GND*%
%TA.AperFunction,SMDPad,CuDef*%
G36*
G01*
X27000000Y24945000D02*
X27000000Y25245000D01*
G75*
G02*
X27150000Y25395000I150000J0D01*
G01*
X28800000Y25395000D01*
G75*
G02*
X28950000Y25245000I0J-150000D01*
G01*
X28950000Y24945000D01*
G75*
G02*
X28800000Y24795000I-150000J0D01*
G01*
X27150000Y24795000D01*
G75*
G02*
X27000000Y24945000I0J150000D01*
G01*
G37*
%TD.AperFunction*%
%TO.P,U2,4*%
%TO.N,-15V*%
%TA.AperFunction,SMDPad,CuDef*%
G36*
G01*
X22050000Y24945000D02*
X22050000Y25245000D01*
G75*
G02*
X22200000Y25395000I150000J0D01*
G01*
X23850000Y25395000D01*
G75*
G02*
X24000000Y25245000I0J-150000D01*
G01*
X24000000Y24945000D01*
G75*
G02*
X23850000Y24795000I-150000J0D01*
G01*
X22200000Y24795000D01*
G75*
G02*
X22050000Y24945000I0J150000D01*
G01*
G37*
%TD.AperFunction*%
%TO.P,U2,3*%
%TO.N,GND*%
%TA.AperFunction,SMDPad,CuDef*%
G36*
G01*
X22050000Y26215000D02*
X22050000Y26515000D01*
G75*
G02*
X22200000Y26665000I150000J0D01*
G01*
X23850000Y26665000D01*
G75*
G02*
X24000000Y26515000I0J-150000D01*
G01*
X24000000Y26215000D01*
G75*
G02*
X23850000Y26065000I-150000J0D01*
G01*
X22200000Y26065000D01*
G75*
G02*
X22050000Y26215000I0J150000D01*
G01*
G37*
%TD.AperFunction*%
%TO.P,U2,2*%
%TO.N,Net-(R1-Pad1)*%
%TA.AperFunction,SMDPad,CuDef*%
G36*
G01*
X22050000Y27485000D02*
X22050000Y27785000D01*
G75*
G02*
X22200000Y27935000I150000J0D01*
G01*
X23850000Y27935000D01*
G75*
G02*
X24000000Y27785000I0J-150000D01*
G01*
X24000000Y27485000D01*
G75*
G02*
X23850000Y27335000I-150000J0D01*
G01*
X22200000Y27335000D01*
G75*
G02*
X22050000Y27485000I0J150000D01*
G01*
G37*
%TD.AperFunction*%
%TO.P,U2,1*%
%TO.N,-5.000V*%
%TA.AperFunction,SMDPad,CuDef*%
G36*
G01*
X22050000Y28755000D02*
X22050000Y29055000D01*
G75*
G02*
X22200000Y29205000I150000J0D01*
G01*
X23850000Y29205000D01*
G75*
G02*
X24000000Y29055000I0J-150000D01*
G01*
X24000000Y28755000D01*
G75*
G02*
X23850000Y28605000I-150000J0D01*
G01*
X22200000Y28605000D01*
G75*
G02*
X22050000Y28755000I0J150000D01*
G01*
G37*
%TD.AperFunction*%
%TD*%
%TO.P,U3,1*%
%TO.N,+15V*%
%TA.AperFunction,SMDPad,CuDef*%
G36*
G01*
X32300000Y37255000D02*
X32300000Y37555000D01*
G75*
G02*
X32450000Y37705000I150000J0D01*
G01*
X34100000Y37705000D01*
G75*
G02*
X34250000Y37555000I0J-150000D01*
G01*
X34250000Y37255000D01*
G75*
G02*
X34100000Y37105000I-150000J0D01*
G01*
X32450000Y37105000D01*
G75*
G02*
X32300000Y37255000I0J150000D01*
G01*
G37*
%TD.AperFunction*%
%TO.P,U3,2*%
%TO.N,GND*%
%TA.AperFunction,SMDPad,CuDef*%
G36*
G01*
X32300000Y35985000D02*
X32300000Y36285000D01*
G75*
G02*
X32450000Y36435000I150000J0D01*
G01*
X34100000Y36435000D01*
G75*
G02*
X34250000Y36285000I0J-150000D01*
G01*
X34250000Y35985000D01*
G75*
G02*
X34100000Y35835000I-150000J0D01*
G01*
X32450000Y35835000D01*
G75*
G02*
X32300000Y35985000I0J150000D01*
G01*
G37*
%TD.AperFunction*%
%TO.P,U3,3*%
%TA.AperFunction,SMDPad,CuDef*%
G36*
G01*
X32300000Y34715000D02*
X32300000Y35015000D01*
G75*
G02*
X32450000Y35165000I150000J0D01*
G01*
X34100000Y35165000D01*
G75*
G02*
X34250000Y35015000I0J-150000D01*
G01*
X34250000Y34715000D01*
G75*
G02*
X34100000Y34565000I-150000J0D01*
G01*
X32450000Y34565000D01*
G75*
G02*
X32300000Y34715000I0J150000D01*
G01*
G37*
%TD.AperFunction*%
%TO.P,U3,4*%
%TO.N,Net-(U3-Pad4)*%
%TA.AperFunction,SMDPad,CuDef*%
G36*
G01*
X32300000Y33445000D02*
X32300000Y33745000D01*
G75*
G02*
X32450000Y33895000I150000J0D01*
G01*
X34100000Y33895000D01*
G75*
G02*
X34250000Y33745000I0J-150000D01*
G01*
X34250000Y33445000D01*
G75*
G02*
X34100000Y33295000I-150000J0D01*
G01*
X32450000Y33295000D01*
G75*
G02*
X32300000Y33445000I0J150000D01*
G01*
G37*
%TD.AperFunction*%
%TO.P,U3,5*%
%TO.N,Net-(U3-Pad5)*%
%TA.AperFunction,SMDPad,CuDef*%
G36*
G01*
X37250000Y33445000D02*
X37250000Y33745000D01*
G75*
G02*
X37400000Y33895000I150000J0D01*
G01*
X39050000Y33895000D01*
G75*
G02*
X39200000Y33745000I0J-150000D01*
G01*
X39200000Y33445000D01*
G75*
G02*
X39050000Y33295000I-150000J0D01*
G01*
X37400000Y33295000D01*
G75*
G02*
X37250000Y33445000I0J150000D01*
G01*
G37*
%TD.AperFunction*%
%TO.P,U3,6*%
%TO.N,GND*%
%TA.AperFunction,SMDPad,CuDef*%
G36*
G01*
X37250000Y34715000D02*
X37250000Y35015000D01*
G75*
G02*
X37400000Y35165000I150000J0D01*
G01*
X39050000Y35165000D01*
G75*
G02*
X39200000Y35015000I0J-150000D01*
G01*
X39200000Y34715000D01*
G75*
G02*
X39050000Y34565000I-150000J0D01*
G01*
X37400000Y34565000D01*
G75*
G02*
X37250000Y34715000I0J150000D01*
G01*
G37*
%TD.AperFunction*%
%TO.P,U3,7*%
%TA.AperFunction,SMDPad,CuDef*%
G36*
G01*
X37250000Y35985000D02*
X37250000Y36285000D01*
G75*
G02*
X37400000Y36435000I150000J0D01*
G01*
X39050000Y36435000D01*
G75*
G02*
X39200000Y36285000I0J-150000D01*
G01*
X39200000Y35985000D01*
G75*
G02*
X39050000Y35835000I-150000J0D01*
G01*
X37400000Y35835000D01*
G75*
G02*
X37250000Y35985000I0J150000D01*
G01*
G37*
%TD.AperFunction*%
%TO.P,U3,8*%
%TO.N,Net-(C4-Pad1)*%
%TA.AperFunction,SMDPad,CuDef*%
G36*
G01*
X37250000Y37255000D02*
X37250000Y37555000D01*
G75*
G02*
X37400000Y37705000I150000J0D01*
G01*
X39050000Y37705000D01*
G75*
G02*
X39200000Y37555000I0J-150000D01*
G01*
X39200000Y37255000D01*
G75*
G02*
X39050000Y37105000I-150000J0D01*
G01*
X37400000Y37105000D01*
G75*
G02*
X37250000Y37255000I0J150000D01*
G01*
G37*
%TD.AperFunction*%
%TD*%
%TO.P,U4,8*%
%TO.N,Net-(U4-Pad8)*%
%TA.AperFunction,SMDPad,CuDef*%
G36*
G01*
X13500000Y37255000D02*
X13500000Y37555000D01*
G75*
G02*
X13650000Y37705000I150000J0D01*
G01*
X15300000Y37705000D01*
G75*
G02*
X15450000Y37555000I0J-150000D01*
G01*
X15450000Y37255000D01*
G75*
G02*
X15300000Y37105000I-150000J0D01*
G01*
X13650000Y37105000D01*
G75*
G02*
X13500000Y37255000I0J150000D01*
G01*
G37*
%TD.AperFunction*%
%TO.P,U4,7*%
%TO.N,Net-(C12-Pad2)*%
%TA.AperFunction,SMDPad,CuDef*%
G36*
G01*
X13500000Y35985000D02*
X13500000Y36285000D01*
G75*
G02*
X13650000Y36435000I150000J0D01*
G01*
X15300000Y36435000D01*
G75*
G02*
X15450000Y36285000I0J-150000D01*
G01*
X15450000Y35985000D01*
G75*
G02*
X15300000Y35835000I-150000J0D01*
G01*
X13650000Y35835000D01*
G75*
G02*
X13500000Y35985000I0J150000D01*
G01*
G37*
%TD.AperFunction*%
%TO.P,U4,6*%
%TA.AperFunction,SMDPad,CuDef*%
G36*
G01*
X13500000Y34715000D02*
X13500000Y35015000D01*
G75*
G02*
X13650000Y35165000I150000J0D01*
G01*
X15300000Y35165000D01*
G75*
G02*
X15450000Y35015000I0J-150000D01*
G01*
X15450000Y34715000D01*
G75*
G02*
X15300000Y34565000I-150000J0D01*
G01*
X13650000Y34565000D01*
G75*
G02*
X13500000Y34715000I0J150000D01*
G01*
G37*
%TD.AperFunction*%
%TO.P,U4,5*%
%TO.N,GND*%
%TA.AperFunction,SMDPad,CuDef*%
G36*
G01*
X13500000Y33445000D02*
X13500000Y33745000D01*
G75*
G02*
X13650000Y33895000I150000J0D01*
G01*
X15300000Y33895000D01*
G75*
G02*
X15450000Y33745000I0J-150000D01*
G01*
X15450000Y33445000D01*
G75*
G02*
X15300000Y33295000I-150000J0D01*
G01*
X13650000Y33295000D01*
G75*
G02*
X13500000Y33445000I0J150000D01*
G01*
G37*
%TD.AperFunction*%
%TO.P,U4,4*%
%TO.N,Net-(U4-Pad4)*%
%TA.AperFunction,SMDPad,CuDef*%
G36*
G01*
X8550000Y33445000D02*
X8550000Y33745000D01*
G75*
G02*
X8700000Y33895000I150000J0D01*
G01*
X10350000Y33895000D01*
G75*
G02*
X10500000Y33745000I0J-150000D01*
G01*
X10500000Y33445000D01*
G75*
G02*
X10350000Y33295000I-150000J0D01*
G01*
X8700000Y33295000D01*
G75*
G02*
X8550000Y33445000I0J150000D01*
G01*
G37*
%TD.AperFunction*%
%TO.P,U4,3*%
%TO.N,Net-(C12-Pad2)*%
%TA.AperFunction,SMDPad,CuDef*%
G36*
G01*
X8550000Y34715000D02*
X8550000Y35015000D01*
G75*
G02*
X8700000Y35165000I150000J0D01*
G01*
X10350000Y35165000D01*
G75*
G02*
X10500000Y35015000I0J-150000D01*
G01*
X10500000Y34715000D01*
G75*
G02*
X10350000Y34565000I-150000J0D01*
G01*
X8700000Y34565000D01*
G75*
G02*
X8550000Y34715000I0J150000D01*
G01*
G37*
%TD.AperFunction*%
%TO.P,U4,2*%
%TA.AperFunction,SMDPad,CuDef*%
G36*
G01*
X8550000Y35985000D02*
X8550000Y36285000D01*
G75*
G02*
X8700000Y36435000I150000J0D01*
G01*
X10350000Y36435000D01*
G75*
G02*
X10500000Y36285000I0J-150000D01*
G01*
X10500000Y35985000D01*
G75*
G02*
X10350000Y35835000I-150000J0D01*
G01*
X8700000Y35835000D01*
G75*
G02*
X8550000Y35985000I0J150000D01*
G01*
G37*
%TD.AperFunction*%
%TO.P,U4,1*%
%TO.N,-15V*%
%TA.AperFunction,SMDPad,CuDef*%
G36*
G01*
X8550000Y37255000D02*
X8550000Y37555000D01*
G75*
G02*
X8700000Y37705000I150000J0D01*
G01*
X10350000Y37705000D01*
G75*
G02*
X10500000Y37555000I0J-150000D01*
G01*
X10500000Y37255000D01*
G75*
G02*
X10350000Y37105000I-150000J0D01*
G01*
X8700000Y37105000D01*
G75*
G02*
X8550000Y37255000I0J150000D01*
G01*
G37*
%TD.AperFunction*%
%TD*%
%TO.P,U5,1*%
%TO.N,Vset*%
%TA.AperFunction,SMDPad,CuDef*%
G36*
G01*
X22050000Y13755000D02*
X22050000Y14055000D01*
G75*
G02*
X22200000Y14205000I150000J0D01*
G01*
X23850000Y14205000D01*
G75*
G02*
X24000000Y14055000I0J-150000D01*
G01*
X24000000Y13755000D01*
G75*
G02*
X23850000Y13605000I-150000J0D01*
G01*
X22200000Y13605000D01*
G75*
G02*
X22050000Y13755000I0J150000D01*
G01*
G37*
%TD.AperFunction*%
%TO.P,U5,2*%
%TO.N,Net-(R4-Pad2)*%
%TA.AperFunction,SMDPad,CuDef*%
G36*
G01*
X22050000Y12485000D02*
X22050000Y12785000D01*
G75*
G02*
X22200000Y12935000I150000J0D01*
G01*
X23850000Y12935000D01*
G75*
G02*
X24000000Y12785000I0J-150000D01*
G01*
X24000000Y12485000D01*
G75*
G02*
X23850000Y12335000I-150000J0D01*
G01*
X22200000Y12335000D01*
G75*
G02*
X22050000Y12485000I0J150000D01*
G01*
G37*
%TD.AperFunction*%
%TO.P,U5,3*%
%TO.N,GND*%
%TA.AperFunction,SMDPad,CuDef*%
G36*
G01*
X22050000Y11215000D02*
X22050000Y11515000D01*
G75*
G02*
X22200000Y11665000I150000J0D01*
G01*
X23850000Y11665000D01*
G75*
G02*
X24000000Y11515000I0J-150000D01*
G01*
X24000000Y11215000D01*
G75*
G02*
X23850000Y11065000I-150000J0D01*
G01*
X22200000Y11065000D01*
G75*
G02*
X22050000Y11215000I0J150000D01*
G01*
G37*
%TD.AperFunction*%
%TO.P,U5,4*%
%TO.N,-15V*%
%TA.AperFunction,SMDPad,CuDef*%
G36*
G01*
X22050000Y9945000D02*
X22050000Y10245000D01*
G75*
G02*
X22200000Y10395000I150000J0D01*
G01*
X23850000Y10395000D01*
G75*
G02*
X24000000Y10245000I0J-150000D01*
G01*
X24000000Y9945000D01*
G75*
G02*
X23850000Y9795000I-150000J0D01*
G01*
X22200000Y9795000D01*
G75*
G02*
X22050000Y9945000I0J150000D01*
G01*
G37*
%TD.AperFunction*%
%TO.P,U5,5*%
%TO.N,GND*%
%TA.AperFunction,SMDPad,CuDef*%
G36*
G01*
X27000000Y9945000D02*
X27000000Y10245000D01*
G75*
G02*
X27150000Y10395000I150000J0D01*
G01*
X28800000Y10395000D01*
G75*
G02*
X28950000Y10245000I0J-150000D01*
G01*
X28950000Y9945000D01*
G75*
G02*
X28800000Y9795000I-150000J0D01*
G01*
X27150000Y9795000D01*
G75*
G02*
X27000000Y9945000I0J150000D01*
G01*
G37*
%TD.AperFunction*%
%TO.P,U5,6*%
%TO.N,Net-(R5-Pad2)*%
%TA.AperFunction,SMDPad,CuDef*%
G36*
G01*
X27000000Y11215000D02*
X27000000Y11515000D01*
G75*
G02*
X27150000Y11665000I150000J0D01*
G01*
X28800000Y11665000D01*
G75*
G02*
X28950000Y11515000I0J-150000D01*
G01*
X28950000Y11215000D01*
G75*
G02*
X28800000Y11065000I-150000J0D01*
G01*
X27150000Y11065000D01*
G75*
G02*
X27000000Y11215000I0J150000D01*
G01*
G37*
%TD.AperFunction*%
%TO.P,U5,7*%
%TO.N,Iset*%
%TA.AperFunction,SMDPad,CuDef*%
G36*
G01*
X27000000Y12485000D02*
X27000000Y12785000D01*
G75*
G02*
X27150000Y12935000I150000J0D01*
G01*
X28800000Y12935000D01*
G75*
G02*
X28950000Y12785000I0J-150000D01*
G01*
X28950000Y12485000D01*
G75*
G02*
X28800000Y12335000I-150000J0D01*
G01*
X27150000Y12335000D01*
G75*
G02*
X27000000Y12485000I0J150000D01*
G01*
G37*
%TD.AperFunction*%
%TO.P,U5,8*%
%TO.N,+15V*%
%TA.AperFunction,SMDPad,CuDef*%
G36*
G01*
X27000000Y13755000D02*
X27000000Y14055000D01*
G75*
G02*
X27150000Y14205000I150000J0D01*
G01*
X28800000Y14205000D01*
G75*
G02*
X28950000Y14055000I0J-150000D01*
G01*
X28950000Y13755000D01*
G75*
G02*
X28800000Y13605000I-150000J0D01*
G01*
X27150000Y13605000D01*
G75*
G02*
X27000000Y13755000I0J150000D01*
G01*
G37*
%TD.AperFunction*%
%TD*%
%TO.P,U6,1*%
%TO.N,CC_flag*%
%TA.AperFunction,SMDPad,CuDef*%
G36*
G01*
X56050000Y39505000D02*
X56050000Y39805000D01*
G75*
G02*
X56200000Y39955000I150000J0D01*
G01*
X57850000Y39955000D01*
G75*
G02*
X58000000Y39805000I0J-150000D01*
G01*
X58000000Y39505000D01*
G75*
G02*
X57850000Y39355000I-150000J0D01*
G01*
X56200000Y39355000D01*
G75*
G02*
X56050000Y39505000I0J150000D01*
G01*
G37*
%TD.AperFunction*%
%TO.P,U6,2*%
%TO.N,Net-(C22-Pad1)*%
%TA.AperFunction,SMDPad,CuDef*%
G36*
G01*
X56050000Y38235000D02*
X56050000Y38535000D01*
G75*
G02*
X56200000Y38685000I150000J0D01*
G01*
X57850000Y38685000D01*
G75*
G02*
X58000000Y38535000I0J-150000D01*
G01*
X58000000Y38235000D01*
G75*
G02*
X57850000Y38085000I-150000J0D01*
G01*
X56200000Y38085000D01*
G75*
G02*
X56050000Y38235000I0J150000D01*
G01*
G37*
%TD.AperFunction*%
%TO.P,U6,3*%
%TO.N,Net-(C20-Pad2)*%
%TA.AperFunction,SMDPad,CuDef*%
G36*
G01*
X56050000Y36965000D02*
X56050000Y37265000D01*
G75*
G02*
X56200000Y37415000I150000J0D01*
G01*
X57850000Y37415000D01*
G75*
G02*
X58000000Y37265000I0J-150000D01*
G01*
X58000000Y36965000D01*
G75*
G02*
X57850000Y36815000I-150000J0D01*
G01*
X56200000Y36815000D01*
G75*
G02*
X56050000Y36965000I0J150000D01*
G01*
G37*
%TD.AperFunction*%
%TO.P,U6,4*%
%TO.N,-15V*%
%TA.AperFunction,SMDPad,CuDef*%
G36*
G01*
X56050000Y35695000D02*
X56050000Y35995000D01*
G75*
G02*
X56200000Y36145000I150000J0D01*
G01*
X57850000Y36145000D01*
G75*
G02*
X58000000Y35995000I0J-150000D01*
G01*
X58000000Y35695000D01*
G75*
G02*
X57850000Y35545000I-150000J0D01*
G01*
X56200000Y35545000D01*
G75*
G02*
X56050000Y35695000I0J150000D01*
G01*
G37*
%TD.AperFunction*%
%TO.P,U6,5*%
%TO.N,GND*%
%TA.AperFunction,SMDPad,CuDef*%
G36*
G01*
X61000000Y35695000D02*
X61000000Y35995000D01*
G75*
G02*
X61150000Y36145000I150000J0D01*
G01*
X62800000Y36145000D01*
G75*
G02*
X62950000Y35995000I0J-150000D01*
G01*
X62950000Y35695000D01*
G75*
G02*
X62800000Y35545000I-150000J0D01*
G01*
X61150000Y35545000D01*
G75*
G02*
X61000000Y35695000I0J150000D01*
G01*
G37*
%TD.AperFunction*%
%TO.P,U6,6*%
%TO.N,Net-(C20-Pad1)*%
%TA.AperFunction,SMDPad,CuDef*%
G36*
G01*
X61000000Y36965000D02*
X61000000Y37265000D01*
G75*
G02*
X61150000Y37415000I150000J0D01*
G01*
X62800000Y37415000D01*
G75*
G02*
X62950000Y37265000I0J-150000D01*
G01*
X62950000Y36965000D01*
G75*
G02*
X62800000Y36815000I-150000J0D01*
G01*
X61150000Y36815000D01*
G75*
G02*
X61000000Y36965000I0J150000D01*
G01*
G37*
%TD.AperFunction*%
%TO.P,U6,7*%
%TO.N,Net-(C20-Pad2)*%
%TA.AperFunction,SMDPad,CuDef*%
G36*
G01*
X61000000Y38235000D02*
X61000000Y38535000D01*
G75*
G02*
X61150000Y38685000I150000J0D01*
G01*
X62800000Y38685000D01*
G75*
G02*
X62950000Y38535000I0J-150000D01*
G01*
X62950000Y38235000D01*
G75*
G02*
X62800000Y38085000I-150000J0D01*
G01*
X61150000Y38085000D01*
G75*
G02*
X61000000Y38235000I0J150000D01*
G01*
G37*
%TD.AperFunction*%
%TO.P,U6,8*%
%TO.N,+15V*%
%TA.AperFunction,SMDPad,CuDef*%
G36*
G01*
X61000000Y39505000D02*
X61000000Y39805000D01*
G75*
G02*
X61150000Y39955000I150000J0D01*
G01*
X62800000Y39955000D01*
G75*
G02*
X62950000Y39805000I0J-150000D01*
G01*
X62950000Y39505000D01*
G75*
G02*
X62800000Y39355000I-150000J0D01*
G01*
X61150000Y39355000D01*
G75*
G02*
X61000000Y39505000I0J150000D01*
G01*
G37*
%TD.AperFunction*%
%TD*%
%TO.P,U7,8*%
%TO.N,+15V*%
%TA.AperFunction,SMDPad,CuDef*%
G36*
G01*
X61000000Y28005000D02*
X61000000Y28305000D01*
G75*
G02*
X61150000Y28455000I150000J0D01*
G01*
X62800000Y28455000D01*
G75*
G02*
X62950000Y28305000I0J-150000D01*
G01*
X62950000Y28005000D01*
G75*
G02*
X62800000Y27855000I-150000J0D01*
G01*
X61150000Y27855000D01*
G75*
G02*
X61000000Y28005000I0J150000D01*
G01*
G37*
%TD.AperFunction*%
%TO.P,U7,7*%
%TO.N,Net-(U7-Pad6)*%
%TA.AperFunction,SMDPad,CuDef*%
G36*
G01*
X61000000Y26735000D02*
X61000000Y27035000D01*
G75*
G02*
X61150000Y27185000I150000J0D01*
G01*
X62800000Y27185000D01*
G75*
G02*
X62950000Y27035000I0J-150000D01*
G01*
X62950000Y26735000D01*
G75*
G02*
X62800000Y26585000I-150000J0D01*
G01*
X61150000Y26585000D01*
G75*
G02*
X61000000Y26735000I0J150000D01*
G01*
G37*
%TD.AperFunction*%
%TO.P,U7,6*%
%TA.AperFunction,SMDPad,CuDef*%
G36*
G01*
X61000000Y25465000D02*
X61000000Y25765000D01*
G75*
G02*
X61150000Y25915000I150000J0D01*
G01*
X62800000Y25915000D01*
G75*
G02*
X62950000Y25765000I0J-150000D01*
G01*
X62950000Y25465000D01*
G75*
G02*
X62800000Y25315000I-150000J0D01*
G01*
X61150000Y25315000D01*
G75*
G02*
X61000000Y25465000I0J150000D01*
G01*
G37*
%TD.AperFunction*%
%TO.P,U7,5*%
%TO.N,GND*%
%TA.AperFunction,SMDPad,CuDef*%
G36*
G01*
X61000000Y24195000D02*
X61000000Y24495000D01*
G75*
G02*
X61150000Y24645000I150000J0D01*
G01*
X62800000Y24645000D01*
G75*
G02*
X62950000Y24495000I0J-150000D01*
G01*
X62950000Y24195000D01*
G75*
G02*
X62800000Y24045000I-150000J0D01*
G01*
X61150000Y24045000D01*
G75*
G02*
X61000000Y24195000I0J150000D01*
G01*
G37*
%TD.AperFunction*%
%TO.P,U7,4*%
%TO.N,-15V*%
%TA.AperFunction,SMDPad,CuDef*%
G36*
G01*
X56050000Y24195000D02*
X56050000Y24495000D01*
G75*
G02*
X56200000Y24645000I150000J0D01*
G01*
X57850000Y24645000D01*
G75*
G02*
X58000000Y24495000I0J-150000D01*
G01*
X58000000Y24195000D01*
G75*
G02*
X57850000Y24045000I-150000J0D01*
G01*
X56200000Y24045000D01*
G75*
G02*
X56050000Y24195000I0J150000D01*
G01*
G37*
%TD.AperFunction*%
%TO.P,U7,3*%
%TO.N,Net-(D10-Pad1)*%
%TA.AperFunction,SMDPad,CuDef*%
G36*
G01*
X56050000Y25465000D02*
X56050000Y25765000D01*
G75*
G02*
X56200000Y25915000I150000J0D01*
G01*
X57850000Y25915000D01*
G75*
G02*
X58000000Y25765000I0J-150000D01*
G01*
X58000000Y25465000D01*
G75*
G02*
X57850000Y25315000I-150000J0D01*
G01*
X56200000Y25315000D01*
G75*
G02*
X56050000Y25465000I0J150000D01*
G01*
G37*
%TD.AperFunction*%
%TO.P,U7,2*%
%TO.N,Net-(C27-Pad1)*%
%TA.AperFunction,SMDPad,CuDef*%
G36*
G01*
X56050000Y26735000D02*
X56050000Y27035000D01*
G75*
G02*
X56200000Y27185000I150000J0D01*
G01*
X57850000Y27185000D01*
G75*
G02*
X58000000Y27035000I0J-150000D01*
G01*
X58000000Y26735000D01*
G75*
G02*
X57850000Y26585000I-150000J0D01*
G01*
X56200000Y26585000D01*
G75*
G02*
X56050000Y26735000I0J150000D01*
G01*
G37*
%TD.AperFunction*%
%TO.P,U7,1*%
%TO.N,CV_flag*%
%TA.AperFunction,SMDPad,CuDef*%
G36*
G01*
X56050000Y28005000D02*
X56050000Y28305000D01*
G75*
G02*
X56200000Y28455000I150000J0D01*
G01*
X57850000Y28455000D01*
G75*
G02*
X58000000Y28305000I0J-150000D01*
G01*
X58000000Y28005000D01*
G75*
G02*
X57850000Y27855000I-150000J0D01*
G01*
X56200000Y27855000D01*
G75*
G02*
X56050000Y28005000I0J150000D01*
G01*
G37*
%TD.AperFunction*%
%TD*%
%TO.P,U8,1*%
%TO.N,Net-(R20-Pad1)*%
%TA.AperFunction,SMDPad,CuDef*%
G36*
G01*
X40300000Y13755000D02*
X40300000Y14055000D01*
G75*
G02*
X40450000Y14205000I150000J0D01*
G01*
X42100000Y14205000D01*
G75*
G02*
X42250000Y14055000I0J-150000D01*
G01*
X42250000Y13755000D01*
G75*
G02*
X42100000Y13605000I-150000J0D01*
G01*
X40450000Y13605000D01*
G75*
G02*
X40300000Y13755000I0J150000D01*
G01*
G37*
%TD.AperFunction*%
%TO.P,U8,2*%
%TO.N,Net-(R17-Pad2)*%
%TA.AperFunction,SMDPad,CuDef*%
G36*
G01*
X40300000Y12485000D02*
X40300000Y12785000D01*
G75*
G02*
X40450000Y12935000I150000J0D01*
G01*
X42100000Y12935000D01*
G75*
G02*
X42250000Y12785000I0J-150000D01*
G01*
X42250000Y12485000D01*
G75*
G02*
X42100000Y12335000I-150000J0D01*
G01*
X40450000Y12335000D01*
G75*
G02*
X40300000Y12485000I0J150000D01*
G01*
G37*
%TD.AperFunction*%
%TO.P,U8,3*%
%TO.N,CV_flag*%
%TA.AperFunction,SMDPad,CuDef*%
G36*
G01*
X40300000Y11215000D02*
X40300000Y11515000D01*
G75*
G02*
X40450000Y11665000I150000J0D01*
G01*
X42100000Y11665000D01*
G75*
G02*
X42250000Y11515000I0J-150000D01*
G01*
X42250000Y11215000D01*
G75*
G02*
X42100000Y11065000I-150000J0D01*
G01*
X40450000Y11065000D01*
G75*
G02*
X40300000Y11215000I0J150000D01*
G01*
G37*
%TD.AperFunction*%
%TO.P,U8,4*%
%TO.N,-15V*%
%TA.AperFunction,SMDPad,CuDef*%
G36*
G01*
X40300000Y9945000D02*
X40300000Y10245000D01*
G75*
G02*
X40450000Y10395000I150000J0D01*
G01*
X42100000Y10395000D01*
G75*
G02*
X42250000Y10245000I0J-150000D01*
G01*
X42250000Y9945000D01*
G75*
G02*
X42100000Y9795000I-150000J0D01*
G01*
X40450000Y9795000D01*
G75*
G02*
X40300000Y9945000I0J150000D01*
G01*
G37*
%TD.AperFunction*%
%TO.P,U8,5*%
%TO.N,CC_flag*%
%TA.AperFunction,SMDPad,CuDef*%
G36*
G01*
X45250000Y9945000D02*
X45250000Y10245000D01*
G75*
G02*
X45400000Y10395000I150000J0D01*
G01*
X47050000Y10395000D01*
G75*
G02*
X47200000Y10245000I0J-150000D01*
G01*
X47200000Y9945000D01*
G75*
G02*
X47050000Y9795000I-150000J0D01*
G01*
X45400000Y9795000D01*
G75*
G02*
X45250000Y9945000I0J150000D01*
G01*
G37*
%TD.AperFunction*%
%TO.P,U8,6*%
%TO.N,Net-(R17-Pad2)*%
%TA.AperFunction,SMDPad,CuDef*%
G36*
G01*
X45250000Y11215000D02*
X45250000Y11515000D01*
G75*
G02*
X45400000Y11665000I150000J0D01*
G01*
X47050000Y11665000D01*
G75*
G02*
X47200000Y11515000I0J-150000D01*
G01*
X47200000Y11215000D01*
G75*
G02*
X47050000Y11065000I-150000J0D01*
G01*
X45400000Y11065000D01*
G75*
G02*
X45250000Y11215000I0J150000D01*
G01*
G37*
%TD.AperFunction*%
%TO.P,U8,7*%
%TO.N,Net-(R16-Pad1)*%
%TA.AperFunction,SMDPad,CuDef*%
G36*
G01*
X45250000Y12485000D02*
X45250000Y12785000D01*
G75*
G02*
X45400000Y12935000I150000J0D01*
G01*
X47050000Y12935000D01*
G75*
G02*
X47200000Y12785000I0J-150000D01*
G01*
X47200000Y12485000D01*
G75*
G02*
X47050000Y12335000I-150000J0D01*
G01*
X45400000Y12335000D01*
G75*
G02*
X45250000Y12485000I0J150000D01*
G01*
G37*
%TD.AperFunction*%
%TO.P,U8,8*%
%TO.N,+15V*%
%TA.AperFunction,SMDPad,CuDef*%
G36*
G01*
X45250000Y13755000D02*
X45250000Y14055000D01*
G75*
G02*
X45400000Y14205000I150000J0D01*
G01*
X47050000Y14205000D01*
G75*
G02*
X47200000Y14055000I0J-150000D01*
G01*
X47200000Y13755000D01*
G75*
G02*
X47050000Y13605000I-150000J0D01*
G01*
X45400000Y13605000D01*
G75*
G02*
X45250000Y13755000I0J150000D01*
G01*
G37*
%TD.AperFunction*%
%TD*%
%TO.P,R1,1*%
%TO.N,Net-(R1-Pad1)*%
%TA.AperFunction,SMDPad,CuDef*%
G36*
G01*
X20950001Y27575000D02*
X20049999Y27575000D01*
G75*
G02*
X19800000Y27824999I0J249999D01*
G01*
X19800000Y28350001D01*
G75*
G02*
X20049999Y28600000I249999J0D01*
G01*
X20950001Y28600000D01*
G75*
G02*
X21200000Y28350001I0J-249999D01*
G01*
X21200000Y27824999D01*
G75*
G02*
X20950001Y27575000I-249999J0D01*
G01*
G37*
%TD.AperFunction*%
%TO.P,R1,2*%
%TO.N,-5.000V*%
%TA.AperFunction,SMDPad,CuDef*%
G36*
G01*
X20950001Y29400000D02*
X20049999Y29400000D01*
G75*
G02*
X19800000Y29649999I0J249999D01*
G01*
X19800000Y30175001D01*
G75*
G02*
X20049999Y30425000I249999J0D01*
G01*
X20950001Y30425000D01*
G75*
G02*
X21200000Y30175001I0J-249999D01*
G01*
X21200000Y29649999D01*
G75*
G02*
X20950001Y29400000I-249999J0D01*
G01*
G37*
%TD.AperFunction*%
%TD*%
%TO.P,R2,2*%
%TO.N,Net-(R1-Pad1)*%
%TA.AperFunction,SMDPad,CuDef*%
G36*
G01*
X20950001Y25450000D02*
X20049999Y25450000D01*
G75*
G02*
X19800000Y25699999I0J249999D01*
G01*
X19800000Y26225001D01*
G75*
G02*
X20049999Y26475000I249999J0D01*
G01*
X20950001Y26475000D01*
G75*
G02*
X21200000Y26225001I0J-249999D01*
G01*
X21200000Y25699999D01*
G75*
G02*
X20950001Y25450000I-249999J0D01*
G01*
G37*
%TD.AperFunction*%
%TO.P,R2,1*%
%TO.N,5.000V*%
%TA.AperFunction,SMDPad,CuDef*%
G36*
G01*
X20950001Y23625000D02*
X20049999Y23625000D01*
G75*
G02*
X19800000Y23874999I0J249999D01*
G01*
X19800000Y24400001D01*
G75*
G02*
X20049999Y24650000I249999J0D01*
G01*
X20950001Y24650000D01*
G75*
G02*
X21200000Y24400001I0J-249999D01*
G01*
X21200000Y23874999D01*
G75*
G02*
X20950001Y23625000I-249999J0D01*
G01*
G37*
%TD.AperFunction*%
%TD*%
%TO.P,R4,2*%
%TO.N,Net-(R4-Pad2)*%
%TA.AperFunction,SMDPad,CuDef*%
G36*
G01*
X19450000Y12049999D02*
X19450000Y12950001D01*
G75*
G02*
X19699999Y13200000I249999J0D01*
G01*
X20225001Y13200000D01*
G75*
G02*
X20475000Y12950001I0J-249999D01*
G01*
X20475000Y12049999D01*
G75*
G02*
X20225001Y11800000I-249999J0D01*
G01*
X19699999Y11800000D01*
G75*
G02*
X19450000Y12049999I0J249999D01*
G01*
G37*
%TD.AperFunction*%
%TO.P,R4,1*%
%TO.N,-5.000V*%
%TA.AperFunction,SMDPad,CuDef*%
G36*
G01*
X17625000Y12049999D02*
X17625000Y12950001D01*
G75*
G02*
X17874999Y13200000I249999J0D01*
G01*
X18400001Y13200000D01*
G75*
G02*
X18650000Y12950001I0J-249999D01*
G01*
X18650000Y12049999D01*
G75*
G02*
X18400001Y11800000I-249999J0D01*
G01*
X17874999Y11800000D01*
G75*
G02*
X17625000Y12049999I0J249999D01*
G01*
G37*
%TD.AperFunction*%
%TD*%
%TO.P,R5,1*%
%TO.N,5.000V*%
%TA.AperFunction,SMDPad,CuDef*%
G36*
G01*
X33375000Y12950001D02*
X33375000Y12049999D01*
G75*
G02*
X33125001Y11800000I-249999J0D01*
G01*
X32599999Y11800000D01*
G75*
G02*
X32350000Y12049999I0J249999D01*
G01*
X32350000Y12950001D01*
G75*
G02*
X32599999Y13200000I249999J0D01*
G01*
X33125001Y13200000D01*
G75*
G02*
X33375000Y12950001I0J-249999D01*
G01*
G37*
%TD.AperFunction*%
%TO.P,R5,2*%
%TO.N,Net-(R5-Pad2)*%
%TA.AperFunction,SMDPad,CuDef*%
G36*
G01*
X31550000Y12950001D02*
X31550000Y12049999D01*
G75*
G02*
X31300001Y11800000I-249999J0D01*
G01*
X30774999Y11800000D01*
G75*
G02*
X30525000Y12049999I0J249999D01*
G01*
X30525000Y12950001D01*
G75*
G02*
X30774999Y13200000I249999J0D01*
G01*
X31300001Y13200000D01*
G75*
G02*
X31550000Y12950001I0J-249999D01*
G01*
G37*
%TD.AperFunction*%
%TD*%
%TO.P,R7,1*%
%TO.N,Net-(Q1-Pad1)*%
%TA.AperFunction,SMDPad,CuDef*%
G36*
G01*
X92475000Y53450001D02*
X92475000Y52549999D01*
G75*
G02*
X92225001Y52300000I-249999J0D01*
G01*
X91699999Y52300000D01*
G75*
G02*
X91450000Y52549999I0J249999D01*
G01*
X91450000Y53450001D01*
G75*
G02*
X91699999Y53700000I249999J0D01*
G01*
X92225001Y53700000D01*
G75*
G02*
X92475000Y53450001I0J-249999D01*
G01*
G37*
%TD.AperFunction*%
%TO.P,R7,2*%
%TO.N,Net-(C21-Pad1)*%
%TA.AperFunction,SMDPad,CuDef*%
G36*
G01*
X90650000Y53450001D02*
X90650000Y52549999D01*
G75*
G02*
X90400001Y52300000I-249999J0D01*
G01*
X89874999Y52300000D01*
G75*
G02*
X89625000Y52549999I0J249999D01*
G01*
X89625000Y53450001D01*
G75*
G02*
X89874999Y53700000I249999J0D01*
G01*
X90400001Y53700000D01*
G75*
G02*
X90650000Y53450001I0J-249999D01*
G01*
G37*
%TD.AperFunction*%
%TD*%
%TO.P,R8,2*%
%TO.N,Net-(C20-Pad1)*%
%TA.AperFunction,SMDPad,CuDef*%
G36*
G01*
X64549999Y37262500D02*
X65450001Y37262500D01*
G75*
G02*
X65700000Y37012501I0J-249999D01*
G01*
X65700000Y36487499D01*
G75*
G02*
X65450001Y36237500I-249999J0D01*
G01*
X64549999Y36237500D01*
G75*
G02*
X64300000Y36487499I0J249999D01*
G01*
X64300000Y37012501D01*
G75*
G02*
X64549999Y37262500I249999J0D01*
G01*
G37*
%TD.AperFunction*%
%TO.P,R8,1*%
%TO.N,Net-(C20-Pad2)*%
%TA.AperFunction,SMDPad,CuDef*%
G36*
G01*
X64549999Y39087500D02*
X65450001Y39087500D01*
G75*
G02*
X65700000Y38837501I0J-249999D01*
G01*
X65700000Y38312499D01*
G75*
G02*
X65450001Y38062500I-249999J0D01*
G01*
X64549999Y38062500D01*
G75*
G02*
X64300000Y38312499I0J249999D01*
G01*
X64300000Y38837501D01*
G75*
G02*
X64549999Y39087500I249999J0D01*
G01*
G37*
%TD.AperFunction*%
%TD*%
%TO.P,R9,2*%
%TO.N,Feedback_control*%
%TA.AperFunction,SMDPad,CuDef*%
G36*
G01*
X86550000Y51950001D02*
X86550000Y51049999D01*
G75*
G02*
X86300001Y50800000I-249999J0D01*
G01*
X85774999Y50800000D01*
G75*
G02*
X85525000Y51049999I0J249999D01*
G01*
X85525000Y51950001D01*
G75*
G02*
X85774999Y52200000I249999J0D01*
G01*
X86300001Y52200000D01*
G75*
G02*
X86550000Y51950001I0J-249999D01*
G01*
G37*
%TD.AperFunction*%
%TO.P,R9,1*%
%TO.N,Net-(C21-Pad1)*%
%TA.AperFunction,SMDPad,CuDef*%
G36*
G01*
X88375000Y51950001D02*
X88375000Y51049999D01*
G75*
G02*
X88125001Y50800000I-249999J0D01*
G01*
X87599999Y50800000D01*
G75*
G02*
X87350000Y51049999I0J249999D01*
G01*
X87350000Y51950001D01*
G75*
G02*
X87599999Y52200000I249999J0D01*
G01*
X88125001Y52200000D01*
G75*
G02*
X88375000Y51950001I0J-249999D01*
G01*
G37*
%TD.AperFunction*%
%TD*%
%TO.P,R10,1*%
%TO.N,Net-(C20-Pad1)*%
%TA.AperFunction,SMDPad,CuDef*%
G36*
G01*
X64237500Y33799999D02*
X64237500Y34700001D01*
G75*
G02*
X64487499Y34950000I249999J0D01*
G01*
X65012501Y34950000D01*
G75*
G02*
X65262500Y34700001I0J-249999D01*
G01*
X65262500Y33799999D01*
G75*
G02*
X65012501Y33550000I-249999J0D01*
G01*
X64487499Y33550000D01*
G75*
G02*
X64237500Y33799999I0J249999D01*
G01*
G37*
%TD.AperFunction*%
%TO.P,R10,2*%
%TO.N,I_sense-*%
%TA.AperFunction,SMDPad,CuDef*%
G36*
G01*
X66062500Y33799999D02*
X66062500Y34700001D01*
G75*
G02*
X66312499Y34950000I249999J0D01*
G01*
X66837501Y34950000D01*
G75*
G02*
X67087500Y34700001I0J-249999D01*
G01*
X67087500Y33799999D01*
G75*
G02*
X66837501Y33550000I-249999J0D01*
G01*
X66312499Y33550000D01*
G75*
G02*
X66062500Y33799999I0J249999D01*
G01*
G37*
%TD.AperFunction*%
%TD*%
%TO.P,R15,2*%
%TO.N,Net-(C25-Pad1)*%
%TA.AperFunction,SMDPad,CuDef*%
G36*
G01*
X90650000Y23450001D02*
X90650000Y22549999D01*
G75*
G02*
X90400001Y22300000I-249999J0D01*
G01*
X89874999Y22300000D01*
G75*
G02*
X89625000Y22549999I0J249999D01*
G01*
X89625000Y23450001D01*
G75*
G02*
X89874999Y23700000I249999J0D01*
G01*
X90400001Y23700000D01*
G75*
G02*
X90650000Y23450001I0J-249999D01*
G01*
G37*
%TD.AperFunction*%
%TO.P,R15,1*%
%TO.N,Net-(Q3-Pad1)*%
%TA.AperFunction,SMDPad,CuDef*%
G36*
G01*
X92475000Y23450001D02*
X92475000Y22549999D01*
G75*
G02*
X92225001Y22300000I-249999J0D01*
G01*
X91699999Y22300000D01*
G75*
G02*
X91450000Y22549999I0J249999D01*
G01*
X91450000Y23450001D01*
G75*
G02*
X91699999Y23700000I249999J0D01*
G01*
X92225001Y23700000D01*
G75*
G02*
X92475000Y23450001I0J-249999D01*
G01*
G37*
%TD.AperFunction*%
%TD*%
%TO.P,R16,1*%
%TO.N,Net-(R16-Pad1)*%
%TA.AperFunction,SMDPad,CuDef*%
G36*
G01*
X50412500Y9549999D02*
X50412500Y10450001D01*
G75*
G02*
X50662499Y10700000I249999J0D01*
G01*
X51187501Y10700000D01*
G75*
G02*
X51437500Y10450001I0J-249999D01*
G01*
X51437500Y9549999D01*
G75*
G02*
X51187501Y9300000I-249999J0D01*
G01*
X50662499Y9300000D01*
G75*
G02*
X50412500Y9549999I0J249999D01*
G01*
G37*
%TD.AperFunction*%
%TO.P,R16,2*%
%TO.N,Net-(D7-Pad2)*%
%TA.AperFunction,SMDPad,CuDef*%
G36*
G01*
X52237500Y9549999D02*
X52237500Y10450001D01*
G75*
G02*
X52487499Y10700000I249999J0D01*
G01*
X53012501Y10700000D01*
G75*
G02*
X53262500Y10450001I0J-249999D01*
G01*
X53262500Y9549999D01*
G75*
G02*
X53012501Y9300000I-249999J0D01*
G01*
X52487499Y9300000D01*
G75*
G02*
X52237500Y9549999I0J249999D01*
G01*
G37*
%TD.AperFunction*%
%TD*%
%TO.P,R17,1*%
%TO.N,+15V*%
%TA.AperFunction,SMDPad,CuDef*%
G36*
G01*
X37799999Y15587500D02*
X38700001Y15587500D01*
G75*
G02*
X38950000Y15337501I0J-249999D01*
G01*
X38950000Y14812499D01*
G75*
G02*
X38700001Y14562500I-249999J0D01*
G01*
X37799999Y14562500D01*
G75*
G02*
X37550000Y14812499I0J249999D01*
G01*
X37550000Y15337501D01*
G75*
G02*
X37799999Y15587500I249999J0D01*
G01*
G37*
%TD.AperFunction*%
%TO.P,R17,2*%
%TO.N,Net-(R17-Pad2)*%
%TA.AperFunction,SMDPad,CuDef*%
G36*
G01*
X37799999Y13762500D02*
X38700001Y13762500D01*
G75*
G02*
X38950000Y13512501I0J-249999D01*
G01*
X38950000Y12987499D01*
G75*
G02*
X38700001Y12737500I-249999J0D01*
G01*
X37799999Y12737500D01*
G75*
G02*
X37550000Y12987499I0J249999D01*
G01*
X37550000Y13512501D01*
G75*
G02*
X37799999Y13762500I249999J0D01*
G01*
G37*
%TD.AperFunction*%
%TD*%
%TO.P,R18,1*%
%TO.N,Net-(C25-Pad1)*%
%TA.AperFunction,SMDPad,CuDef*%
G36*
G01*
X88475000Y21950001D02*
X88475000Y21049999D01*
G75*
G02*
X88225001Y20800000I-249999J0D01*
G01*
X87699999Y20800000D01*
G75*
G02*
X87450000Y21049999I0J249999D01*
G01*
X87450000Y21950001D01*
G75*
G02*
X87699999Y22200000I249999J0D01*
G01*
X88225001Y22200000D01*
G75*
G02*
X88475000Y21950001I0J-249999D01*
G01*
G37*
%TD.AperFunction*%
%TO.P,R18,2*%
%TO.N,Feedback_control*%
%TA.AperFunction,SMDPad,CuDef*%
G36*
G01*
X86650000Y21950001D02*
X86650000Y21049999D01*
G75*
G02*
X86400001Y20800000I-249999J0D01*
G01*
X85874999Y20800000D01*
G75*
G02*
X85625000Y21049999I0J249999D01*
G01*
X85625000Y21950001D01*
G75*
G02*
X85874999Y22200000I249999J0D01*
G01*
X86400001Y22200000D01*
G75*
G02*
X86650000Y21950001I0J-249999D01*
G01*
G37*
%TD.AperFunction*%
%TD*%
%TO.P,R19,2*%
%TO.N,GND*%
%TA.AperFunction,SMDPad,CuDef*%
G36*
G01*
X37799999Y9437500D02*
X38700001Y9437500D01*
G75*
G02*
X38950000Y9187501I0J-249999D01*
G01*
X38950000Y8662499D01*
G75*
G02*
X38700001Y8412500I-249999J0D01*
G01*
X37799999Y8412500D01*
G75*
G02*
X37550000Y8662499I0J249999D01*
G01*
X37550000Y9187501D01*
G75*
G02*
X37799999Y9437500I249999J0D01*
G01*
G37*
%TD.AperFunction*%
%TO.P,R19,1*%
%TO.N,Net-(R17-Pad2)*%
%TA.AperFunction,SMDPad,CuDef*%
G36*
G01*
X37799999Y11262500D02*
X38700001Y11262500D01*
G75*
G02*
X38950000Y11012501I0J-249999D01*
G01*
X38950000Y10487499D01*
G75*
G02*
X38700001Y10237500I-249999J0D01*
G01*
X37799999Y10237500D01*
G75*
G02*
X37550000Y10487499I0J249999D01*
G01*
X37550000Y11012501D01*
G75*
G02*
X37799999Y11262500I249999J0D01*
G01*
G37*
%TD.AperFunction*%
%TD*%
%TO.P,R20,1*%
%TO.N,Net-(R20-Pad1)*%
%TA.AperFunction,SMDPad,CuDef*%
G36*
G01*
X57162500Y9549999D02*
X57162500Y10450001D01*
G75*
G02*
X57412499Y10700000I249999J0D01*
G01*
X57937501Y10700000D01*
G75*
G02*
X58187500Y10450001I0J-249999D01*
G01*
X58187500Y9549999D01*
G75*
G02*
X57937501Y9300000I-249999J0D01*
G01*
X57412499Y9300000D01*
G75*
G02*
X57162500Y9549999I0J249999D01*
G01*
G37*
%TD.AperFunction*%
%TO.P,R20,2*%
%TO.N,Net-(D8-Pad2)*%
%TA.AperFunction,SMDPad,CuDef*%
G36*
G01*
X58987500Y9549999D02*
X58987500Y10450001D01*
G75*
G02*
X59237499Y10700000I249999J0D01*
G01*
X59762501Y10700000D01*
G75*
G02*
X60012500Y10450001I0J-249999D01*
G01*
X60012500Y9549999D01*
G75*
G02*
X59762501Y9300000I-249999J0D01*
G01*
X59237499Y9300000D01*
G75*
G02*
X58987500Y9549999I0J249999D01*
G01*
G37*
%TD.AperFunction*%
%TD*%
%TO.P,R21,1*%
%TO.N,Feedback_control*%
%TA.AperFunction,SMDPad,CuDef*%
G36*
G01*
X88425000Y38450001D02*
X88425000Y37549999D01*
G75*
G02*
X88175001Y37300000I-249999J0D01*
G01*
X87649999Y37300000D01*
G75*
G02*
X87400000Y37549999I0J249999D01*
G01*
X87400000Y38450001D01*
G75*
G02*
X87649999Y38700000I249999J0D01*
G01*
X88175001Y38700000D01*
G75*
G02*
X88425000Y38450001I0J-249999D01*
G01*
G37*
%TD.AperFunction*%
%TO.P,R21,2*%
%TO.N,Net-(H7-Pad1)*%
%TA.AperFunction,SMDPad,CuDef*%
G36*
G01*
X86600000Y38450001D02*
X86600000Y37549999D01*
G75*
G02*
X86350001Y37300000I-249999J0D01*
G01*
X85824999Y37300000D01*
G75*
G02*
X85575000Y37549999I0J249999D01*
G01*
X85575000Y38450001D01*
G75*
G02*
X85824999Y38700000I249999J0D01*
G01*
X86350001Y38700000D01*
G75*
G02*
X86600000Y38450001I0J-249999D01*
G01*
G37*
%TD.AperFunction*%
%TD*%
%TO.P,R22,1*%
%TO.N,Net-(C26-Pad1)*%
%TA.AperFunction,SMDPad,CuDef*%
G36*
G01*
X49075000Y26049999D02*
X49075000Y26950001D01*
G75*
G02*
X49324999Y27200000I249999J0D01*
G01*
X49850001Y27200000D01*
G75*
G02*
X50100000Y26950001I0J-249999D01*
G01*
X50100000Y26049999D01*
G75*
G02*
X49850001Y25800000I-249999J0D01*
G01*
X49324999Y25800000D01*
G75*
G02*
X49075000Y26049999I0J249999D01*
G01*
G37*
%TD.AperFunction*%
%TO.P,R22,2*%
%TO.N,Net-(C27-Pad1)*%
%TA.AperFunction,SMDPad,CuDef*%
G36*
G01*
X50900000Y26049999D02*
X50900000Y26950001D01*
G75*
G02*
X51149999Y27200000I249999J0D01*
G01*
X51675001Y27200000D01*
G75*
G02*
X51925000Y26950001I0J-249999D01*
G01*
X51925000Y26049999D01*
G75*
G02*
X51675001Y25800000I-249999J0D01*
G01*
X51149999Y25800000D01*
G75*
G02*
X50900000Y26049999I0J249999D01*
G01*
G37*
%TD.AperFunction*%
%TD*%
%TO.P,R23,2*%
%TO.N,GND*%
%TA.AperFunction,SMDPad,CuDef*%
G36*
G01*
X52937500Y24200001D02*
X52937500Y23299999D01*
G75*
G02*
X52687501Y23050000I-249999J0D01*
G01*
X52162499Y23050000D01*
G75*
G02*
X51912500Y23299999I0J249999D01*
G01*
X51912500Y24200001D01*
G75*
G02*
X52162499Y24450000I249999J0D01*
G01*
X52687501Y24450000D01*
G75*
G02*
X52937500Y24200001I0J-249999D01*
G01*
G37*
%TD.AperFunction*%
%TO.P,R23,1*%
%TO.N,Net-(C27-Pad1)*%
%TA.AperFunction,SMDPad,CuDef*%
G36*
G01*
X54762500Y24200001D02*
X54762500Y23299999D01*
G75*
G02*
X54512501Y23050000I-249999J0D01*
G01*
X53987499Y23050000D01*
G75*
G02*
X53737500Y23299999I0J249999D01*
G01*
X53737500Y24200001D01*
G75*
G02*
X53987499Y24450000I249999J0D01*
G01*
X54512501Y24450000D01*
G75*
G02*
X54762500Y24200001I0J-249999D01*
G01*
G37*
%TD.AperFunction*%
%TD*%
%TO.P,R24,2*%
%TO.N,Net-(C28-Pad2)*%
%TA.AperFunction,SMDPad,CuDef*%
G36*
G01*
X59812500Y19049999D02*
X59812500Y19950001D01*
G75*
G02*
X60062499Y20200000I249999J0D01*
G01*
X60587501Y20200000D01*
G75*
G02*
X60837500Y19950001I0J-249999D01*
G01*
X60837500Y19049999D01*
G75*
G02*
X60587501Y18800000I-249999J0D01*
G01*
X60062499Y18800000D01*
G75*
G02*
X59812500Y19049999I0J249999D01*
G01*
G37*
%TD.AperFunction*%
%TO.P,R24,1*%
%TO.N,Net-(D10-Pad1)*%
%TA.AperFunction,SMDPad,CuDef*%
G36*
G01*
X57987500Y19049999D02*
X57987500Y19950001D01*
G75*
G02*
X58237499Y20200000I249999J0D01*
G01*
X58762501Y20200000D01*
G75*
G02*
X59012500Y19950001I0J-249999D01*
G01*
X59012500Y19049999D01*
G75*
G02*
X58762501Y18800000I-249999J0D01*
G01*
X58237499Y18800000D01*
G75*
G02*
X57987500Y19049999I0J249999D01*
G01*
G37*
%TD.AperFunction*%
%TD*%
%TO.P,R25,2*%
%TO.N,Net-(R25-Pad2)*%
%TA.AperFunction,SMDPad,CuDef*%
G36*
G01*
X59012500Y17200001D02*
X59012500Y16299999D01*
G75*
G02*
X58762501Y16050000I-249999J0D01*
G01*
X58237499Y16050000D01*
G75*
G02*
X57987500Y16299999I0J249999D01*
G01*
X57987500Y17200001D01*
G75*
G02*
X58237499Y17450000I249999J0D01*
G01*
X58762501Y17450000D01*
G75*
G02*
X59012500Y17200001I0J-249999D01*
G01*
G37*
%TD.AperFunction*%
%TO.P,R25,1*%
%TO.N,Net-(C28-Pad2)*%
%TA.AperFunction,SMDPad,CuDef*%
G36*
G01*
X60837500Y17200001D02*
X60837500Y16299999D01*
G75*
G02*
X60587501Y16050000I-249999J0D01*
G01*
X60062499Y16050000D01*
G75*
G02*
X59812500Y16299999I0J249999D01*
G01*
X59812500Y17200001D01*
G75*
G02*
X60062499Y17450000I249999J0D01*
G01*
X60587501Y17450000D01*
G75*
G02*
X60837500Y17200001I0J-249999D01*
G01*
G37*
%TD.AperFunction*%
%TD*%
%TO.P,R26,2*%
%TO.N,Center_tap*%
%TA.AperFunction,SMDPad,CuDef*%
G36*
G01*
X64062500Y14799999D02*
X64062500Y15700001D01*
G75*
G02*
X64312499Y15950000I249999J0D01*
G01*
X64837501Y15950000D01*
G75*
G02*
X65087500Y15700001I0J-249999D01*
G01*
X65087500Y14799999D01*
G75*
G02*
X64837501Y14550000I-249999J0D01*
G01*
X64312499Y14550000D01*
G75*
G02*
X64062500Y14799999I0J249999D01*
G01*
G37*
%TD.AperFunction*%
%TO.P,R26,1*%
%TO.N,Net-(C28-Pad2)*%
%TA.AperFunction,SMDPad,CuDef*%
G36*
G01*
X62237500Y14799999D02*
X62237500Y15700001D01*
G75*
G02*
X62487499Y15950000I249999J0D01*
G01*
X63012501Y15950000D01*
G75*
G02*
X63262500Y15700001I0J-249999D01*
G01*
X63262500Y14799999D01*
G75*
G02*
X63012501Y14550000I-249999J0D01*
G01*
X62487499Y14550000D01*
G75*
G02*
X62237500Y14799999I0J249999D01*
G01*
G37*
%TD.AperFunction*%
%TD*%
%TO.P,R27,1*%
%TO.N,Net-(Q2-Pad2)*%
%TA.AperFunction,SMDPad,CuDef*%
G36*
G01*
X88512500Y31450001D02*
X88512500Y30549999D01*
G75*
G02*
X88262501Y30300000I-249999J0D01*
G01*
X87737499Y30300000D01*
G75*
G02*
X87487500Y30549999I0J249999D01*
G01*
X87487500Y31450001D01*
G75*
G02*
X87737499Y31700000I249999J0D01*
G01*
X88262501Y31700000D01*
G75*
G02*
X88512500Y31450001I0J-249999D01*
G01*
G37*
%TD.AperFunction*%
%TO.P,R27,2*%
%TO.N,Net-(H5-Pad1)*%
%TA.AperFunction,SMDPad,CuDef*%
G36*
G01*
X86687500Y31450001D02*
X86687500Y30549999D01*
G75*
G02*
X86437501Y30300000I-249999J0D01*
G01*
X85912499Y30300000D01*
G75*
G02*
X85662500Y30549999I0J249999D01*
G01*
X85662500Y31450001D01*
G75*
G02*
X85912499Y31700000I249999J0D01*
G01*
X86437501Y31700000D01*
G75*
G02*
X86687500Y31450001I0J-249999D01*
G01*
G37*
%TD.AperFunction*%
%TD*%
D10*
%TO.P,H5,1*%
%TO.N,Net-(H5-Pad1)*%
X85750000Y33250000D03*
%TD*%
D30*
%TO.N,*%
X70500000Y14250000D03*
X70500000Y9750000D03*
X77250000Y16500000D03*
X75000000Y16500000D03*
%TO.N,Center_tap*%
X86000000Y59500000D03*
X83750000Y59500000D03*
X81500000Y59500000D03*
X81500000Y64000000D03*
X83750000Y64000000D03*
X86000000Y64000000D03*
X86000000Y61750000D03*
X83750000Y61750000D03*
X81500000Y61750000D03*
X81500000Y68500000D03*
X83750000Y68500000D03*
X86000000Y68500000D03*
X86000000Y66250000D03*
X83750000Y66250000D03*
X81500000Y66250000D03*
%TO.N,GND*%
X75000000Y5250000D03*
X77250000Y7500000D03*
X75000000Y7500000D03*
X77250000Y5250000D03*
%TO.N,Power_In*%
X96500000Y77500000D03*
%TO.N,Center_tap*%
X96500000Y83750000D03*
X83750000Y57250000D03*
X81500000Y57250000D03*
X86000000Y57250000D03*
%TO.N,GND*%
X14500000Y32000000D03*
X17000000Y34000000D03*
X20500000Y32750000D03*
X7000000Y33750000D03*
X2250000Y48500000D03*
X2250000Y49750000D03*
X2250000Y47250000D03*
X24500000Y33000000D03*
X30750000Y34000000D03*
X35750000Y35500000D03*
X40750000Y34000000D03*
X44250000Y32750000D03*
X50250000Y48500000D03*
X50250000Y50000000D03*
X50250000Y47000000D03*
X5750000Y19250000D03*
X8250000Y19000000D03*
X28000000Y8000000D03*
X20750000Y10750000D03*
X46500000Y8000000D03*
X62000000Y33750000D03*
X25500000Y26250000D03*
X28250000Y23000000D03*
X41000000Y16000000D03*
X22750000Y16000000D03*
X38250000Y7250000D03*
X58500000Y43500000D03*
X50750000Y23750000D03*
X58500000Y32000000D03*
X55750000Y16250000D03*
X55500000Y13750000D03*
X64750000Y22500000D03*
X70500000Y23750000D03*
X70500000Y25500000D03*
X70500000Y27250000D03*
X77500000Y22750000D03*
X75250000Y22750000D03*
X72750000Y22750000D03*
X72750000Y20500000D03*
X72750000Y18500000D03*
X72750000Y16500000D03*
X72750000Y14250000D03*
X72750000Y12000000D03*
X72750000Y9750000D03*
X75000000Y14250000D03*
X77250000Y14250000D03*
X77250000Y12000000D03*
X75000000Y12000000D03*
X75000000Y9750000D03*
X77250000Y9750000D03*
%TO.N,+15V*%
X36500000Y18750000D03*
X38250000Y17000000D03*
X9000000Y28750000D03*
X10750000Y30500000D03*
X70500000Y39500000D03*
X72500000Y39500000D03*
X62000000Y30250000D03*
X46750000Y30250000D03*
%TO.N,-15V*%
X17000000Y26750000D03*
X22750000Y23000000D03*
X21000000Y15000000D03*
X23000000Y8250000D03*
X32750000Y6500000D03*
X30250000Y6500000D03*
X66750000Y32250000D03*
X64250000Y24250000D03*
X59500000Y24250000D03*
X19000000Y39250000D03*
X22000000Y39250000D03*
X36750000Y39250000D03*
X39750000Y39250000D03*
X47250000Y39250000D03*
X51000000Y32750000D03*
%TO.N,Feedback_control*%
X62500000Y41750000D03*
X54250000Y34750000D03*
%TO.N,CC_flag*%
X44250000Y10250000D03*
X47000000Y20000000D03*
X44250000Y22750000D03*
X42250000Y24750000D03*
X44000000Y29000000D03*
X45000000Y41500000D03*
X51500000Y43750000D03*
X55250000Y43750000D03*
%TO.N,CV_flag*%
X59500000Y28000000D03*
X48000000Y25000000D03*
X46750000Y16000000D03*
X43250000Y10250000D03*
%TO.N,-5.000V*%
X18250000Y25250000D03*
X18250000Y23250000D03*
X18250000Y15000000D03*
X18250000Y10750000D03*
%TO.N,5.000V*%
X19750000Y18750000D03*
X34750000Y12500000D03*
%TO.N,Iset*%
X25750000Y10000000D03*
%TO.N,Net-(R25-Pad2)*%
X48750000Y10500000D03*
X51500000Y14250000D03*
%TD*%
D31*
%TO.N,Power_In*%
X96500000Y79025000D02*
X96500000Y77500000D01*
D32*
X35040000Y75500000D02*
X17040000Y93500000D01*
X37500000Y75500000D02*
X35040000Y75500000D01*
X37500000Y75500000D02*
X75500000Y75500000D01*
D31*
%TO.N,Center_tap*%
X96500000Y81975000D02*
X96500000Y83750000D01*
D32*
X37500000Y85500000D02*
X75500000Y85500000D01*
D33*
X78750000Y54500000D02*
X81500000Y57250000D01*
X78750000Y54025000D02*
X78750000Y54500000D01*
%TO.N,GND*%
X14475000Y32025000D02*
X14500000Y32000000D01*
X14475000Y33595000D02*
X14475000Y32025000D01*
X17000000Y35600000D02*
X17000000Y34000000D01*
X20500000Y34550000D02*
X20500000Y32750000D01*
X7000000Y35500000D02*
X7000000Y33750000D01*
D31*
X7750000Y48500000D02*
X2250000Y48500000D01*
X3500000Y48500000D02*
X2250000Y49750000D01*
X7750000Y48500000D02*
X3500000Y48500000D01*
X3500000Y48500000D02*
X2250000Y47250000D01*
D33*
X24500000Y31000000D02*
X24500000Y33000000D01*
X30750000Y35600000D02*
X30750000Y34000000D01*
X33275000Y34865000D02*
X33275000Y36135000D01*
X38225000Y34865000D02*
X38225000Y36135000D01*
X35615000Y36135000D02*
X35615000Y35635000D01*
X38225000Y36135000D02*
X35615000Y36135000D01*
X35615000Y35635000D02*
X35750000Y35500000D01*
X35615000Y36135000D02*
X33275000Y36135000D01*
X35865000Y35385000D02*
X35750000Y35500000D01*
X35865000Y34865000D02*
X35865000Y35385000D01*
X33275000Y34865000D02*
X35865000Y34865000D01*
X35865000Y34865000D02*
X38225000Y34865000D01*
X40115000Y36135000D02*
X40750000Y35500000D01*
X38225000Y36135000D02*
X40115000Y36135000D01*
X40750000Y35500000D02*
X40750000Y34000000D01*
X44250000Y34500000D02*
X44250000Y32750000D01*
D31*
X48750000Y48500000D02*
X50250000Y50000000D01*
X48750000Y48500000D02*
X50250000Y47000000D01*
X50250000Y48500000D02*
X48750000Y48500000D01*
X48750000Y48500000D02*
X43750000Y48500000D01*
D33*
X5750000Y21050000D02*
X5750000Y19250000D01*
X8175000Y19075000D02*
X8250000Y19000000D01*
X8175000Y20595000D02*
X8175000Y19075000D01*
X6205000Y20595000D02*
X5750000Y21050000D01*
X8175000Y20595000D02*
X6205000Y20595000D01*
X27975000Y8025000D02*
X28000000Y8000000D01*
X27975000Y10095000D02*
X27975000Y8025000D01*
X28000000Y8000000D02*
X26500000Y8000000D01*
X21365000Y11365000D02*
X20750000Y10750000D01*
X23025000Y11365000D02*
X21365000Y11365000D01*
X44750000Y8000000D02*
X46500000Y8000000D01*
X60400000Y33750000D02*
X62000000Y33750000D01*
X61975000Y33775000D02*
X62000000Y33750000D01*
X61975000Y35845000D02*
X61975000Y33775000D01*
X25385000Y26365000D02*
X25500000Y26250000D01*
X23025000Y26365000D02*
X25385000Y26365000D01*
X26400000Y23000000D02*
X28250000Y23000000D01*
X42750000Y16000000D02*
X41000000Y16000000D01*
X24500000Y16000000D02*
X22750000Y16000000D01*
X38250000Y8925000D02*
X38250000Y7250000D01*
X58550000Y43450000D02*
X58500000Y43500000D01*
X58550000Y41750000D02*
X58550000Y43450000D01*
X52425000Y23750000D02*
X50750000Y23750000D01*
X58500000Y30250000D02*
X58500000Y32000000D01*
X62850000Y22250000D02*
X63000000Y22400000D01*
X60400000Y22250000D02*
X62850000Y22250000D01*
X55750000Y17950000D02*
X55750000Y16250000D01*
X57100000Y13750000D02*
X55500000Y13750000D01*
X64650000Y22400000D02*
X64750000Y22500000D01*
X63000000Y22400000D02*
X64650000Y22400000D01*
X27975000Y23275000D02*
X28250000Y23000000D01*
X27975000Y25095000D02*
X27975000Y23275000D01*
X61975000Y23425000D02*
X63000000Y22400000D01*
X61975000Y24345000D02*
X61975000Y23425000D01*
X94750000Y5250000D02*
X95750000Y4250000D01*
X77250000Y5250000D02*
X94750000Y5250000D01*
D31*
%TO.N,Net-(C4-Pad1)*%
X22000000Y60250000D02*
X25000000Y60250000D01*
X31250000Y54000000D02*
X31250000Y48500000D01*
X25000000Y60250000D02*
X31250000Y54000000D01*
X38225000Y41525000D02*
X31250000Y48500000D01*
X38225000Y37405000D02*
X38225000Y41525000D01*
X40745000Y37405000D02*
X40750000Y37400000D01*
X38225000Y37405000D02*
X40745000Y37405000D01*
X40800000Y37450000D02*
X40750000Y37400000D01*
X44250000Y37450000D02*
X40800000Y37450000D01*
D33*
%TO.N,+15V*%
X27975000Y29425000D02*
X26400000Y31000000D01*
X27975000Y28905000D02*
X27975000Y29425000D01*
X27975000Y14425000D02*
X26400000Y16000000D01*
X27975000Y13905000D02*
X27975000Y14425000D01*
X46225000Y14425000D02*
X44650000Y16000000D01*
X46225000Y13905000D02*
X46225000Y14425000D01*
X26400000Y33150000D02*
X26400000Y31000000D01*
X30750000Y37500000D02*
X26400000Y33150000D01*
X30845000Y37405000D02*
X30750000Y37500000D01*
X33275000Y37405000D02*
X30845000Y37405000D01*
X5935000Y23135000D02*
X5750000Y22950000D01*
X8175000Y23135000D02*
X5935000Y23135000D01*
X40350010Y17175010D02*
X38250000Y15075000D01*
X43474990Y17175010D02*
X40350010Y17175010D01*
X44650000Y16000000D02*
X43474990Y17175010D01*
X61975000Y40225000D02*
X60450000Y41750000D01*
X61975000Y39655000D02*
X61975000Y40225000D01*
X61975000Y28675000D02*
X60400000Y30250000D01*
X61975000Y28155000D02*
X61975000Y28675000D01*
X28950000Y28905000D02*
X30000000Y27855000D01*
X27975000Y28905000D02*
X28950000Y28905000D01*
X30000000Y19600000D02*
X26400000Y16000000D01*
X30000000Y27855000D02*
X30000000Y19600000D01*
X35650000Y19600000D02*
X36500000Y18750000D01*
X30000000Y19600000D02*
X35650000Y19600000D01*
X38250000Y17000000D02*
X38250000Y15075000D01*
X5750000Y25500000D02*
X9000000Y28750000D01*
X5750000Y22950000D02*
X5750000Y25500000D01*
X25699999Y33850001D02*
X26400000Y33150000D01*
X24091999Y33850001D02*
X25699999Y33850001D01*
X22141997Y31899999D02*
X24091999Y33850001D01*
X15658001Y31899999D02*
X22141997Y31899999D01*
X14258002Y30500000D02*
X15658001Y31899999D01*
X10750000Y30500000D02*
X14258002Y30500000D01*
X70345000Y39655000D02*
X70500000Y39500000D01*
X61975000Y39655000D02*
X70345000Y39655000D01*
X74500000Y39500000D02*
X78250000Y35750000D01*
X72500000Y39500000D02*
X74500000Y39500000D01*
X60400000Y30250000D02*
X62000000Y30250000D01*
X27150000Y30250000D02*
X26400000Y31000000D01*
X46750000Y30250000D02*
X27150000Y30250000D01*
X46750000Y37010002D02*
X46750000Y30250000D01*
X56039999Y46300001D02*
X46750000Y37010002D01*
X58660001Y46300001D02*
X56039999Y46300001D01*
X59951171Y45008831D02*
X58660001Y46300001D01*
X59951171Y42248829D02*
X59951171Y45008831D01*
X60450000Y41750000D02*
X59951171Y42248829D01*
D31*
%TO.N,Net-(C12-Pad2)*%
X20250000Y48500000D02*
X20250000Y57000000D01*
X20500000Y48250000D02*
X20250000Y48500000D01*
X20500000Y37500000D02*
X20500000Y48250000D01*
X17000000Y37500000D02*
X20500000Y37500000D01*
D34*
X15635000Y36135000D02*
X17000000Y37500000D01*
X14475000Y36135000D02*
X15635000Y36135000D01*
D33*
X9525000Y34865000D02*
X9525000Y36135000D01*
X14475000Y36135000D02*
X9525000Y36135000D01*
X14475000Y34865000D02*
X14475000Y36135000D01*
X14475000Y34865000D02*
X9525000Y34865000D01*
D31*
X19250000Y58000000D02*
X20250000Y57000000D01*
X19250000Y60250000D02*
X19250000Y58000000D01*
D33*
%TO.N,-15V*%
X7005000Y37405000D02*
X7000000Y37400000D01*
X9525000Y37405000D02*
X7005000Y37405000D01*
X23025000Y24475000D02*
X24500000Y23000000D01*
X23025000Y25095000D02*
X23025000Y24475000D01*
X23025000Y9575000D02*
X24600000Y8000000D01*
X23025000Y10095000D02*
X23025000Y9575000D01*
X41275000Y9575000D02*
X42850000Y8000000D01*
X41275000Y10095000D02*
X41275000Y9575000D01*
X57025000Y35225000D02*
X58500000Y33750000D01*
X57025000Y35845000D02*
X57025000Y35225000D01*
X57025000Y23725000D02*
X58500000Y22250000D01*
X57025000Y24345000D02*
X57025000Y23725000D01*
X12741998Y26750000D02*
X17000000Y26750000D01*
X5824990Y33667008D02*
X12741998Y26750000D01*
X5824990Y36224990D02*
X5824990Y33667008D01*
X7000000Y37400000D02*
X5824990Y36224990D01*
X22750000Y24820000D02*
X23025000Y25095000D01*
X22750000Y23000000D02*
X22750000Y24820000D01*
X21000000Y21250000D02*
X21000000Y15000000D01*
X22750000Y23000000D02*
X21000000Y21250000D01*
X23000000Y10070000D02*
X23025000Y10095000D01*
X23000000Y8250000D02*
X23000000Y10070000D01*
X32850001Y6399999D02*
X32750000Y6500000D01*
X41249999Y6399999D02*
X32850001Y6399999D01*
X42850000Y8000000D02*
X41249999Y6399999D01*
X24785034Y8000000D02*
X24600000Y8000000D01*
X26285034Y6500000D02*
X24785034Y8000000D01*
X30250000Y6500000D02*
X26285034Y6500000D01*
X58500000Y33258002D02*
X58500000Y33750000D01*
X59508002Y32250000D02*
X58500000Y33258002D01*
X66750000Y32250000D02*
X59508002Y32250000D01*
X66750000Y26750000D02*
X64250000Y24250000D01*
X66750000Y32250000D02*
X66750000Y26750000D01*
X57120000Y24250000D02*
X57025000Y24345000D01*
X59500000Y24250000D02*
X57120000Y24250000D01*
X11370000Y39250000D02*
X19000000Y39250000D01*
X9525000Y37405000D02*
X11370000Y39250000D01*
X22000000Y39250000D02*
X36750000Y39250000D01*
X39750000Y39250000D02*
X47250000Y39250000D01*
D35*
X57500000Y32750000D02*
X58500000Y33750000D01*
X51000000Y32750000D02*
X57500000Y32750000D01*
D33*
%TO.N,Net-(C20-Pad2)*%
X51000000Y36100000D02*
X54000000Y36100000D01*
X55015000Y37115000D02*
X57025000Y37115000D01*
X54000000Y36100000D02*
X55015000Y37115000D01*
X57578544Y37115000D02*
X57025000Y37115000D01*
X58848544Y38385000D02*
X57578544Y37115000D01*
X61975000Y38385000D02*
X58848544Y38385000D01*
X65075000Y38650000D02*
X65000000Y38575000D01*
X67750000Y38650000D02*
X65075000Y38650000D01*
X64810000Y38385000D02*
X65000000Y38575000D01*
X61975000Y38385000D02*
X64810000Y38385000D01*
%TO.N,Net-(C20-Pad1)*%
X64635000Y37115000D02*
X65000000Y36750000D01*
X61975000Y37115000D02*
X64635000Y37115000D01*
X67750000Y36750000D02*
X65000000Y36750000D01*
X64750000Y36500000D02*
X65000000Y36750000D01*
X64750000Y34250000D02*
X64750000Y36500000D01*
%TO.N,Net-(C21-Pad1)*%
X89450000Y53000000D02*
X87950000Y54500000D01*
X90137500Y53000000D02*
X89450000Y53000000D01*
X89362500Y53000000D02*
X87862500Y51500000D01*
X90137500Y53000000D02*
X89362500Y53000000D01*
X87862500Y49362500D02*
X87000000Y48500000D01*
X87862500Y51500000D02*
X87862500Y49362500D01*
%TO.N,Feedback_control*%
X86050000Y51512500D02*
X86037500Y51500000D01*
X86050000Y54500000D02*
X86050000Y51512500D01*
X86137500Y24362500D02*
X86000000Y24500000D01*
X86137500Y21500000D02*
X86137500Y24362500D01*
D34*
X87162490Y26298900D02*
X86000000Y25136410D01*
X86000000Y25136410D02*
X86000000Y24500000D01*
X87162490Y37249990D02*
X87162490Y26298900D01*
X87912500Y38000000D02*
X87162490Y37249990D01*
X86037500Y47947502D02*
X87224999Y46760003D01*
X86037500Y51500000D02*
X86037500Y47947502D01*
X61000000Y45100000D02*
X61150000Y45250000D01*
X61150000Y45250000D02*
X67400000Y51500000D01*
X82485002Y51500000D02*
X86037500Y47947502D01*
X67400000Y51500000D02*
X82485002Y51500000D01*
X87912500Y38000000D02*
X87912500Y38412500D01*
X87912500Y38412500D02*
X88300000Y38800000D01*
X88300000Y38800000D02*
X88300000Y45200000D01*
X87224999Y45789999D02*
X87224999Y46760003D01*
X87814998Y45200000D02*
X87224999Y45789999D01*
X88300000Y45200000D02*
X87814998Y45200000D01*
D33*
X61150000Y43100000D02*
X62500000Y41750000D01*
X61150000Y45250000D02*
X61150000Y43100000D01*
X54250000Y34750000D02*
X54250000Y33800000D01*
X54250000Y33800000D02*
X54100000Y33650000D01*
X54100000Y33650000D02*
X55750000Y33650000D01*
X52750000Y33650000D02*
X54100000Y33650000D01*
%TO.N,Net-(C22-Pad1)*%
X54000000Y39400000D02*
X51000000Y39400000D01*
X54600000Y40000000D02*
X54000000Y39400000D01*
X54600000Y41750000D02*
X54600000Y40000000D01*
X55015000Y38385000D02*
X54000000Y39400000D01*
X57025000Y38385000D02*
X55015000Y38385000D01*
X51000000Y39400000D02*
X50650000Y39400000D01*
X50650000Y38485034D02*
X48000000Y35835034D01*
X50650000Y39400000D02*
X50650000Y38485034D01*
X48000000Y28500000D02*
X35000000Y15500000D01*
X35000000Y15500000D02*
X32900000Y15500000D01*
X48000000Y35835034D02*
X48000000Y28500000D01*
%TO.N,CC_flag*%
X56500000Y43900000D02*
X56500000Y41750000D01*
X57850000Y45250000D02*
X56500000Y43900000D01*
X56500000Y40180000D02*
X57025000Y39655000D01*
X56500000Y41750000D02*
X56500000Y40180000D01*
D34*
X44405000Y10095000D02*
X44250000Y10250000D01*
X46225000Y10095000D02*
X44405000Y10095000D01*
X47000000Y20000000D02*
X44250000Y22750000D01*
X44000000Y26500000D02*
X44000000Y29000000D01*
X42250000Y24750000D02*
X44000000Y26500000D01*
X49250000Y41500000D02*
X51500000Y43750000D01*
X45000000Y41500000D02*
X49250000Y41500000D01*
X56350000Y43750000D02*
X56500000Y43900000D01*
X55250000Y43750000D02*
X56350000Y43750000D01*
D33*
%TO.N,Net-(C25-Pad1)*%
X87962500Y18962500D02*
X87000000Y18000000D01*
X87962500Y21500000D02*
X87962500Y18962500D01*
X89462500Y23000000D02*
X87962500Y21500000D01*
X90137500Y23000000D02*
X89462500Y23000000D01*
X89400000Y23000000D02*
X87900000Y24500000D01*
X90137500Y23000000D02*
X89400000Y23000000D01*
%TO.N,Net-(C26-Pad1)*%
X49550000Y26537500D02*
X49587500Y26500000D01*
X49550000Y29250000D02*
X49550000Y26537500D01*
%TO.N,CV_flag*%
X52750000Y30550000D02*
X51450000Y29250000D01*
X52750000Y31750000D02*
X52750000Y30550000D01*
X54150000Y30350000D02*
X52750000Y31750000D01*
X55750000Y30350000D02*
X54150000Y30350000D01*
X57025000Y29075000D02*
X55750000Y30350000D01*
X57025000Y28155000D02*
X57025000Y29075000D01*
X54095000Y28155000D02*
X54000000Y28250000D01*
X57025000Y28155000D02*
X54095000Y28155000D01*
X53000000Y29250000D02*
X54000000Y28250000D01*
X51450000Y29250000D02*
X53000000Y29250000D01*
D34*
X59345000Y28155000D02*
X59500000Y28000000D01*
X57025000Y28155000D02*
X59345000Y28155000D01*
X48000000Y17250000D02*
X46750000Y16000000D01*
X48000000Y25000000D02*
X48000000Y17250000D01*
X42635000Y11365000D02*
X41275000Y11365000D01*
X42635000Y10865000D02*
X43250000Y10250000D01*
X42635000Y11365000D02*
X42635000Y10865000D01*
D33*
%TO.N,Net-(C27-Pad1)*%
X53850000Y26500000D02*
X54000000Y26350000D01*
X51412500Y26500000D02*
X53850000Y26500000D01*
X54250000Y26100000D02*
X54000000Y26350000D01*
X54250000Y23750000D02*
X54250000Y26100000D01*
X54535000Y26885000D02*
X54000000Y26350000D01*
X57025000Y26885000D02*
X54535000Y26885000D01*
%TO.N,Net-(C28-Pad2)*%
X61575000Y18000000D02*
X60325000Y16750000D01*
X62750000Y18000000D02*
X61575000Y18000000D01*
X61900000Y15250000D02*
X60400000Y13750000D01*
X62750000Y15250000D02*
X61900000Y15250000D01*
X60325000Y19500000D02*
X60325000Y16750000D01*
X60325000Y13825000D02*
X60400000Y13750000D01*
X60325000Y16750000D02*
X60325000Y13825000D01*
X62750000Y15250000D02*
X62750000Y18000000D01*
X61325000Y20500000D02*
X60325000Y19500000D01*
X63000000Y20500000D02*
X61325000Y20500000D01*
X62750000Y20250000D02*
X63000000Y20500000D01*
X62750000Y18000000D02*
X62750000Y20250000D01*
D36*
%TO.N,Net-(D1-Pad1)*%
X13235000Y84975000D02*
X13235000Y92339990D01*
X6000000Y77740000D02*
X13235000Y84975000D01*
%TO.N,Net-(D1-Pad2)*%
X11155076Y94540000D02*
X13235000Y94540000D01*
X6000000Y89384924D02*
X11155076Y94540000D01*
X6000000Y87900000D02*
X6000000Y89384924D01*
D31*
%TO.N,Net-(D2-Pad2)*%
X12890000Y72660000D02*
X22000000Y63550000D01*
X6000000Y72660000D02*
X12890000Y72660000D01*
%TO.N,Net-(D3-Pad2)*%
X7050000Y63550000D02*
X6000000Y62500000D01*
X17000000Y63550000D02*
X7050000Y63550000D01*
X17000000Y63550000D02*
X19250000Y63550000D01*
D34*
%TO.N,Net-(D7-Pad2)*%
X52750000Y7040000D02*
X51750000Y6040000D01*
X52750000Y10000000D02*
X52750000Y7040000D01*
%TO.N,Net-(D8-Pad2)*%
X59500000Y7040000D02*
X58500000Y6040000D01*
X59500000Y10000000D02*
X59500000Y7040000D01*
D33*
%TO.N,Net-(Q1-Pad1)*%
X92012500Y52950000D02*
X91962500Y53000000D01*
X97000000Y52950000D02*
X92012500Y52950000D01*
%TO.N,Series_pass_out*%
X86050000Y42012500D02*
X86037500Y42000000D01*
X86050000Y46500000D02*
X86050000Y42012500D01*
X86050000Y12012500D02*
X86037500Y12000000D01*
X86050000Y16000000D02*
X86050000Y12012500D01*
X71500000Y41750000D02*
X78750000Y49000000D01*
X71500000Y33500000D02*
X71500000Y41750000D01*
%TO.N,Net-(Q3-Pad1)*%
X92012500Y22950000D02*
X91962500Y23000000D01*
X97000000Y22950000D02*
X92012500Y22950000D01*
%TO.N,Net-(R1-Pad1)*%
X20952500Y27635000D02*
X20500000Y28087500D01*
X23025000Y27635000D02*
X20952500Y27635000D01*
X20500000Y27182500D02*
X20952500Y27635000D01*
X20500000Y25962500D02*
X20500000Y27182500D01*
%TO.N,-5.000V*%
X22017500Y29912500D02*
X23025000Y28905000D01*
X20500000Y29912500D02*
X22017500Y29912500D01*
X18250000Y27662500D02*
X18250000Y25250000D01*
X20500000Y29912500D02*
X18250000Y27662500D01*
X18250000Y23250000D02*
X18250000Y15000000D01*
X18250000Y12387500D02*
X18137500Y12500000D01*
X18250000Y10750000D02*
X18250000Y12387500D01*
%TO.N,5.000V*%
X14365000Y21865000D02*
X13325000Y21865000D01*
X16637500Y24137500D02*
X14365000Y21865000D01*
X20500000Y24137500D02*
X16637500Y24137500D01*
X7170000Y16585000D02*
X7170000Y15500000D01*
X12450000Y21865000D02*
X7170000Y16585000D01*
X13325000Y21865000D02*
X12450000Y21865000D01*
X19750000Y23387500D02*
X19750000Y18750000D01*
X20500000Y24137500D02*
X19750000Y23387500D01*
X34750000Y12500000D02*
X32862500Y12500000D01*
%TO.N,Net-(R3-Pad1)*%
X13420000Y20500000D02*
X13325000Y20595000D01*
X16250000Y20500000D02*
X13420000Y20500000D01*
%TO.N,Net-(R3-Pad2)*%
X12885000Y18675000D02*
X16250000Y18675000D01*
X9710000Y15500000D02*
X12885000Y18675000D01*
%TO.N,Net-(R4-Pad2)*%
X20097500Y12635000D02*
X19962500Y12500000D01*
X23025000Y12635000D02*
X20097500Y12635000D01*
X19899999Y3640001D02*
X20040000Y3500000D01*
X19899999Y12437499D02*
X19899999Y3640001D01*
X19962500Y12500000D02*
X19899999Y12437499D01*
X22580000Y3500000D02*
X20040000Y3500000D01*
%TO.N,Net-(R5-Pad2)*%
X29902500Y11365000D02*
X27975000Y11365000D01*
X31037500Y12500000D02*
X29902500Y11365000D01*
X31540000Y9727500D02*
X29902500Y11365000D01*
X31540000Y3500000D02*
X31540000Y9727500D01*
X34080000Y3500000D02*
X31540000Y3500000D01*
%TO.N,I_sense-*%
X67325000Y33500000D02*
X66575000Y34250000D01*
X69450000Y33500000D02*
X67325000Y33500000D01*
%TO.N,Iset*%
X31000000Y14775000D02*
X28860000Y12635000D01*
X28860000Y12635000D02*
X27975000Y12635000D01*
X31000000Y15500000D02*
X31000000Y14775000D01*
X25750000Y10963544D02*
X27421456Y12635000D01*
X27421456Y12635000D02*
X27975000Y12635000D01*
X25750000Y10000000D02*
X25750000Y10963544D01*
D34*
%TO.N,Net-(R16-Pad1)*%
X48290000Y12635000D02*
X50925000Y10000000D01*
X46225000Y12635000D02*
X48290000Y12635000D01*
D33*
%TO.N,Net-(R17-Pad2)*%
X38250000Y13250000D02*
X38250000Y10750000D01*
X38865000Y12635000D02*
X38250000Y13250000D01*
X41275000Y12635000D02*
X38865000Y12635000D01*
X41275000Y12635000D02*
X43115000Y12635000D01*
X44385000Y11365000D02*
X46225000Y11365000D01*
X43115000Y12635000D02*
X44385000Y11365000D01*
D34*
%TO.N,Net-(R20-Pad1)*%
X41919990Y13260010D02*
X54414990Y13260010D01*
X54414990Y13260010D02*
X57675000Y10000000D01*
X41275000Y13905000D02*
X41919990Y13260010D01*
D33*
%TO.N,Net-(R25-Pad2)*%
X48750000Y8991998D02*
X48750000Y10500000D01*
X43258002Y3500000D02*
X48750000Y8991998D01*
X43040000Y3500000D02*
X43258002Y3500000D01*
X57149999Y15399999D02*
X58500000Y16750000D01*
X52649999Y15399999D02*
X57149999Y15399999D01*
X51500000Y14250000D02*
X52649999Y15399999D01*
%TO.N,Vset*%
X40500000Y3500000D02*
X38500000Y1500000D01*
X19500000Y1500000D02*
X17500000Y3500000D01*
X38500000Y1500000D02*
X19500000Y1500000D01*
X17174990Y3825010D02*
X17500000Y3500000D01*
X17174990Y13239956D02*
X17174990Y3825010D01*
X17840034Y13905000D02*
X17174990Y13239956D01*
X23025000Y13905000D02*
X17840034Y13905000D01*
%TO.N,Net-(D10-Pad1)*%
X57500000Y19500000D02*
X55750000Y21250000D01*
X58500000Y19500000D02*
X57500000Y19500000D01*
X55599990Y21400010D02*
X55750000Y21250000D01*
X55599990Y25164990D02*
X55599990Y21400010D01*
X56050000Y25615000D02*
X55599990Y25164990D01*
X57025000Y25615000D02*
X56050000Y25615000D01*
D34*
%TO.N,Net-(Q2-Pad2)*%
X87564998Y16000000D02*
X87950000Y16000000D01*
X86274999Y17289999D02*
X87564998Y16000000D01*
X86274999Y18710001D02*
X86274999Y17289999D01*
X87074990Y19509992D02*
X86274999Y18710001D01*
X88750010Y45699990D02*
X87950000Y46500000D01*
X88750010Y31750010D02*
X88750010Y45699990D01*
X87074990Y25574990D02*
X87074990Y19509992D01*
X88000000Y26500000D02*
X87074990Y25574990D01*
X88750010Y31750010D02*
X88000000Y31000000D01*
X88000000Y28000000D02*
X88000000Y31000000D01*
X88000000Y26500000D02*
X88000000Y28000000D01*
%TO.N,Net-(H5-Pad1)*%
X86175000Y32825000D02*
X85750000Y33250000D01*
X86175000Y31000000D02*
X86175000Y32825000D01*
%TO.N,Net-(H7-Pad1)*%
X86087500Y36087500D02*
X85750000Y35750000D01*
X86087500Y38000000D02*
X86087500Y36087500D01*
D33*
%TO.N,Net-(U2-Pad6)*%
X27975000Y27635000D02*
X27975000Y26365000D01*
%TO.N,Net-(U7-Pad6)*%
X61975000Y26885000D02*
X61975000Y25615000D01*
%TD*%
D37*
%TO.N,Net-(Q1-Pad3)*%
X99340000Y40127000D02*
X91127000Y40127000D01*
X91127000Y43873000D01*
X99340000Y43873000D01*
X99340000Y40127000D01*
%TA.AperFunction,Conductor*%
D38*
G36*
X99340000Y40127000D02*
G01*
X91127000Y40127000D01*
X91127000Y43873000D01*
X99340000Y43873000D01*
X99340000Y40127000D01*
G37*
%TD.AperFunction*%
%TD*%
D37*
%TO.N,Net-(Q3-Pad3)*%
X99340000Y10127000D02*
X91127000Y10127000D01*
X91127000Y13873000D01*
X99340000Y13873000D01*
X99340000Y10127000D01*
%TA.AperFunction,Conductor*%
D38*
G36*
X99340000Y10127000D02*
G01*
X91127000Y10127000D01*
X91127000Y13873000D01*
X99340000Y13873000D01*
X99340000Y10127000D01*
G37*
%TD.AperFunction*%
%TD*%
D37*
%TO.N,Series_pass_out*%
X86873000Y40127000D02*
X84500000Y40127000D01*
X84475224Y40124560D01*
X84451399Y40117333D01*
X84429443Y40105597D01*
X84410197Y40089803D01*
X84394403Y40070557D01*
X84382667Y40048601D01*
X84375440Y40024776D01*
X84373000Y40000000D01*
X84373000Y36612420D01*
X84361928Y36500000D01*
X84361928Y35000000D01*
X84373000Y34887580D01*
X84373000Y34112420D01*
X84361928Y34000000D01*
X84361928Y32500000D01*
X84373000Y32387580D01*
X84373000Y14000000D01*
X84375440Y13975224D01*
X84382667Y13951399D01*
X84394403Y13929443D01*
X84410197Y13910197D01*
X84429443Y13894403D01*
X84451399Y13882667D01*
X84475224Y13875440D01*
X84500000Y13873000D01*
X86873000Y13873000D01*
X86873000Y10127000D01*
X80127000Y10127000D01*
X80127000Y43873000D01*
X86873000Y43873000D01*
X86873000Y40127000D01*
%TA.AperFunction,Conductor*%
D38*
G36*
X86873000Y40127000D02*
G01*
X84500000Y40127000D01*
X84475224Y40124560D01*
X84451399Y40117333D01*
X84429443Y40105597D01*
X84410197Y40089803D01*
X84394403Y40070557D01*
X84382667Y40048601D01*
X84375440Y40024776D01*
X84373000Y40000000D01*
X84373000Y36612420D01*
X84361928Y36500000D01*
X84361928Y35000000D01*
X84373000Y34887580D01*
X84373000Y34112420D01*
X84361928Y34000000D01*
X84361928Y32500000D01*
X84373000Y32387580D01*
X84373000Y14000000D01*
X84375440Y13975224D01*
X84382667Y13951399D01*
X84394403Y13929443D01*
X84410197Y13910197D01*
X84429443Y13894403D01*
X84451399Y13882667D01*
X84475224Y13875440D01*
X84500000Y13873000D01*
X86873000Y13873000D01*
X86873000Y10127000D01*
X80127000Y10127000D01*
X80127000Y43873000D01*
X86873000Y43873000D01*
X86873000Y40127000D01*
G37*
%TD.AperFunction*%
%TD*%
D37*
%TO.N,Series_pass_out*%
X76861928Y35000000D02*
X76873000Y34887580D01*
X76873000Y34112420D01*
X76861928Y34000000D01*
X76861928Y32500000D01*
X76873000Y32387580D01*
X76873000Y29000000D01*
X76875440Y28975224D01*
X76882667Y28951399D01*
X76894403Y28929443D01*
X76910197Y28910197D01*
X76929443Y28894403D01*
X76951399Y28882667D01*
X76975224Y28875440D01*
X77000000Y28873000D01*
X84373000Y28873000D01*
X84373000Y25127000D01*
X72877000Y25127000D01*
X72877000Y28072020D01*
X72900812Y28150518D01*
X72913072Y28275000D01*
X72913072Y30825000D01*
X72900812Y30949482D01*
X72877000Y31027980D01*
X72877000Y31750000D01*
X72874560Y31774776D01*
X72867333Y31798601D01*
X72855597Y31820557D01*
X72839803Y31839803D01*
X72820557Y31855597D01*
X72798601Y31867333D01*
X72774776Y31874560D01*
X72750000Y31877000D01*
X70759008Y31877000D01*
X70814502Y31980820D01*
X70850812Y32100518D01*
X70863072Y32225000D01*
X70863072Y34775000D01*
X70850812Y34899482D01*
X70814502Y35019180D01*
X70759008Y35123000D01*
X76861928Y35123000D01*
X76861928Y35000000D01*
%TA.AperFunction,Conductor*%
D38*
G36*
X76861928Y35000000D02*
G01*
X76873000Y34887580D01*
X76873000Y34112420D01*
X76861928Y34000000D01*
X76861928Y32500000D01*
X76873000Y32387580D01*
X76873000Y29000000D01*
X76875440Y28975224D01*
X76882667Y28951399D01*
X76894403Y28929443D01*
X76910197Y28910197D01*
X76929443Y28894403D01*
X76951399Y28882667D01*
X76975224Y28875440D01*
X77000000Y28873000D01*
X84373000Y28873000D01*
X84373000Y25127000D01*
X72877000Y25127000D01*
X72877000Y28072020D01*
X72900812Y28150518D01*
X72913072Y28275000D01*
X72913072Y30825000D01*
X72900812Y30949482D01*
X72877000Y31027980D01*
X72877000Y31750000D01*
X72874560Y31774776D01*
X72867333Y31798601D01*
X72855597Y31820557D01*
X72839803Y31839803D01*
X72820557Y31855597D01*
X72798601Y31867333D01*
X72774776Y31874560D01*
X72750000Y31877000D01*
X70759008Y31877000D01*
X70814502Y31980820D01*
X70850812Y32100518D01*
X70863072Y32225000D01*
X70863072Y34775000D01*
X70850812Y34899482D01*
X70814502Y35019180D01*
X70759008Y35123000D01*
X76861928Y35123000D01*
X76861928Y35000000D01*
G37*
%TD.AperFunction*%
%TD*%
D37*
%TO.N,GND*%
X72123000Y24500000D02*
X72125440Y24475224D01*
X72132667Y24451399D01*
X72144403Y24429443D01*
X72160197Y24410197D01*
X72179443Y24394403D01*
X72201399Y24382667D01*
X72225224Y24375440D01*
X72250000Y24373000D01*
X79373000Y24373000D01*
X79373000Y4877000D01*
X69127000Y4877000D01*
X69127000Y9851939D01*
X69465000Y9851939D01*
X69465000Y9648061D01*
X69504774Y9448102D01*
X69582795Y9259744D01*
X69696063Y9090226D01*
X69840226Y8946063D01*
X70009744Y8832795D01*
X70198102Y8754774D01*
X70398061Y8715000D01*
X70601939Y8715000D01*
X70801898Y8754774D01*
X70990256Y8832795D01*
X71159774Y8946063D01*
X71303937Y9090226D01*
X71417205Y9259744D01*
X71495226Y9448102D01*
X71535000Y9648061D01*
X71535000Y9851939D01*
X71495226Y10051898D01*
X71417205Y10240256D01*
X71303937Y10409774D01*
X71159774Y10553937D01*
X70990256Y10667205D01*
X70801898Y10745226D01*
X70601939Y10785000D01*
X70398061Y10785000D01*
X70198102Y10745226D01*
X70009744Y10667205D01*
X69840226Y10553937D01*
X69696063Y10409774D01*
X69582795Y10240256D01*
X69504774Y10051898D01*
X69465000Y9851939D01*
X69127000Y9851939D01*
X69127000Y14351939D01*
X69465000Y14351939D01*
X69465000Y14148061D01*
X69504774Y13948102D01*
X69582795Y13759744D01*
X69696063Y13590226D01*
X69840226Y13446063D01*
X70009744Y13332795D01*
X70198102Y13254774D01*
X70398061Y13215000D01*
X70601939Y13215000D01*
X70801898Y13254774D01*
X70990256Y13332795D01*
X71159774Y13446063D01*
X71303937Y13590226D01*
X71417205Y13759744D01*
X71495226Y13948102D01*
X71535000Y14148061D01*
X71535000Y14351939D01*
X71495226Y14551898D01*
X71417205Y14740256D01*
X71303937Y14909774D01*
X71159774Y15053937D01*
X70990256Y15167205D01*
X70801898Y15245226D01*
X70601939Y15285000D01*
X70398061Y15285000D01*
X70198102Y15245226D01*
X70009744Y15167205D01*
X69840226Y15053937D01*
X69696063Y14909774D01*
X69582795Y14740256D01*
X69504774Y14551898D01*
X69465000Y14351939D01*
X69127000Y14351939D01*
X69127000Y16601939D01*
X73965000Y16601939D01*
X73965000Y16398061D01*
X74004774Y16198102D01*
X74082795Y16009744D01*
X74196063Y15840226D01*
X74340226Y15696063D01*
X74509744Y15582795D01*
X74698102Y15504774D01*
X74898061Y15465000D01*
X75101939Y15465000D01*
X75301898Y15504774D01*
X75490256Y15582795D01*
X75659774Y15696063D01*
X75803937Y15840226D01*
X75917205Y16009744D01*
X75995226Y16198102D01*
X76035000Y16398061D01*
X76035000Y16601939D01*
X76215000Y16601939D01*
X76215000Y16398061D01*
X76254774Y16198102D01*
X76332795Y16009744D01*
X76446063Y15840226D01*
X76590226Y15696063D01*
X76759744Y15582795D01*
X76948102Y15504774D01*
X77148061Y15465000D01*
X77351939Y15465000D01*
X77551898Y15504774D01*
X77740256Y15582795D01*
X77909774Y15696063D01*
X78053937Y15840226D01*
X78167205Y16009744D01*
X78245226Y16198102D01*
X78285000Y16398061D01*
X78285000Y16601939D01*
X78245226Y16801898D01*
X78167205Y16990256D01*
X78053937Y17159774D01*
X77909774Y17303937D01*
X77740256Y17417205D01*
X77551898Y17495226D01*
X77351939Y17535000D01*
X77148061Y17535000D01*
X76948102Y17495226D01*
X76759744Y17417205D01*
X76590226Y17303937D01*
X76446063Y17159774D01*
X76332795Y16990256D01*
X76254774Y16801898D01*
X76215000Y16601939D01*
X76035000Y16601939D01*
X75995226Y16801898D01*
X75917205Y16990256D01*
X75803937Y17159774D01*
X75659774Y17303937D01*
X75490256Y17417205D01*
X75301898Y17495226D01*
X75101939Y17535000D01*
X74898061Y17535000D01*
X74698102Y17495226D01*
X74509744Y17417205D01*
X74340226Y17303937D01*
X74196063Y17159774D01*
X74082795Y16990256D01*
X74004774Y16801898D01*
X73965000Y16601939D01*
X69127000Y16601939D01*
X69127000Y17123000D01*
X71000000Y17123000D01*
X71024776Y17125440D01*
X71048601Y17132667D01*
X71070557Y17144403D01*
X71089803Y17160197D01*
X71105597Y17179443D01*
X71117333Y17201399D01*
X71124560Y17225224D01*
X71127000Y17250000D01*
X71127000Y18637584D01*
X71138072Y18750000D01*
X71138072Y20750000D01*
X71127000Y20862416D01*
X71127000Y22250000D01*
X71124560Y22274776D01*
X71117333Y22298601D01*
X71105597Y22320557D01*
X71089803Y22339803D01*
X71070557Y22355597D01*
X71048601Y22367333D01*
X71024776Y22374560D01*
X71000000Y22377000D01*
X68877000Y22377000D01*
X68877000Y31123000D01*
X72123000Y31123000D01*
X72123000Y24500000D01*
%TA.AperFunction,Conductor*%
D38*
G36*
X72123000Y24500000D02*
G01*
X72125440Y24475224D01*
X72132667Y24451399D01*
X72144403Y24429443D01*
X72160197Y24410197D01*
X72179443Y24394403D01*
X72201399Y24382667D01*
X72225224Y24375440D01*
X72250000Y24373000D01*
X79373000Y24373000D01*
X79373000Y4877000D01*
X69127000Y4877000D01*
X69127000Y9851939D01*
X69465000Y9851939D01*
X69465000Y9648061D01*
X69504774Y9448102D01*
X69582795Y9259744D01*
X69696063Y9090226D01*
X69840226Y8946063D01*
X70009744Y8832795D01*
X70198102Y8754774D01*
X70398061Y8715000D01*
X70601939Y8715000D01*
X70801898Y8754774D01*
X70990256Y8832795D01*
X71159774Y8946063D01*
X71303937Y9090226D01*
X71417205Y9259744D01*
X71495226Y9448102D01*
X71535000Y9648061D01*
X71535000Y9851939D01*
X71495226Y10051898D01*
X71417205Y10240256D01*
X71303937Y10409774D01*
X71159774Y10553937D01*
X70990256Y10667205D01*
X70801898Y10745226D01*
X70601939Y10785000D01*
X70398061Y10785000D01*
X70198102Y10745226D01*
X70009744Y10667205D01*
X69840226Y10553937D01*
X69696063Y10409774D01*
X69582795Y10240256D01*
X69504774Y10051898D01*
X69465000Y9851939D01*
X69127000Y9851939D01*
X69127000Y14351939D01*
X69465000Y14351939D01*
X69465000Y14148061D01*
X69504774Y13948102D01*
X69582795Y13759744D01*
X69696063Y13590226D01*
X69840226Y13446063D01*
X70009744Y13332795D01*
X70198102Y13254774D01*
X70398061Y13215000D01*
X70601939Y13215000D01*
X70801898Y13254774D01*
X70990256Y13332795D01*
X71159774Y13446063D01*
X71303937Y13590226D01*
X71417205Y13759744D01*
X71495226Y13948102D01*
X71535000Y14148061D01*
X71535000Y14351939D01*
X71495226Y14551898D01*
X71417205Y14740256D01*
X71303937Y14909774D01*
X71159774Y15053937D01*
X70990256Y15167205D01*
X70801898Y15245226D01*
X70601939Y15285000D01*
X70398061Y15285000D01*
X70198102Y15245226D01*
X70009744Y15167205D01*
X69840226Y15053937D01*
X69696063Y14909774D01*
X69582795Y14740256D01*
X69504774Y14551898D01*
X69465000Y14351939D01*
X69127000Y14351939D01*
X69127000Y16601939D01*
X73965000Y16601939D01*
X73965000Y16398061D01*
X74004774Y16198102D01*
X74082795Y16009744D01*
X74196063Y15840226D01*
X74340226Y15696063D01*
X74509744Y15582795D01*
X74698102Y15504774D01*
X74898061Y15465000D01*
X75101939Y15465000D01*
X75301898Y15504774D01*
X75490256Y15582795D01*
X75659774Y15696063D01*
X75803937Y15840226D01*
X75917205Y16009744D01*
X75995226Y16198102D01*
X76035000Y16398061D01*
X76035000Y16601939D01*
X76215000Y16601939D01*
X76215000Y16398061D01*
X76254774Y16198102D01*
X76332795Y16009744D01*
X76446063Y15840226D01*
X76590226Y15696063D01*
X76759744Y15582795D01*
X76948102Y15504774D01*
X77148061Y15465000D01*
X77351939Y15465000D01*
X77551898Y15504774D01*
X77740256Y15582795D01*
X77909774Y15696063D01*
X78053937Y15840226D01*
X78167205Y16009744D01*
X78245226Y16198102D01*
X78285000Y16398061D01*
X78285000Y16601939D01*
X78245226Y16801898D01*
X78167205Y16990256D01*
X78053937Y17159774D01*
X77909774Y17303937D01*
X77740256Y17417205D01*
X77551898Y17495226D01*
X77351939Y17535000D01*
X77148061Y17535000D01*
X76948102Y17495226D01*
X76759744Y17417205D01*
X76590226Y17303937D01*
X76446063Y17159774D01*
X76332795Y16990256D01*
X76254774Y16801898D01*
X76215000Y16601939D01*
X76035000Y16601939D01*
X75995226Y16801898D01*
X75917205Y16990256D01*
X75803937Y17159774D01*
X75659774Y17303937D01*
X75490256Y17417205D01*
X75301898Y17495226D01*
X75101939Y17535000D01*
X74898061Y17535000D01*
X74698102Y17495226D01*
X74509744Y17417205D01*
X74340226Y17303937D01*
X74196063Y17159774D01*
X74082795Y16990256D01*
X74004774Y16801898D01*
X73965000Y16601939D01*
X69127000Y16601939D01*
X69127000Y17123000D01*
X71000000Y17123000D01*
X71024776Y17125440D01*
X71048601Y17132667D01*
X71070557Y17144403D01*
X71089803Y17160197D01*
X71105597Y17179443D01*
X71117333Y17201399D01*
X71124560Y17225224D01*
X71127000Y17250000D01*
X71127000Y18637584D01*
X71138072Y18750000D01*
X71138072Y20750000D01*
X71127000Y20862416D01*
X71127000Y22250000D01*
X71124560Y22274776D01*
X71117333Y22298601D01*
X71105597Y22320557D01*
X71089803Y22339803D01*
X71070557Y22355597D01*
X71048601Y22367333D01*
X71024776Y22374560D01*
X71000000Y22377000D01*
X68877000Y22377000D01*
X68877000Y31123000D01*
X72123000Y31123000D01*
X72123000Y24500000D01*
G37*
%TD.AperFunction*%
%TD*%
D37*
%TO.N,Center_tap*%
X70373000Y17877000D02*
X68500000Y17877000D01*
X68475224Y17874560D01*
X68451399Y17867333D01*
X68429443Y17855597D01*
X68410197Y17839803D01*
X68394403Y17820557D01*
X68382667Y17798601D01*
X68375440Y17774776D01*
X68373000Y17750000D01*
X68373000Y4877000D01*
X64127000Y4877000D01*
X64127000Y19651329D01*
X64213405Y19756614D01*
X64295472Y19910150D01*
X64346008Y20076746D01*
X64363072Y20250000D01*
X64363072Y20750000D01*
X64346008Y20923254D01*
X64295472Y21089850D01*
X64213405Y21243386D01*
X64127000Y21348671D01*
X64127000Y21515000D01*
X64423414Y21515000D01*
X64448102Y21504774D01*
X64648061Y21465000D01*
X64851939Y21465000D01*
X65051898Y21504774D01*
X65240256Y21582795D01*
X65300427Y21623000D01*
X70373000Y21623000D01*
X70373000Y17877000D01*
%TA.AperFunction,Conductor*%
D38*
G36*
X70373000Y17877000D02*
G01*
X68500000Y17877000D01*
X68475224Y17874560D01*
X68451399Y17867333D01*
X68429443Y17855597D01*
X68410197Y17839803D01*
X68394403Y17820557D01*
X68382667Y17798601D01*
X68375440Y17774776D01*
X68373000Y17750000D01*
X68373000Y4877000D01*
X64127000Y4877000D01*
X64127000Y19651329D01*
X64213405Y19756614D01*
X64295472Y19910150D01*
X64346008Y20076746D01*
X64363072Y20250000D01*
X64363072Y20750000D01*
X64346008Y20923254D01*
X64295472Y21089850D01*
X64213405Y21243386D01*
X64127000Y21348671D01*
X64127000Y21515000D01*
X64423414Y21515000D01*
X64448102Y21504774D01*
X64648061Y21465000D01*
X64851939Y21465000D01*
X65051898Y21504774D01*
X65240256Y21582795D01*
X65300427Y21623000D01*
X70373000Y21623000D01*
X70373000Y17877000D01*
G37*
%TD.AperFunction*%
%TD*%
D37*
%TO.N,Center_tap*%
X87123000Y56127000D02*
X80127000Y56127000D01*
X80127000Y80500000D01*
X80124560Y80524776D01*
X80117333Y80548601D01*
X80105597Y80570557D01*
X80089803Y80589803D01*
X80070557Y80605597D01*
X80048601Y80617333D01*
X80024776Y80624560D01*
X80000000Y80627000D01*
X34127000Y80627000D01*
X34127000Y99340000D01*
X87123000Y99340000D01*
X87123000Y56127000D01*
%TA.AperFunction,Conductor*%
D38*
G36*
X87123000Y56127000D02*
G01*
X80127000Y56127000D01*
X80127000Y80500000D01*
X80124560Y80524776D01*
X80117333Y80548601D01*
X80105597Y80570557D01*
X80089803Y80589803D01*
X80070557Y80605597D01*
X80048601Y80617333D01*
X80024776Y80624560D01*
X80000000Y80627000D01*
X34127000Y80627000D01*
X34127000Y99340000D01*
X87123000Y99340000D01*
X87123000Y56127000D01*
G37*
%TD.AperFunction*%
%TD*%
M02*
