%TF.GenerationSoftware,KiCad,Pcbnew,(5.1.10-1-10_14)*%
%TF.CreationDate,2021-12-23T00:47:36+01:00*%
%TF.ProjectId,NordstroemSupply,4e6f7264-7374-4726-9f65-6d537570706c,rev?*%
%TF.SameCoordinates,Original*%
%TF.FileFunction,Soldermask,Bot*%
%TF.FilePolarity,Negative*%
%FSLAX46Y46*%
G04 Gerber Fmt 4.6, Leading zero omitted, Abs format (unit mm)*
G04 Created by KiCad (PCBNEW (5.1.10-1-10_14)) date 2021-12-23 00:47:36*
%MOMM*%
%LPD*%
G01*
G04 APERTURE LIST*
%ADD10R,1.500000X1.500000*%
%ADD11C,0.800000*%
%ADD12C,6.400000*%
%ADD13R,4.000000X4.000000*%
%ADD14C,4.000000*%
%ADD15R,1.800000X1.800000*%
%ADD16C,1.800000*%
%ADD17R,2.100000X2.100000*%
%ADD18C,2.100000*%
%ADD19R,4.500000X2.500000*%
%ADD20O,4.500000X2.500000*%
%ADD21C,1.440000*%
%ADD22R,1.700000X1.700000*%
%ADD23O,1.700000X1.700000*%
G04 APERTURE END LIST*
D10*
%TO.C,H8*%
X78250000Y35750000D03*
%TD*%
%TO.C,H7*%
X85750000Y35750000D03*
%TD*%
%TO.C,H6*%
X78250000Y33250000D03*
%TD*%
D11*
%TO.C,H4*%
X97447056Y5947056D03*
X95750000Y6650000D03*
X94052944Y5947056D03*
X93350000Y4250000D03*
X94052944Y2552944D03*
X95750000Y1850000D03*
X97447056Y2552944D03*
X98150000Y4250000D03*
D12*
X95750000Y4250000D03*
%TD*%
D11*
%TO.C,H3*%
X5947056Y5947056D03*
X4250000Y6650000D03*
X2552944Y5947056D03*
X1850000Y4250000D03*
X2552944Y2552944D03*
X4250000Y1850000D03*
X5947056Y2552944D03*
X6650000Y4250000D03*
D12*
X4250000Y4250000D03*
%TD*%
D11*
%TO.C,H2*%
X97197056Y97197056D03*
X95500000Y97900000D03*
X93802944Y97197056D03*
X93100000Y95500000D03*
X93802944Y93802944D03*
X95500000Y93100000D03*
X97197056Y93802944D03*
X97900000Y95500000D03*
D12*
X95500000Y95500000D03*
%TD*%
D11*
%TO.C,H1*%
X6197056Y97197056D03*
X4500000Y97900000D03*
X2802944Y97197056D03*
X2100000Y95500000D03*
X2802944Y93802944D03*
X4500000Y93100000D03*
X6197056Y93802944D03*
X6900000Y95500000D03*
D12*
X4500000Y95500000D03*
%TD*%
D13*
%TO.C,C1*%
X37500000Y75500000D03*
D14*
X37500000Y85500000D03*
%TD*%
%TO.C,C2*%
X75500000Y85500000D03*
D13*
X75500000Y75500000D03*
%TD*%
D15*
%TO.C,D7*%
X51750000Y3500000D03*
D16*
X51750000Y6040000D03*
%TD*%
%TO.C,D8*%
X58500000Y6040000D03*
D15*
X58500000Y3500000D03*
%TD*%
D17*
%TO.C,J1*%
X6000000Y62500000D03*
D18*
X6000000Y67580000D03*
X6000000Y72660000D03*
X6000000Y77740000D03*
X6000000Y82820000D03*
X6000000Y87900000D03*
%TD*%
D17*
%TO.C,J2*%
X71500000Y6500000D03*
D18*
X66420000Y6500000D03*
%TD*%
D19*
%TO.C,Q1*%
X97000000Y52950000D03*
D20*
X97000000Y47500000D03*
X97000000Y42050000D03*
%TD*%
%TO.C,Q3*%
X97000000Y12050000D03*
X97000000Y17500000D03*
D19*
X97000000Y22950000D03*
%TD*%
D21*
%TO.C,RV1*%
X12250000Y15500000D03*
X9710000Y15500000D03*
X7170000Y15500000D03*
%TD*%
D22*
%TO.C,RV2*%
X17500000Y3500000D03*
D23*
X20040000Y3500000D03*
X22580000Y3500000D03*
%TD*%
%TO.C,RV3*%
X34080000Y3500000D03*
X31540000Y3500000D03*
D22*
X29000000Y3500000D03*
%TD*%
%TO.C,SW1*%
X40500000Y3500000D03*
D23*
X43040000Y3500000D03*
X45580000Y3500000D03*
%TD*%
D10*
%TO.C,H5*%
X85750000Y33250000D03*
%TD*%
M02*
