%TF.GenerationSoftware,KiCad,Pcbnew,(5.1.10-1-10_14)*%
%TF.CreationDate,2021-12-23T00:47:36+01:00*%
%TF.ProjectId,NordstroemSupply,4e6f7264-7374-4726-9f65-6d537570706c,rev?*%
%TF.SameCoordinates,Original*%
%TF.FileFunction,Soldermask,Top*%
%TF.FilePolarity,Negative*%
%FSLAX46Y46*%
G04 Gerber Fmt 4.6, Leading zero omitted, Abs format (unit mm)*
G04 Created by KiCad (PCBNEW (5.1.10-1-10_14)) date 2021-12-23 00:47:36*
%MOMM*%
%LPD*%
G01*
G04 APERTURE LIST*
%ADD10R,1.500000X1.500000*%
%ADD11C,0.800000*%
%ADD12C,6.400000*%
%ADD13R,4.000000X4.000000*%
%ADD14C,4.000000*%
%ADD15R,1.270000X1.400000*%
%ADD16R,4.720000X4.800000*%
%ADD17R,1.200000X0.900000*%
%ADD18R,0.900000X1.200000*%
%ADD19R,1.800000X1.800000*%
%ADD20C,1.800000*%
%ADD21R,2.100000X2.100000*%
%ADD22C,2.100000*%
%ADD23R,4.500000X2.500000*%
%ADD24O,4.500000X2.500000*%
%ADD25R,0.800000X0.900000*%
%ADD26R,1.550000X2.550000*%
%ADD27C,1.440000*%
%ADD28R,1.700000X1.700000*%
%ADD29O,1.700000X1.700000*%
G04 APERTURE END LIST*
D10*
%TO.C,H8*%
X78250000Y35750000D03*
%TD*%
%TO.C,H7*%
X85750000Y35750000D03*
%TD*%
%TO.C,H6*%
X78250000Y33250000D03*
%TD*%
%TO.C,C12*%
G36*
G01*
X3850000Y43949997D02*
X3850000Y53050003D01*
G75*
G02*
X4099997Y53300000I249997J0D01*
G01*
X11400003Y53300000D01*
G75*
G02*
X11650000Y53050003I0J-249997D01*
G01*
X11650000Y43949997D01*
G75*
G02*
X11400003Y43700000I-249997J0D01*
G01*
X4099997Y43700000D01*
G75*
G02*
X3850000Y43949997I0J249997D01*
G01*
G37*
G36*
G01*
X16350000Y43949997D02*
X16350000Y53050003D01*
G75*
G02*
X16599997Y53300000I249997J0D01*
G01*
X23900003Y53300000D01*
G75*
G02*
X24150000Y53050003I0J-249997D01*
G01*
X24150000Y43949997D01*
G75*
G02*
X23900003Y43700000I-249997J0D01*
G01*
X16599997Y43700000D01*
G75*
G02*
X16350000Y43949997I0J249997D01*
G01*
G37*
%TD*%
D11*
%TO.C,H4*%
X97447056Y5947056D03*
X95750000Y6650000D03*
X94052944Y5947056D03*
X93350000Y4250000D03*
X94052944Y2552944D03*
X95750000Y1850000D03*
X97447056Y2552944D03*
X98150000Y4250000D03*
D12*
X95750000Y4250000D03*
%TD*%
D11*
%TO.C,H3*%
X5947056Y5947056D03*
X4250000Y6650000D03*
X2552944Y5947056D03*
X1850000Y4250000D03*
X2552944Y2552944D03*
X4250000Y1850000D03*
X5947056Y2552944D03*
X6650000Y4250000D03*
D12*
X4250000Y4250000D03*
%TD*%
D11*
%TO.C,H2*%
X97197056Y97197056D03*
X95500000Y97900000D03*
X93802944Y97197056D03*
X93100000Y95500000D03*
X93802944Y93802944D03*
X95500000Y93100000D03*
X97197056Y93802944D03*
X97900000Y95500000D03*
D12*
X95500000Y95500000D03*
%TD*%
D11*
%TO.C,H1*%
X6197056Y97197056D03*
X4500000Y97900000D03*
X2802944Y97197056D03*
X2100000Y95500000D03*
X2802944Y93802944D03*
X4500000Y93100000D03*
X6197056Y93802944D03*
X6900000Y95500000D03*
D12*
X4500000Y95500000D03*
%TD*%
%TO.C,C23*%
G36*
G01*
X70500000Y20750000D02*
X70500000Y18750000D01*
G75*
G02*
X70250000Y18500000I-250000J0D01*
G01*
X66350000Y18500000D01*
G75*
G02*
X66100000Y18750000I0J250000D01*
G01*
X66100000Y20750000D01*
G75*
G02*
X66350000Y21000000I250000J0D01*
G01*
X70250000Y21000000D01*
G75*
G02*
X70500000Y20750000I0J-250000D01*
G01*
G37*
G36*
G01*
X78900000Y20750000D02*
X78900000Y18750000D01*
G75*
G02*
X78650000Y18500000I-250000J0D01*
G01*
X74750000Y18500000D01*
G75*
G02*
X74500000Y18750000I0J250000D01*
G01*
X74500000Y20750000D01*
G75*
G02*
X74750000Y21000000I250000J0D01*
G01*
X78650000Y21000000D01*
G75*
G02*
X78900000Y20750000I0J-250000D01*
G01*
G37*
%TD*%
D13*
%TO.C,C1*%
X37500000Y75500000D03*
D14*
X37500000Y85500000D03*
%TD*%
%TO.C,C2*%
X75500000Y85500000D03*
D13*
X75500000Y75500000D03*
%TD*%
%TO.C,C3*%
G36*
G01*
X97600001Y78450000D02*
X95399999Y78450000D01*
G75*
G02*
X95150000Y78699999I0J249999D01*
G01*
X95150000Y79350001D01*
G75*
G02*
X95399999Y79600000I249999J0D01*
G01*
X97600001Y79600000D01*
G75*
G02*
X97850000Y79350001I0J-249999D01*
G01*
X97850000Y78699999D01*
G75*
G02*
X97600001Y78450000I-249999J0D01*
G01*
G37*
G36*
G01*
X97600001Y81400000D02*
X95399999Y81400000D01*
G75*
G02*
X95150000Y81649999I0J249999D01*
G01*
X95150000Y82300001D01*
G75*
G02*
X95399999Y82550000I249999J0D01*
G01*
X97600001Y82550000D01*
G75*
G02*
X97850000Y82300001I0J-249999D01*
G01*
X97850000Y81649999D01*
G75*
G02*
X97600001Y81400000I-249999J0D01*
G01*
G37*
%TD*%
%TO.C,C4*%
G36*
G01*
X39850000Y43949997D02*
X39850000Y53050003D01*
G75*
G02*
X40099997Y53300000I249997J0D01*
G01*
X47400003Y53300000D01*
G75*
G02*
X47650000Y53050003I0J-249997D01*
G01*
X47650000Y43949997D01*
G75*
G02*
X47400003Y43700000I-249997J0D01*
G01*
X40099997Y43700000D01*
G75*
G02*
X39850000Y43949997I0J249997D01*
G01*
G37*
G36*
G01*
X27350000Y43949997D02*
X27350000Y53050003D01*
G75*
G02*
X27599997Y53300000I249997J0D01*
G01*
X34900003Y53300000D01*
G75*
G02*
X35150000Y53050003I0J-249997D01*
G01*
X35150000Y43949997D01*
G75*
G02*
X34900003Y43700000I-249997J0D01*
G01*
X27599997Y43700000D01*
G75*
G02*
X27350000Y43949997I0J249997D01*
G01*
G37*
%TD*%
%TO.C,C5*%
G36*
G01*
X43149999Y38025000D02*
X45350001Y38025000D01*
G75*
G02*
X45600000Y37775001I0J-249999D01*
G01*
X45600000Y37124999D01*
G75*
G02*
X45350001Y36875000I-249999J0D01*
G01*
X43149999Y36875000D01*
G75*
G02*
X42900000Y37124999I0J249999D01*
G01*
X42900000Y37775001D01*
G75*
G02*
X43149999Y38025000I249999J0D01*
G01*
G37*
G36*
G01*
X43149999Y35075000D02*
X45350001Y35075000D01*
G75*
G02*
X45600000Y34825001I0J-249999D01*
G01*
X45600000Y34174999D01*
G75*
G02*
X45350001Y33925000I-249999J0D01*
G01*
X43149999Y33925000D01*
G75*
G02*
X42900000Y34174999I0J249999D01*
G01*
X42900000Y34825001D01*
G75*
G02*
X43149999Y35075000I249999J0D01*
G01*
G37*
%TD*%
%TO.C,C6*%
G36*
G01*
X40275000Y36000000D02*
X41225000Y36000000D01*
G75*
G02*
X41475000Y35750000I0J-250000D01*
G01*
X41475000Y35250000D01*
G75*
G02*
X41225000Y35000000I-250000J0D01*
G01*
X40275000Y35000000D01*
G75*
G02*
X40025000Y35250000I0J250000D01*
G01*
X40025000Y35750000D01*
G75*
G02*
X40275000Y36000000I250000J0D01*
G01*
G37*
G36*
G01*
X40275000Y37900000D02*
X41225000Y37900000D01*
G75*
G02*
X41475000Y37650000I0J-250000D01*
G01*
X41475000Y37150000D01*
G75*
G02*
X41225000Y36900000I-250000J0D01*
G01*
X40275000Y36900000D01*
G75*
G02*
X40025000Y37150000I0J250000D01*
G01*
X40025000Y37650000D01*
G75*
G02*
X40275000Y37900000I250000J0D01*
G01*
G37*
%TD*%
%TO.C,C7*%
G36*
G01*
X30275000Y38000000D02*
X31225000Y38000000D01*
G75*
G02*
X31475000Y37750000I0J-250000D01*
G01*
X31475000Y37250000D01*
G75*
G02*
X31225000Y37000000I-250000J0D01*
G01*
X30275000Y37000000D01*
G75*
G02*
X30025000Y37250000I0J250000D01*
G01*
X30025000Y37750000D01*
G75*
G02*
X30275000Y38000000I250000J0D01*
G01*
G37*
G36*
G01*
X30275000Y36100000D02*
X31225000Y36100000D01*
G75*
G02*
X31475000Y35850000I0J-250000D01*
G01*
X31475000Y35350000D01*
G75*
G02*
X31225000Y35100000I-250000J0D01*
G01*
X30275000Y35100000D01*
G75*
G02*
X30025000Y35350000I0J250000D01*
G01*
X30025000Y35850000D01*
G75*
G02*
X30275000Y36100000I250000J0D01*
G01*
G37*
%TD*%
%TO.C,C8*%
G36*
G01*
X26900000Y31475000D02*
X26900000Y30525000D01*
G75*
G02*
X26650000Y30275000I-250000J0D01*
G01*
X26150000Y30275000D01*
G75*
G02*
X25900000Y30525000I0J250000D01*
G01*
X25900000Y31475000D01*
G75*
G02*
X26150000Y31725000I250000J0D01*
G01*
X26650000Y31725000D01*
G75*
G02*
X26900000Y31475000I0J-250000D01*
G01*
G37*
G36*
G01*
X25000000Y31475000D02*
X25000000Y30525000D01*
G75*
G02*
X24750000Y30275000I-250000J0D01*
G01*
X24250000Y30275000D01*
G75*
G02*
X24000000Y30525000I0J250000D01*
G01*
X24000000Y31475000D01*
G75*
G02*
X24250000Y31725000I250000J0D01*
G01*
X24750000Y31725000D01*
G75*
G02*
X25000000Y31475000I0J-250000D01*
G01*
G37*
%TD*%
%TO.C,C9*%
G36*
G01*
X26900000Y16475000D02*
X26900000Y15525000D01*
G75*
G02*
X26650000Y15275000I-250000J0D01*
G01*
X26150000Y15275000D01*
G75*
G02*
X25900000Y15525000I0J250000D01*
G01*
X25900000Y16475000D01*
G75*
G02*
X26150000Y16725000I250000J0D01*
G01*
X26650000Y16725000D01*
G75*
G02*
X26900000Y16475000I0J-250000D01*
G01*
G37*
G36*
G01*
X25000000Y16475000D02*
X25000000Y15525000D01*
G75*
G02*
X24750000Y15275000I-250000J0D01*
G01*
X24250000Y15275000D01*
G75*
G02*
X24000000Y15525000I0J250000D01*
G01*
X24000000Y16475000D01*
G75*
G02*
X24250000Y16725000I250000J0D01*
G01*
X24750000Y16725000D01*
G75*
G02*
X25000000Y16475000I0J-250000D01*
G01*
G37*
%TD*%
%TO.C,C10*%
G36*
G01*
X60950000Y42225000D02*
X60950000Y41275000D01*
G75*
G02*
X60700000Y41025000I-250000J0D01*
G01*
X60200000Y41025000D01*
G75*
G02*
X59950000Y41275000I0J250000D01*
G01*
X59950000Y42225000D01*
G75*
G02*
X60200000Y42475000I250000J0D01*
G01*
X60700000Y42475000D01*
G75*
G02*
X60950000Y42225000I0J-250000D01*
G01*
G37*
G36*
G01*
X59050000Y42225000D02*
X59050000Y41275000D01*
G75*
G02*
X58800000Y41025000I-250000J0D01*
G01*
X58300000Y41025000D01*
G75*
G02*
X58050000Y41275000I0J250000D01*
G01*
X58050000Y42225000D01*
G75*
G02*
X58300000Y42475000I250000J0D01*
G01*
X58800000Y42475000D01*
G75*
G02*
X59050000Y42225000I0J-250000D01*
G01*
G37*
%TD*%
%TO.C,C11*%
G36*
G01*
X60900000Y30725000D02*
X60900000Y29775000D01*
G75*
G02*
X60650000Y29525000I-250000J0D01*
G01*
X60150000Y29525000D01*
G75*
G02*
X59900000Y29775000I0J250000D01*
G01*
X59900000Y30725000D01*
G75*
G02*
X60150000Y30975000I250000J0D01*
G01*
X60650000Y30975000D01*
G75*
G02*
X60900000Y30725000I0J-250000D01*
G01*
G37*
G36*
G01*
X59000000Y30725000D02*
X59000000Y29775000D01*
G75*
G02*
X58750000Y29525000I-250000J0D01*
G01*
X58250000Y29525000D01*
G75*
G02*
X58000000Y29775000I0J250000D01*
G01*
X58000000Y30725000D01*
G75*
G02*
X58250000Y30975000I250000J0D01*
G01*
X58750000Y30975000D01*
G75*
G02*
X59000000Y30725000I0J-250000D01*
G01*
G37*
%TD*%
%TO.C,C13*%
G36*
G01*
X21600001Y36925000D02*
X19399999Y36925000D01*
G75*
G02*
X19150000Y37174999I0J249999D01*
G01*
X19150000Y37825001D01*
G75*
G02*
X19399999Y38075000I249999J0D01*
G01*
X21600001Y38075000D01*
G75*
G02*
X21850000Y37825001I0J-249999D01*
G01*
X21850000Y37174999D01*
G75*
G02*
X21600001Y36925000I-249999J0D01*
G01*
G37*
G36*
G01*
X21600001Y33975000D02*
X19399999Y33975000D01*
G75*
G02*
X19150000Y34224999I0J249999D01*
G01*
X19150000Y34875001D01*
G75*
G02*
X19399999Y35125000I249999J0D01*
G01*
X21600001Y35125000D01*
G75*
G02*
X21850000Y34875001I0J-249999D01*
G01*
X21850000Y34224999D01*
G75*
G02*
X21600001Y33975000I-249999J0D01*
G01*
G37*
%TD*%
%TO.C,C14*%
G36*
G01*
X17475000Y35100000D02*
X16525000Y35100000D01*
G75*
G02*
X16275000Y35350000I0J250000D01*
G01*
X16275000Y35850000D01*
G75*
G02*
X16525000Y36100000I250000J0D01*
G01*
X17475000Y36100000D01*
G75*
G02*
X17725000Y35850000I0J-250000D01*
G01*
X17725000Y35350000D01*
G75*
G02*
X17475000Y35100000I-250000J0D01*
G01*
G37*
G36*
G01*
X17475000Y37000000D02*
X16525000Y37000000D01*
G75*
G02*
X16275000Y37250000I0J250000D01*
G01*
X16275000Y37750000D01*
G75*
G02*
X16525000Y38000000I250000J0D01*
G01*
X17475000Y38000000D01*
G75*
G02*
X17725000Y37750000I0J-250000D01*
G01*
X17725000Y37250000D01*
G75*
G02*
X17475000Y37000000I-250000J0D01*
G01*
G37*
%TD*%
%TO.C,C15*%
G36*
G01*
X7475000Y36900000D02*
X6525000Y36900000D01*
G75*
G02*
X6275000Y37150000I0J250000D01*
G01*
X6275000Y37650000D01*
G75*
G02*
X6525000Y37900000I250000J0D01*
G01*
X7475000Y37900000D01*
G75*
G02*
X7725000Y37650000I0J-250000D01*
G01*
X7725000Y37150000D01*
G75*
G02*
X7475000Y36900000I-250000J0D01*
G01*
G37*
G36*
G01*
X7475000Y35000000D02*
X6525000Y35000000D01*
G75*
G02*
X6275000Y35250000I0J250000D01*
G01*
X6275000Y35750000D01*
G75*
G02*
X6525000Y36000000I250000J0D01*
G01*
X7475000Y36000000D01*
G75*
G02*
X7725000Y35750000I0J-250000D01*
G01*
X7725000Y35250000D01*
G75*
G02*
X7475000Y35000000I-250000J0D01*
G01*
G37*
%TD*%
%TO.C,C16*%
G36*
G01*
X25000000Y23475000D02*
X25000000Y22525000D01*
G75*
G02*
X24750000Y22275000I-250000J0D01*
G01*
X24250000Y22275000D01*
G75*
G02*
X24000000Y22525000I0J250000D01*
G01*
X24000000Y23475000D01*
G75*
G02*
X24250000Y23725000I250000J0D01*
G01*
X24750000Y23725000D01*
G75*
G02*
X25000000Y23475000I0J-250000D01*
G01*
G37*
G36*
G01*
X26900000Y23475000D02*
X26900000Y22525000D01*
G75*
G02*
X26650000Y22275000I-250000J0D01*
G01*
X26150000Y22275000D01*
G75*
G02*
X25900000Y22525000I0J250000D01*
G01*
X25900000Y23475000D01*
G75*
G02*
X26150000Y23725000I250000J0D01*
G01*
X26650000Y23725000D01*
G75*
G02*
X26900000Y23475000I0J-250000D01*
G01*
G37*
%TD*%
%TO.C,C17*%
G36*
G01*
X25100000Y8475000D02*
X25100000Y7525000D01*
G75*
G02*
X24850000Y7275000I-250000J0D01*
G01*
X24350000Y7275000D01*
G75*
G02*
X24100000Y7525000I0J250000D01*
G01*
X24100000Y8475000D01*
G75*
G02*
X24350000Y8725000I250000J0D01*
G01*
X24850000Y8725000D01*
G75*
G02*
X25100000Y8475000I0J-250000D01*
G01*
G37*
G36*
G01*
X27000000Y8475000D02*
X27000000Y7525000D01*
G75*
G02*
X26750000Y7275000I-250000J0D01*
G01*
X26250000Y7275000D01*
G75*
G02*
X26000000Y7525000I0J250000D01*
G01*
X26000000Y8475000D01*
G75*
G02*
X26250000Y8725000I250000J0D01*
G01*
X26750000Y8725000D01*
G75*
G02*
X27000000Y8475000I0J-250000D01*
G01*
G37*
%TD*%
%TO.C,C18*%
G36*
G01*
X59000000Y34225000D02*
X59000000Y33275000D01*
G75*
G02*
X58750000Y33025000I-250000J0D01*
G01*
X58250000Y33025000D01*
G75*
G02*
X58000000Y33275000I0J250000D01*
G01*
X58000000Y34225000D01*
G75*
G02*
X58250000Y34475000I250000J0D01*
G01*
X58750000Y34475000D01*
G75*
G02*
X59000000Y34225000I0J-250000D01*
G01*
G37*
G36*
G01*
X60900000Y34225000D02*
X60900000Y33275000D01*
G75*
G02*
X60650000Y33025000I-250000J0D01*
G01*
X60150000Y33025000D01*
G75*
G02*
X59900000Y33275000I0J250000D01*
G01*
X59900000Y34225000D01*
G75*
G02*
X60150000Y34475000I250000J0D01*
G01*
X60650000Y34475000D01*
G75*
G02*
X60900000Y34225000I0J-250000D01*
G01*
G37*
%TD*%
%TO.C,C19*%
G36*
G01*
X59000000Y22725000D02*
X59000000Y21775000D01*
G75*
G02*
X58750000Y21525000I-250000J0D01*
G01*
X58250000Y21525000D01*
G75*
G02*
X58000000Y21775000I0J250000D01*
G01*
X58000000Y22725000D01*
G75*
G02*
X58250000Y22975000I250000J0D01*
G01*
X58750000Y22975000D01*
G75*
G02*
X59000000Y22725000I0J-250000D01*
G01*
G37*
G36*
G01*
X60900000Y22725000D02*
X60900000Y21775000D01*
G75*
G02*
X60650000Y21525000I-250000J0D01*
G01*
X60150000Y21525000D01*
G75*
G02*
X59900000Y21775000I0J250000D01*
G01*
X59900000Y22725000D01*
G75*
G02*
X60150000Y22975000I250000J0D01*
G01*
X60650000Y22975000D01*
G75*
G02*
X60900000Y22725000I0J-250000D01*
G01*
G37*
%TD*%
%TO.C,C20*%
G36*
G01*
X68225000Y38150000D02*
X67275000Y38150000D01*
G75*
G02*
X67025000Y38400000I0J250000D01*
G01*
X67025000Y38900000D01*
G75*
G02*
X67275000Y39150000I250000J0D01*
G01*
X68225000Y39150000D01*
G75*
G02*
X68475000Y38900000I0J-250000D01*
G01*
X68475000Y38400000D01*
G75*
G02*
X68225000Y38150000I-250000J0D01*
G01*
G37*
G36*
G01*
X68225000Y36250000D02*
X67275000Y36250000D01*
G75*
G02*
X67025000Y36500000I0J250000D01*
G01*
X67025000Y37000000D01*
G75*
G02*
X67275000Y37250000I250000J0D01*
G01*
X68225000Y37250000D01*
G75*
G02*
X68475000Y37000000I0J-250000D01*
G01*
X68475000Y36500000D01*
G75*
G02*
X68225000Y36250000I-250000J0D01*
G01*
G37*
%TD*%
%TO.C,C21*%
G36*
G01*
X88450000Y54975000D02*
X88450000Y54025000D01*
G75*
G02*
X88200000Y53775000I-250000J0D01*
G01*
X87700000Y53775000D01*
G75*
G02*
X87450000Y54025000I0J250000D01*
G01*
X87450000Y54975000D01*
G75*
G02*
X87700000Y55225000I250000J0D01*
G01*
X88200000Y55225000D01*
G75*
G02*
X88450000Y54975000I0J-250000D01*
G01*
G37*
G36*
G01*
X86550000Y54975000D02*
X86550000Y54025000D01*
G75*
G02*
X86300000Y53775000I-250000J0D01*
G01*
X85800000Y53775000D01*
G75*
G02*
X85550000Y54025000I0J250000D01*
G01*
X85550000Y54975000D01*
G75*
G02*
X85800000Y55225000I250000J0D01*
G01*
X86300000Y55225000D01*
G75*
G02*
X86550000Y54975000I0J-250000D01*
G01*
G37*
%TD*%
%TO.C,C22*%
G36*
G01*
X54100000Y41275000D02*
X54100000Y42225000D01*
G75*
G02*
X54350000Y42475000I250000J0D01*
G01*
X54850000Y42475000D01*
G75*
G02*
X55100000Y42225000I0J-250000D01*
G01*
X55100000Y41275000D01*
G75*
G02*
X54850000Y41025000I-250000J0D01*
G01*
X54350000Y41025000D01*
G75*
G02*
X54100000Y41275000I0J250000D01*
G01*
G37*
G36*
G01*
X56000000Y41275000D02*
X56000000Y42225000D01*
G75*
G02*
X56250000Y42475000I250000J0D01*
G01*
X56750000Y42475000D01*
G75*
G02*
X57000000Y42225000I0J-250000D01*
G01*
X57000000Y41275000D01*
G75*
G02*
X56750000Y41025000I-250000J0D01*
G01*
X56250000Y41025000D01*
G75*
G02*
X56000000Y41275000I0J250000D01*
G01*
G37*
%TD*%
%TO.C,C24*%
G36*
G01*
X70250000Y13225000D02*
X70250000Y12275000D01*
G75*
G02*
X70000000Y12025000I-250000J0D01*
G01*
X69500000Y12025000D01*
G75*
G02*
X69250000Y12275000I0J250000D01*
G01*
X69250000Y13225000D01*
G75*
G02*
X69500000Y13475000I250000J0D01*
G01*
X70000000Y13475000D01*
G75*
G02*
X70250000Y13225000I0J-250000D01*
G01*
G37*
G36*
G01*
X68350000Y13225000D02*
X68350000Y12275000D01*
G75*
G02*
X68100000Y12025000I-250000J0D01*
G01*
X67600000Y12025000D01*
G75*
G02*
X67350000Y12275000I0J250000D01*
G01*
X67350000Y13225000D01*
G75*
G02*
X67600000Y13475000I250000J0D01*
G01*
X68100000Y13475000D01*
G75*
G02*
X68350000Y13225000I0J-250000D01*
G01*
G37*
%TD*%
%TO.C,C25*%
G36*
G01*
X86500000Y24975000D02*
X86500000Y24025000D01*
G75*
G02*
X86250000Y23775000I-250000J0D01*
G01*
X85750000Y23775000D01*
G75*
G02*
X85500000Y24025000I0J250000D01*
G01*
X85500000Y24975000D01*
G75*
G02*
X85750000Y25225000I250000J0D01*
G01*
X86250000Y25225000D01*
G75*
G02*
X86500000Y24975000I0J-250000D01*
G01*
G37*
G36*
G01*
X88400000Y24975000D02*
X88400000Y24025000D01*
G75*
G02*
X88150000Y23775000I-250000J0D01*
G01*
X87650000Y23775000D01*
G75*
G02*
X87400000Y24025000I0J250000D01*
G01*
X87400000Y24975000D01*
G75*
G02*
X87650000Y25225000I250000J0D01*
G01*
X88150000Y25225000D01*
G75*
G02*
X88400000Y24975000I0J-250000D01*
G01*
G37*
%TD*%
%TO.C,C26*%
G36*
G01*
X49050000Y28775000D02*
X49050000Y29725000D01*
G75*
G02*
X49300000Y29975000I250000J0D01*
G01*
X49800000Y29975000D01*
G75*
G02*
X50050000Y29725000I0J-250000D01*
G01*
X50050000Y28775000D01*
G75*
G02*
X49800000Y28525000I-250000J0D01*
G01*
X49300000Y28525000D01*
G75*
G02*
X49050000Y28775000I0J250000D01*
G01*
G37*
G36*
G01*
X50950000Y28775000D02*
X50950000Y29725000D01*
G75*
G02*
X51200000Y29975000I250000J0D01*
G01*
X51700000Y29975000D01*
G75*
G02*
X51950000Y29725000I0J-250000D01*
G01*
X51950000Y28775000D01*
G75*
G02*
X51700000Y28525000I-250000J0D01*
G01*
X51200000Y28525000D01*
G75*
G02*
X50950000Y28775000I0J250000D01*
G01*
G37*
%TD*%
%TO.C,C27*%
G36*
G01*
X54475000Y27750000D02*
X53525000Y27750000D01*
G75*
G02*
X53275000Y28000000I0J250000D01*
G01*
X53275000Y28500000D01*
G75*
G02*
X53525000Y28750000I250000J0D01*
G01*
X54475000Y28750000D01*
G75*
G02*
X54725000Y28500000I0J-250000D01*
G01*
X54725000Y28000000D01*
G75*
G02*
X54475000Y27750000I-250000J0D01*
G01*
G37*
G36*
G01*
X54475000Y25850000D02*
X53525000Y25850000D01*
G75*
G02*
X53275000Y26100000I0J250000D01*
G01*
X53275000Y26600000D01*
G75*
G02*
X53525000Y26850000I250000J0D01*
G01*
X54475000Y26850000D01*
G75*
G02*
X54725000Y26600000I0J-250000D01*
G01*
X54725000Y26100000D01*
G75*
G02*
X54475000Y25850000I-250000J0D01*
G01*
G37*
%TD*%
%TO.C,C28*%
G36*
G01*
X62525000Y21000000D02*
X63475000Y21000000D01*
G75*
G02*
X63725000Y20750000I0J-250000D01*
G01*
X63725000Y20250000D01*
G75*
G02*
X63475000Y20000000I-250000J0D01*
G01*
X62525000Y20000000D01*
G75*
G02*
X62275000Y20250000I0J250000D01*
G01*
X62275000Y20750000D01*
G75*
G02*
X62525000Y21000000I250000J0D01*
G01*
G37*
G36*
G01*
X62525000Y22900000D02*
X63475000Y22900000D01*
G75*
G02*
X63725000Y22650000I0J-250000D01*
G01*
X63725000Y22150000D01*
G75*
G02*
X63475000Y21900000I-250000J0D01*
G01*
X62525000Y21900000D01*
G75*
G02*
X62275000Y22150000I0J250000D01*
G01*
X62275000Y22650000D01*
G75*
G02*
X62525000Y22900000I250000J0D01*
G01*
G37*
%TD*%
%TO.C,C29*%
G36*
G01*
X53225000Y31250000D02*
X52275000Y31250000D01*
G75*
G02*
X52025000Y31500000I0J250000D01*
G01*
X52025000Y32000000D01*
G75*
G02*
X52275000Y32250000I250000J0D01*
G01*
X53225000Y32250000D01*
G75*
G02*
X53475000Y32000000I0J-250000D01*
G01*
X53475000Y31500000D01*
G75*
G02*
X53225000Y31250000I-250000J0D01*
G01*
G37*
G36*
G01*
X53225000Y33150000D02*
X52275000Y33150000D01*
G75*
G02*
X52025000Y33400000I0J250000D01*
G01*
X52025000Y33900000D01*
G75*
G02*
X52275000Y34150000I250000J0D01*
G01*
X53225000Y34150000D01*
G75*
G02*
X53475000Y33900000I0J-250000D01*
G01*
X53475000Y33400000D01*
G75*
G02*
X53225000Y33150000I-250000J0D01*
G01*
G37*
%TD*%
%TO.C,C30*%
G36*
G01*
X64150000Y17525000D02*
X64150000Y18475000D01*
G75*
G02*
X64400000Y18725000I250000J0D01*
G01*
X64900000Y18725000D01*
G75*
G02*
X65150000Y18475000I0J-250000D01*
G01*
X65150000Y17525000D01*
G75*
G02*
X64900000Y17275000I-250000J0D01*
G01*
X64400000Y17275000D01*
G75*
G02*
X64150000Y17525000I0J250000D01*
G01*
G37*
G36*
G01*
X62250000Y17525000D02*
X62250000Y18475000D01*
G75*
G02*
X62500000Y18725000I250000J0D01*
G01*
X63000000Y18725000D01*
G75*
G02*
X63250000Y18475000I0J-250000D01*
G01*
X63250000Y17525000D01*
G75*
G02*
X63000000Y17275000I-250000J0D01*
G01*
X62500000Y17275000D01*
G75*
G02*
X62250000Y17525000I0J250000D01*
G01*
G37*
%TD*%
%TO.C,C31*%
G36*
G01*
X43250000Y16475000D02*
X43250000Y15525000D01*
G75*
G02*
X43000000Y15275000I-250000J0D01*
G01*
X42500000Y15275000D01*
G75*
G02*
X42250000Y15525000I0J250000D01*
G01*
X42250000Y16475000D01*
G75*
G02*
X42500000Y16725000I250000J0D01*
G01*
X43000000Y16725000D01*
G75*
G02*
X43250000Y16475000I0J-250000D01*
G01*
G37*
G36*
G01*
X45150000Y16475000D02*
X45150000Y15525000D01*
G75*
G02*
X44900000Y15275000I-250000J0D01*
G01*
X44400000Y15275000D01*
G75*
G02*
X44150000Y15525000I0J250000D01*
G01*
X44150000Y16475000D01*
G75*
G02*
X44400000Y16725000I250000J0D01*
G01*
X44900000Y16725000D01*
G75*
G02*
X45150000Y16475000I0J-250000D01*
G01*
G37*
%TD*%
%TO.C,C32*%
G36*
G01*
X43350000Y8475000D02*
X43350000Y7525000D01*
G75*
G02*
X43100000Y7275000I-250000J0D01*
G01*
X42600000Y7275000D01*
G75*
G02*
X42350000Y7525000I0J250000D01*
G01*
X42350000Y8475000D01*
G75*
G02*
X42600000Y8725000I250000J0D01*
G01*
X43100000Y8725000D01*
G75*
G02*
X43350000Y8475000I0J-250000D01*
G01*
G37*
G36*
G01*
X45250000Y8475000D02*
X45250000Y7525000D01*
G75*
G02*
X45000000Y7275000I-250000J0D01*
G01*
X44500000Y7275000D01*
G75*
G02*
X44250000Y7525000I0J250000D01*
G01*
X44250000Y8475000D01*
G75*
G02*
X44500000Y8725000I250000J0D01*
G01*
X45000000Y8725000D01*
G75*
G02*
X45250000Y8475000I0J-250000D01*
G01*
G37*
%TD*%
%TO.C,C33*%
G36*
G01*
X5275000Y23450000D02*
X6225000Y23450000D01*
G75*
G02*
X6475000Y23200000I0J-250000D01*
G01*
X6475000Y22700000D01*
G75*
G02*
X6225000Y22450000I-250000J0D01*
G01*
X5275000Y22450000D01*
G75*
G02*
X5025000Y22700000I0J250000D01*
G01*
X5025000Y23200000D01*
G75*
G02*
X5275000Y23450000I250000J0D01*
G01*
G37*
G36*
G01*
X5275000Y21550000D02*
X6225000Y21550000D01*
G75*
G02*
X6475000Y21300000I0J-250000D01*
G01*
X6475000Y20800000D01*
G75*
G02*
X6225000Y20550000I-250000J0D01*
G01*
X5275000Y20550000D01*
G75*
G02*
X5025000Y20800000I0J250000D01*
G01*
X5025000Y21300000D01*
G75*
G02*
X5275000Y21550000I250000J0D01*
G01*
G37*
%TD*%
D15*
%TO.C,D1*%
X13235000Y92460000D03*
D16*
X17040000Y93500000D03*
D15*
X13235000Y94540000D03*
%TD*%
D17*
%TO.C,D2*%
X22000000Y63550000D03*
X22000000Y60250000D03*
%TD*%
%TO.C,D3*%
X19250000Y60250000D03*
X19250000Y63550000D03*
%TD*%
D18*
%TO.C,D4*%
X57850000Y45250000D03*
X61150000Y45250000D03*
%TD*%
D17*
%TO.C,D5*%
X54000000Y36100000D03*
X54000000Y39400000D03*
%TD*%
%TO.C,D6*%
X51000000Y36100000D03*
X51000000Y39400000D03*
%TD*%
D19*
%TO.C,D7*%
X51750000Y3500000D03*
D20*
X51750000Y6040000D03*
%TD*%
%TO.C,D8*%
X58500000Y6040000D03*
D19*
X58500000Y3500000D03*
%TD*%
D17*
%TO.C,D9*%
X55750000Y33650000D03*
X55750000Y30350000D03*
%TD*%
%TO.C,D10*%
X55750000Y17950000D03*
X55750000Y21250000D03*
%TD*%
D18*
%TO.C,D11*%
X57100000Y13750000D03*
X60400000Y13750000D03*
%TD*%
D21*
%TO.C,J1*%
X6000000Y62500000D03*
D22*
X6000000Y67580000D03*
X6000000Y72660000D03*
X6000000Y77740000D03*
X6000000Y82820000D03*
X6000000Y87900000D03*
%TD*%
D21*
%TO.C,J2*%
X71500000Y6500000D03*
D22*
X66420000Y6500000D03*
%TD*%
D23*
%TO.C,Q1*%
X97000000Y52950000D03*
D24*
X97000000Y47500000D03*
X97000000Y42050000D03*
%TD*%
D25*
%TO.C,Q2*%
X87000000Y48500000D03*
X87950000Y46500000D03*
X86050000Y46500000D03*
%TD*%
D24*
%TO.C,Q3*%
X97000000Y12050000D03*
X97000000Y17500000D03*
D23*
X97000000Y22950000D03*
%TD*%
D25*
%TO.C,Q4*%
X86050000Y16000000D03*
X87950000Y16000000D03*
X87000000Y18000000D03*
%TD*%
%TO.C,R3*%
G36*
G01*
X15799999Y21012500D02*
X16700001Y21012500D01*
G75*
G02*
X16950000Y20762501I0J-249999D01*
G01*
X16950000Y20237499D01*
G75*
G02*
X16700001Y19987500I-249999J0D01*
G01*
X15799999Y19987500D01*
G75*
G02*
X15550000Y20237499I0J249999D01*
G01*
X15550000Y20762501D01*
G75*
G02*
X15799999Y21012500I249999J0D01*
G01*
G37*
G36*
G01*
X15799999Y19187500D02*
X16700001Y19187500D01*
G75*
G02*
X16950000Y18937501I0J-249999D01*
G01*
X16950000Y18412499D01*
G75*
G02*
X16700001Y18162500I-249999J0D01*
G01*
X15799999Y18162500D01*
G75*
G02*
X15550000Y18412499I0J249999D01*
G01*
X15550000Y18937501D01*
G75*
G02*
X15799999Y19187500I249999J0D01*
G01*
G37*
%TD*%
%TO.C,R6*%
G36*
G01*
X92575000Y43425000D02*
X92575000Y40575000D01*
G75*
G02*
X92325000Y40325000I-250000J0D01*
G01*
X91600000Y40325000D01*
G75*
G02*
X91350000Y40575000I0J250000D01*
G01*
X91350000Y43425000D01*
G75*
G02*
X91600000Y43675000I250000J0D01*
G01*
X92325000Y43675000D01*
G75*
G02*
X92575000Y43425000I0J-250000D01*
G01*
G37*
G36*
G01*
X86650000Y43425000D02*
X86650000Y40575000D01*
G75*
G02*
X86400000Y40325000I-250000J0D01*
G01*
X85675000Y40325000D01*
G75*
G02*
X85425000Y40575000I0J250000D01*
G01*
X85425000Y43425000D01*
G75*
G02*
X85675000Y43675000I250000J0D01*
G01*
X86400000Y43675000D01*
G75*
G02*
X86650000Y43425000I0J-250000D01*
G01*
G37*
%TD*%
D26*
%TO.C,R11*%
X71500000Y33500000D03*
X69450000Y33500000D03*
X69450000Y29550000D03*
X71500000Y29550000D03*
%TD*%
%TO.C,R12*%
G36*
G01*
X33400000Y15975000D02*
X33400000Y15025000D01*
G75*
G02*
X33150000Y14775000I-250000J0D01*
G01*
X32650000Y14775000D01*
G75*
G02*
X32400000Y15025000I0J250000D01*
G01*
X32400000Y15975000D01*
G75*
G02*
X32650000Y16225000I250000J0D01*
G01*
X33150000Y16225000D01*
G75*
G02*
X33400000Y15975000I0J-250000D01*
G01*
G37*
G36*
G01*
X31500000Y15975000D02*
X31500000Y15025000D01*
G75*
G02*
X31250000Y14775000I-250000J0D01*
G01*
X30750000Y14775000D01*
G75*
G02*
X30500000Y15025000I0J250000D01*
G01*
X30500000Y15975000D01*
G75*
G02*
X30750000Y16225000I250000J0D01*
G01*
X31250000Y16225000D01*
G75*
G02*
X31500000Y15975000I0J-250000D01*
G01*
G37*
%TD*%
%TO.C,R13*%
G36*
G01*
X86650000Y13425000D02*
X86650000Y10575000D01*
G75*
G02*
X86400000Y10325000I-250000J0D01*
G01*
X85675000Y10325000D01*
G75*
G02*
X85425000Y10575000I0J250000D01*
G01*
X85425000Y13425000D01*
G75*
G02*
X85675000Y13675000I250000J0D01*
G01*
X86400000Y13675000D01*
G75*
G02*
X86650000Y13425000I0J-250000D01*
G01*
G37*
G36*
G01*
X92575000Y13425000D02*
X92575000Y10575000D01*
G75*
G02*
X92325000Y10325000I-250000J0D01*
G01*
X91600000Y10325000D01*
G75*
G02*
X91350000Y10575000I0J250000D01*
G01*
X91350000Y13425000D01*
G75*
G02*
X91600000Y13675000I250000J0D01*
G01*
X92325000Y13675000D01*
G75*
G02*
X92575000Y13425000I0J-250000D01*
G01*
G37*
%TD*%
%TO.C,R14*%
G36*
G01*
X80724999Y47487500D02*
X76775001Y47487500D01*
G75*
G02*
X76525000Y47737501I0J250001D01*
G01*
X76525000Y50262499D01*
G75*
G02*
X76775001Y50512500I250001J0D01*
G01*
X80724999Y50512500D01*
G75*
G02*
X80975000Y50262499I0J-250001D01*
G01*
X80975000Y47737501D01*
G75*
G02*
X80724999Y47487500I-250001J0D01*
G01*
G37*
G36*
G01*
X80724999Y52512500D02*
X76775001Y52512500D01*
G75*
G02*
X76525000Y52762501I0J250001D01*
G01*
X76525000Y55287499D01*
G75*
G02*
X76775001Y55537500I250001J0D01*
G01*
X80724999Y55537500D01*
G75*
G02*
X80975000Y55287499I0J-250001D01*
G01*
X80975000Y52762501D01*
G75*
G02*
X80724999Y52512500I-250001J0D01*
G01*
G37*
%TD*%
D27*
%TO.C,RV1*%
X12250000Y15500000D03*
X9710000Y15500000D03*
X7170000Y15500000D03*
%TD*%
D28*
%TO.C,RV2*%
X17500000Y3500000D03*
D29*
X20040000Y3500000D03*
X22580000Y3500000D03*
%TD*%
%TO.C,RV3*%
X34080000Y3500000D03*
X31540000Y3500000D03*
D28*
X29000000Y3500000D03*
%TD*%
%TO.C,SW1*%
X40500000Y3500000D03*
D29*
X43040000Y3500000D03*
X45580000Y3500000D03*
%TD*%
%TO.C,U1*%
G36*
G01*
X7300000Y24255000D02*
X7300000Y24555000D01*
G75*
G02*
X7450000Y24705000I150000J0D01*
G01*
X8900000Y24705000D01*
G75*
G02*
X9050000Y24555000I0J-150000D01*
G01*
X9050000Y24255000D01*
G75*
G02*
X8900000Y24105000I-150000J0D01*
G01*
X7450000Y24105000D01*
G75*
G02*
X7300000Y24255000I0J150000D01*
G01*
G37*
G36*
G01*
X7300000Y22985000D02*
X7300000Y23285000D01*
G75*
G02*
X7450000Y23435000I150000J0D01*
G01*
X8900000Y23435000D01*
G75*
G02*
X9050000Y23285000I0J-150000D01*
G01*
X9050000Y22985000D01*
G75*
G02*
X8900000Y22835000I-150000J0D01*
G01*
X7450000Y22835000D01*
G75*
G02*
X7300000Y22985000I0J150000D01*
G01*
G37*
G36*
G01*
X7300000Y21715000D02*
X7300000Y22015000D01*
G75*
G02*
X7450000Y22165000I150000J0D01*
G01*
X8900000Y22165000D01*
G75*
G02*
X9050000Y22015000I0J-150000D01*
G01*
X9050000Y21715000D01*
G75*
G02*
X8900000Y21565000I-150000J0D01*
G01*
X7450000Y21565000D01*
G75*
G02*
X7300000Y21715000I0J150000D01*
G01*
G37*
G36*
G01*
X7300000Y20445000D02*
X7300000Y20745000D01*
G75*
G02*
X7450000Y20895000I150000J0D01*
G01*
X8900000Y20895000D01*
G75*
G02*
X9050000Y20745000I0J-150000D01*
G01*
X9050000Y20445000D01*
G75*
G02*
X8900000Y20295000I-150000J0D01*
G01*
X7450000Y20295000D01*
G75*
G02*
X7300000Y20445000I0J150000D01*
G01*
G37*
G36*
G01*
X12450000Y20445000D02*
X12450000Y20745000D01*
G75*
G02*
X12600000Y20895000I150000J0D01*
G01*
X14050000Y20895000D01*
G75*
G02*
X14200000Y20745000I0J-150000D01*
G01*
X14200000Y20445000D01*
G75*
G02*
X14050000Y20295000I-150000J0D01*
G01*
X12600000Y20295000D01*
G75*
G02*
X12450000Y20445000I0J150000D01*
G01*
G37*
G36*
G01*
X12450000Y21715000D02*
X12450000Y22015000D01*
G75*
G02*
X12600000Y22165000I150000J0D01*
G01*
X14050000Y22165000D01*
G75*
G02*
X14200000Y22015000I0J-150000D01*
G01*
X14200000Y21715000D01*
G75*
G02*
X14050000Y21565000I-150000J0D01*
G01*
X12600000Y21565000D01*
G75*
G02*
X12450000Y21715000I0J150000D01*
G01*
G37*
G36*
G01*
X12450000Y22985000D02*
X12450000Y23285000D01*
G75*
G02*
X12600000Y23435000I150000J0D01*
G01*
X14050000Y23435000D01*
G75*
G02*
X14200000Y23285000I0J-150000D01*
G01*
X14200000Y22985000D01*
G75*
G02*
X14050000Y22835000I-150000J0D01*
G01*
X12600000Y22835000D01*
G75*
G02*
X12450000Y22985000I0J150000D01*
G01*
G37*
G36*
G01*
X12450000Y24255000D02*
X12450000Y24555000D01*
G75*
G02*
X12600000Y24705000I150000J0D01*
G01*
X14050000Y24705000D01*
G75*
G02*
X14200000Y24555000I0J-150000D01*
G01*
X14200000Y24255000D01*
G75*
G02*
X14050000Y24105000I-150000J0D01*
G01*
X12600000Y24105000D01*
G75*
G02*
X12450000Y24255000I0J150000D01*
G01*
G37*
%TD*%
%TO.C,U2*%
G36*
G01*
X27000000Y28755000D02*
X27000000Y29055000D01*
G75*
G02*
X27150000Y29205000I150000J0D01*
G01*
X28800000Y29205000D01*
G75*
G02*
X28950000Y29055000I0J-150000D01*
G01*
X28950000Y28755000D01*
G75*
G02*
X28800000Y28605000I-150000J0D01*
G01*
X27150000Y28605000D01*
G75*
G02*
X27000000Y28755000I0J150000D01*
G01*
G37*
G36*
G01*
X27000000Y27485000D02*
X27000000Y27785000D01*
G75*
G02*
X27150000Y27935000I150000J0D01*
G01*
X28800000Y27935000D01*
G75*
G02*
X28950000Y27785000I0J-150000D01*
G01*
X28950000Y27485000D01*
G75*
G02*
X28800000Y27335000I-150000J0D01*
G01*
X27150000Y27335000D01*
G75*
G02*
X27000000Y27485000I0J150000D01*
G01*
G37*
G36*
G01*
X27000000Y26215000D02*
X27000000Y26515000D01*
G75*
G02*
X27150000Y26665000I150000J0D01*
G01*
X28800000Y26665000D01*
G75*
G02*
X28950000Y26515000I0J-150000D01*
G01*
X28950000Y26215000D01*
G75*
G02*
X28800000Y26065000I-150000J0D01*
G01*
X27150000Y26065000D01*
G75*
G02*
X27000000Y26215000I0J150000D01*
G01*
G37*
G36*
G01*
X27000000Y24945000D02*
X27000000Y25245000D01*
G75*
G02*
X27150000Y25395000I150000J0D01*
G01*
X28800000Y25395000D01*
G75*
G02*
X28950000Y25245000I0J-150000D01*
G01*
X28950000Y24945000D01*
G75*
G02*
X28800000Y24795000I-150000J0D01*
G01*
X27150000Y24795000D01*
G75*
G02*
X27000000Y24945000I0J150000D01*
G01*
G37*
G36*
G01*
X22050000Y24945000D02*
X22050000Y25245000D01*
G75*
G02*
X22200000Y25395000I150000J0D01*
G01*
X23850000Y25395000D01*
G75*
G02*
X24000000Y25245000I0J-150000D01*
G01*
X24000000Y24945000D01*
G75*
G02*
X23850000Y24795000I-150000J0D01*
G01*
X22200000Y24795000D01*
G75*
G02*
X22050000Y24945000I0J150000D01*
G01*
G37*
G36*
G01*
X22050000Y26215000D02*
X22050000Y26515000D01*
G75*
G02*
X22200000Y26665000I150000J0D01*
G01*
X23850000Y26665000D01*
G75*
G02*
X24000000Y26515000I0J-150000D01*
G01*
X24000000Y26215000D01*
G75*
G02*
X23850000Y26065000I-150000J0D01*
G01*
X22200000Y26065000D01*
G75*
G02*
X22050000Y26215000I0J150000D01*
G01*
G37*
G36*
G01*
X22050000Y27485000D02*
X22050000Y27785000D01*
G75*
G02*
X22200000Y27935000I150000J0D01*
G01*
X23850000Y27935000D01*
G75*
G02*
X24000000Y27785000I0J-150000D01*
G01*
X24000000Y27485000D01*
G75*
G02*
X23850000Y27335000I-150000J0D01*
G01*
X22200000Y27335000D01*
G75*
G02*
X22050000Y27485000I0J150000D01*
G01*
G37*
G36*
G01*
X22050000Y28755000D02*
X22050000Y29055000D01*
G75*
G02*
X22200000Y29205000I150000J0D01*
G01*
X23850000Y29205000D01*
G75*
G02*
X24000000Y29055000I0J-150000D01*
G01*
X24000000Y28755000D01*
G75*
G02*
X23850000Y28605000I-150000J0D01*
G01*
X22200000Y28605000D01*
G75*
G02*
X22050000Y28755000I0J150000D01*
G01*
G37*
%TD*%
%TO.C,U3*%
G36*
G01*
X32300000Y37255000D02*
X32300000Y37555000D01*
G75*
G02*
X32450000Y37705000I150000J0D01*
G01*
X34100000Y37705000D01*
G75*
G02*
X34250000Y37555000I0J-150000D01*
G01*
X34250000Y37255000D01*
G75*
G02*
X34100000Y37105000I-150000J0D01*
G01*
X32450000Y37105000D01*
G75*
G02*
X32300000Y37255000I0J150000D01*
G01*
G37*
G36*
G01*
X32300000Y35985000D02*
X32300000Y36285000D01*
G75*
G02*
X32450000Y36435000I150000J0D01*
G01*
X34100000Y36435000D01*
G75*
G02*
X34250000Y36285000I0J-150000D01*
G01*
X34250000Y35985000D01*
G75*
G02*
X34100000Y35835000I-150000J0D01*
G01*
X32450000Y35835000D01*
G75*
G02*
X32300000Y35985000I0J150000D01*
G01*
G37*
G36*
G01*
X32300000Y34715000D02*
X32300000Y35015000D01*
G75*
G02*
X32450000Y35165000I150000J0D01*
G01*
X34100000Y35165000D01*
G75*
G02*
X34250000Y35015000I0J-150000D01*
G01*
X34250000Y34715000D01*
G75*
G02*
X34100000Y34565000I-150000J0D01*
G01*
X32450000Y34565000D01*
G75*
G02*
X32300000Y34715000I0J150000D01*
G01*
G37*
G36*
G01*
X32300000Y33445000D02*
X32300000Y33745000D01*
G75*
G02*
X32450000Y33895000I150000J0D01*
G01*
X34100000Y33895000D01*
G75*
G02*
X34250000Y33745000I0J-150000D01*
G01*
X34250000Y33445000D01*
G75*
G02*
X34100000Y33295000I-150000J0D01*
G01*
X32450000Y33295000D01*
G75*
G02*
X32300000Y33445000I0J150000D01*
G01*
G37*
G36*
G01*
X37250000Y33445000D02*
X37250000Y33745000D01*
G75*
G02*
X37400000Y33895000I150000J0D01*
G01*
X39050000Y33895000D01*
G75*
G02*
X39200000Y33745000I0J-150000D01*
G01*
X39200000Y33445000D01*
G75*
G02*
X39050000Y33295000I-150000J0D01*
G01*
X37400000Y33295000D01*
G75*
G02*
X37250000Y33445000I0J150000D01*
G01*
G37*
G36*
G01*
X37250000Y34715000D02*
X37250000Y35015000D01*
G75*
G02*
X37400000Y35165000I150000J0D01*
G01*
X39050000Y35165000D01*
G75*
G02*
X39200000Y35015000I0J-150000D01*
G01*
X39200000Y34715000D01*
G75*
G02*
X39050000Y34565000I-150000J0D01*
G01*
X37400000Y34565000D01*
G75*
G02*
X37250000Y34715000I0J150000D01*
G01*
G37*
G36*
G01*
X37250000Y35985000D02*
X37250000Y36285000D01*
G75*
G02*
X37400000Y36435000I150000J0D01*
G01*
X39050000Y36435000D01*
G75*
G02*
X39200000Y36285000I0J-150000D01*
G01*
X39200000Y35985000D01*
G75*
G02*
X39050000Y35835000I-150000J0D01*
G01*
X37400000Y35835000D01*
G75*
G02*
X37250000Y35985000I0J150000D01*
G01*
G37*
G36*
G01*
X37250000Y37255000D02*
X37250000Y37555000D01*
G75*
G02*
X37400000Y37705000I150000J0D01*
G01*
X39050000Y37705000D01*
G75*
G02*
X39200000Y37555000I0J-150000D01*
G01*
X39200000Y37255000D01*
G75*
G02*
X39050000Y37105000I-150000J0D01*
G01*
X37400000Y37105000D01*
G75*
G02*
X37250000Y37255000I0J150000D01*
G01*
G37*
%TD*%
%TO.C,U4*%
G36*
G01*
X13500000Y37255000D02*
X13500000Y37555000D01*
G75*
G02*
X13650000Y37705000I150000J0D01*
G01*
X15300000Y37705000D01*
G75*
G02*
X15450000Y37555000I0J-150000D01*
G01*
X15450000Y37255000D01*
G75*
G02*
X15300000Y37105000I-150000J0D01*
G01*
X13650000Y37105000D01*
G75*
G02*
X13500000Y37255000I0J150000D01*
G01*
G37*
G36*
G01*
X13500000Y35985000D02*
X13500000Y36285000D01*
G75*
G02*
X13650000Y36435000I150000J0D01*
G01*
X15300000Y36435000D01*
G75*
G02*
X15450000Y36285000I0J-150000D01*
G01*
X15450000Y35985000D01*
G75*
G02*
X15300000Y35835000I-150000J0D01*
G01*
X13650000Y35835000D01*
G75*
G02*
X13500000Y35985000I0J150000D01*
G01*
G37*
G36*
G01*
X13500000Y34715000D02*
X13500000Y35015000D01*
G75*
G02*
X13650000Y35165000I150000J0D01*
G01*
X15300000Y35165000D01*
G75*
G02*
X15450000Y35015000I0J-150000D01*
G01*
X15450000Y34715000D01*
G75*
G02*
X15300000Y34565000I-150000J0D01*
G01*
X13650000Y34565000D01*
G75*
G02*
X13500000Y34715000I0J150000D01*
G01*
G37*
G36*
G01*
X13500000Y33445000D02*
X13500000Y33745000D01*
G75*
G02*
X13650000Y33895000I150000J0D01*
G01*
X15300000Y33895000D01*
G75*
G02*
X15450000Y33745000I0J-150000D01*
G01*
X15450000Y33445000D01*
G75*
G02*
X15300000Y33295000I-150000J0D01*
G01*
X13650000Y33295000D01*
G75*
G02*
X13500000Y33445000I0J150000D01*
G01*
G37*
G36*
G01*
X8550000Y33445000D02*
X8550000Y33745000D01*
G75*
G02*
X8700000Y33895000I150000J0D01*
G01*
X10350000Y33895000D01*
G75*
G02*
X10500000Y33745000I0J-150000D01*
G01*
X10500000Y33445000D01*
G75*
G02*
X10350000Y33295000I-150000J0D01*
G01*
X8700000Y33295000D01*
G75*
G02*
X8550000Y33445000I0J150000D01*
G01*
G37*
G36*
G01*
X8550000Y34715000D02*
X8550000Y35015000D01*
G75*
G02*
X8700000Y35165000I150000J0D01*
G01*
X10350000Y35165000D01*
G75*
G02*
X10500000Y35015000I0J-150000D01*
G01*
X10500000Y34715000D01*
G75*
G02*
X10350000Y34565000I-150000J0D01*
G01*
X8700000Y34565000D01*
G75*
G02*
X8550000Y34715000I0J150000D01*
G01*
G37*
G36*
G01*
X8550000Y35985000D02*
X8550000Y36285000D01*
G75*
G02*
X8700000Y36435000I150000J0D01*
G01*
X10350000Y36435000D01*
G75*
G02*
X10500000Y36285000I0J-150000D01*
G01*
X10500000Y35985000D01*
G75*
G02*
X10350000Y35835000I-150000J0D01*
G01*
X8700000Y35835000D01*
G75*
G02*
X8550000Y35985000I0J150000D01*
G01*
G37*
G36*
G01*
X8550000Y37255000D02*
X8550000Y37555000D01*
G75*
G02*
X8700000Y37705000I150000J0D01*
G01*
X10350000Y37705000D01*
G75*
G02*
X10500000Y37555000I0J-150000D01*
G01*
X10500000Y37255000D01*
G75*
G02*
X10350000Y37105000I-150000J0D01*
G01*
X8700000Y37105000D01*
G75*
G02*
X8550000Y37255000I0J150000D01*
G01*
G37*
%TD*%
%TO.C,U5*%
G36*
G01*
X22050000Y13755000D02*
X22050000Y14055000D01*
G75*
G02*
X22200000Y14205000I150000J0D01*
G01*
X23850000Y14205000D01*
G75*
G02*
X24000000Y14055000I0J-150000D01*
G01*
X24000000Y13755000D01*
G75*
G02*
X23850000Y13605000I-150000J0D01*
G01*
X22200000Y13605000D01*
G75*
G02*
X22050000Y13755000I0J150000D01*
G01*
G37*
G36*
G01*
X22050000Y12485000D02*
X22050000Y12785000D01*
G75*
G02*
X22200000Y12935000I150000J0D01*
G01*
X23850000Y12935000D01*
G75*
G02*
X24000000Y12785000I0J-150000D01*
G01*
X24000000Y12485000D01*
G75*
G02*
X23850000Y12335000I-150000J0D01*
G01*
X22200000Y12335000D01*
G75*
G02*
X22050000Y12485000I0J150000D01*
G01*
G37*
G36*
G01*
X22050000Y11215000D02*
X22050000Y11515000D01*
G75*
G02*
X22200000Y11665000I150000J0D01*
G01*
X23850000Y11665000D01*
G75*
G02*
X24000000Y11515000I0J-150000D01*
G01*
X24000000Y11215000D01*
G75*
G02*
X23850000Y11065000I-150000J0D01*
G01*
X22200000Y11065000D01*
G75*
G02*
X22050000Y11215000I0J150000D01*
G01*
G37*
G36*
G01*
X22050000Y9945000D02*
X22050000Y10245000D01*
G75*
G02*
X22200000Y10395000I150000J0D01*
G01*
X23850000Y10395000D01*
G75*
G02*
X24000000Y10245000I0J-150000D01*
G01*
X24000000Y9945000D01*
G75*
G02*
X23850000Y9795000I-150000J0D01*
G01*
X22200000Y9795000D01*
G75*
G02*
X22050000Y9945000I0J150000D01*
G01*
G37*
G36*
G01*
X27000000Y9945000D02*
X27000000Y10245000D01*
G75*
G02*
X27150000Y10395000I150000J0D01*
G01*
X28800000Y10395000D01*
G75*
G02*
X28950000Y10245000I0J-150000D01*
G01*
X28950000Y9945000D01*
G75*
G02*
X28800000Y9795000I-150000J0D01*
G01*
X27150000Y9795000D01*
G75*
G02*
X27000000Y9945000I0J150000D01*
G01*
G37*
G36*
G01*
X27000000Y11215000D02*
X27000000Y11515000D01*
G75*
G02*
X27150000Y11665000I150000J0D01*
G01*
X28800000Y11665000D01*
G75*
G02*
X28950000Y11515000I0J-150000D01*
G01*
X28950000Y11215000D01*
G75*
G02*
X28800000Y11065000I-150000J0D01*
G01*
X27150000Y11065000D01*
G75*
G02*
X27000000Y11215000I0J150000D01*
G01*
G37*
G36*
G01*
X27000000Y12485000D02*
X27000000Y12785000D01*
G75*
G02*
X27150000Y12935000I150000J0D01*
G01*
X28800000Y12935000D01*
G75*
G02*
X28950000Y12785000I0J-150000D01*
G01*
X28950000Y12485000D01*
G75*
G02*
X28800000Y12335000I-150000J0D01*
G01*
X27150000Y12335000D01*
G75*
G02*
X27000000Y12485000I0J150000D01*
G01*
G37*
G36*
G01*
X27000000Y13755000D02*
X27000000Y14055000D01*
G75*
G02*
X27150000Y14205000I150000J0D01*
G01*
X28800000Y14205000D01*
G75*
G02*
X28950000Y14055000I0J-150000D01*
G01*
X28950000Y13755000D01*
G75*
G02*
X28800000Y13605000I-150000J0D01*
G01*
X27150000Y13605000D01*
G75*
G02*
X27000000Y13755000I0J150000D01*
G01*
G37*
%TD*%
%TO.C,U6*%
G36*
G01*
X56050000Y39505000D02*
X56050000Y39805000D01*
G75*
G02*
X56200000Y39955000I150000J0D01*
G01*
X57850000Y39955000D01*
G75*
G02*
X58000000Y39805000I0J-150000D01*
G01*
X58000000Y39505000D01*
G75*
G02*
X57850000Y39355000I-150000J0D01*
G01*
X56200000Y39355000D01*
G75*
G02*
X56050000Y39505000I0J150000D01*
G01*
G37*
G36*
G01*
X56050000Y38235000D02*
X56050000Y38535000D01*
G75*
G02*
X56200000Y38685000I150000J0D01*
G01*
X57850000Y38685000D01*
G75*
G02*
X58000000Y38535000I0J-150000D01*
G01*
X58000000Y38235000D01*
G75*
G02*
X57850000Y38085000I-150000J0D01*
G01*
X56200000Y38085000D01*
G75*
G02*
X56050000Y38235000I0J150000D01*
G01*
G37*
G36*
G01*
X56050000Y36965000D02*
X56050000Y37265000D01*
G75*
G02*
X56200000Y37415000I150000J0D01*
G01*
X57850000Y37415000D01*
G75*
G02*
X58000000Y37265000I0J-150000D01*
G01*
X58000000Y36965000D01*
G75*
G02*
X57850000Y36815000I-150000J0D01*
G01*
X56200000Y36815000D01*
G75*
G02*
X56050000Y36965000I0J150000D01*
G01*
G37*
G36*
G01*
X56050000Y35695000D02*
X56050000Y35995000D01*
G75*
G02*
X56200000Y36145000I150000J0D01*
G01*
X57850000Y36145000D01*
G75*
G02*
X58000000Y35995000I0J-150000D01*
G01*
X58000000Y35695000D01*
G75*
G02*
X57850000Y35545000I-150000J0D01*
G01*
X56200000Y35545000D01*
G75*
G02*
X56050000Y35695000I0J150000D01*
G01*
G37*
G36*
G01*
X61000000Y35695000D02*
X61000000Y35995000D01*
G75*
G02*
X61150000Y36145000I150000J0D01*
G01*
X62800000Y36145000D01*
G75*
G02*
X62950000Y35995000I0J-150000D01*
G01*
X62950000Y35695000D01*
G75*
G02*
X62800000Y35545000I-150000J0D01*
G01*
X61150000Y35545000D01*
G75*
G02*
X61000000Y35695000I0J150000D01*
G01*
G37*
G36*
G01*
X61000000Y36965000D02*
X61000000Y37265000D01*
G75*
G02*
X61150000Y37415000I150000J0D01*
G01*
X62800000Y37415000D01*
G75*
G02*
X62950000Y37265000I0J-150000D01*
G01*
X62950000Y36965000D01*
G75*
G02*
X62800000Y36815000I-150000J0D01*
G01*
X61150000Y36815000D01*
G75*
G02*
X61000000Y36965000I0J150000D01*
G01*
G37*
G36*
G01*
X61000000Y38235000D02*
X61000000Y38535000D01*
G75*
G02*
X61150000Y38685000I150000J0D01*
G01*
X62800000Y38685000D01*
G75*
G02*
X62950000Y38535000I0J-150000D01*
G01*
X62950000Y38235000D01*
G75*
G02*
X62800000Y38085000I-150000J0D01*
G01*
X61150000Y38085000D01*
G75*
G02*
X61000000Y38235000I0J150000D01*
G01*
G37*
G36*
G01*
X61000000Y39505000D02*
X61000000Y39805000D01*
G75*
G02*
X61150000Y39955000I150000J0D01*
G01*
X62800000Y39955000D01*
G75*
G02*
X62950000Y39805000I0J-150000D01*
G01*
X62950000Y39505000D01*
G75*
G02*
X62800000Y39355000I-150000J0D01*
G01*
X61150000Y39355000D01*
G75*
G02*
X61000000Y39505000I0J150000D01*
G01*
G37*
%TD*%
%TO.C,U7*%
G36*
G01*
X61000000Y28005000D02*
X61000000Y28305000D01*
G75*
G02*
X61150000Y28455000I150000J0D01*
G01*
X62800000Y28455000D01*
G75*
G02*
X62950000Y28305000I0J-150000D01*
G01*
X62950000Y28005000D01*
G75*
G02*
X62800000Y27855000I-150000J0D01*
G01*
X61150000Y27855000D01*
G75*
G02*
X61000000Y28005000I0J150000D01*
G01*
G37*
G36*
G01*
X61000000Y26735000D02*
X61000000Y27035000D01*
G75*
G02*
X61150000Y27185000I150000J0D01*
G01*
X62800000Y27185000D01*
G75*
G02*
X62950000Y27035000I0J-150000D01*
G01*
X62950000Y26735000D01*
G75*
G02*
X62800000Y26585000I-150000J0D01*
G01*
X61150000Y26585000D01*
G75*
G02*
X61000000Y26735000I0J150000D01*
G01*
G37*
G36*
G01*
X61000000Y25465000D02*
X61000000Y25765000D01*
G75*
G02*
X61150000Y25915000I150000J0D01*
G01*
X62800000Y25915000D01*
G75*
G02*
X62950000Y25765000I0J-150000D01*
G01*
X62950000Y25465000D01*
G75*
G02*
X62800000Y25315000I-150000J0D01*
G01*
X61150000Y25315000D01*
G75*
G02*
X61000000Y25465000I0J150000D01*
G01*
G37*
G36*
G01*
X61000000Y24195000D02*
X61000000Y24495000D01*
G75*
G02*
X61150000Y24645000I150000J0D01*
G01*
X62800000Y24645000D01*
G75*
G02*
X62950000Y24495000I0J-150000D01*
G01*
X62950000Y24195000D01*
G75*
G02*
X62800000Y24045000I-150000J0D01*
G01*
X61150000Y24045000D01*
G75*
G02*
X61000000Y24195000I0J150000D01*
G01*
G37*
G36*
G01*
X56050000Y24195000D02*
X56050000Y24495000D01*
G75*
G02*
X56200000Y24645000I150000J0D01*
G01*
X57850000Y24645000D01*
G75*
G02*
X58000000Y24495000I0J-150000D01*
G01*
X58000000Y24195000D01*
G75*
G02*
X57850000Y24045000I-150000J0D01*
G01*
X56200000Y24045000D01*
G75*
G02*
X56050000Y24195000I0J150000D01*
G01*
G37*
G36*
G01*
X56050000Y25465000D02*
X56050000Y25765000D01*
G75*
G02*
X56200000Y25915000I150000J0D01*
G01*
X57850000Y25915000D01*
G75*
G02*
X58000000Y25765000I0J-150000D01*
G01*
X58000000Y25465000D01*
G75*
G02*
X57850000Y25315000I-150000J0D01*
G01*
X56200000Y25315000D01*
G75*
G02*
X56050000Y25465000I0J150000D01*
G01*
G37*
G36*
G01*
X56050000Y26735000D02*
X56050000Y27035000D01*
G75*
G02*
X56200000Y27185000I150000J0D01*
G01*
X57850000Y27185000D01*
G75*
G02*
X58000000Y27035000I0J-150000D01*
G01*
X58000000Y26735000D01*
G75*
G02*
X57850000Y26585000I-150000J0D01*
G01*
X56200000Y26585000D01*
G75*
G02*
X56050000Y26735000I0J150000D01*
G01*
G37*
G36*
G01*
X56050000Y28005000D02*
X56050000Y28305000D01*
G75*
G02*
X56200000Y28455000I150000J0D01*
G01*
X57850000Y28455000D01*
G75*
G02*
X58000000Y28305000I0J-150000D01*
G01*
X58000000Y28005000D01*
G75*
G02*
X57850000Y27855000I-150000J0D01*
G01*
X56200000Y27855000D01*
G75*
G02*
X56050000Y28005000I0J150000D01*
G01*
G37*
%TD*%
%TO.C,U8*%
G36*
G01*
X40300000Y13755000D02*
X40300000Y14055000D01*
G75*
G02*
X40450000Y14205000I150000J0D01*
G01*
X42100000Y14205000D01*
G75*
G02*
X42250000Y14055000I0J-150000D01*
G01*
X42250000Y13755000D01*
G75*
G02*
X42100000Y13605000I-150000J0D01*
G01*
X40450000Y13605000D01*
G75*
G02*
X40300000Y13755000I0J150000D01*
G01*
G37*
G36*
G01*
X40300000Y12485000D02*
X40300000Y12785000D01*
G75*
G02*
X40450000Y12935000I150000J0D01*
G01*
X42100000Y12935000D01*
G75*
G02*
X42250000Y12785000I0J-150000D01*
G01*
X42250000Y12485000D01*
G75*
G02*
X42100000Y12335000I-150000J0D01*
G01*
X40450000Y12335000D01*
G75*
G02*
X40300000Y12485000I0J150000D01*
G01*
G37*
G36*
G01*
X40300000Y11215000D02*
X40300000Y11515000D01*
G75*
G02*
X40450000Y11665000I150000J0D01*
G01*
X42100000Y11665000D01*
G75*
G02*
X42250000Y11515000I0J-150000D01*
G01*
X42250000Y11215000D01*
G75*
G02*
X42100000Y11065000I-150000J0D01*
G01*
X40450000Y11065000D01*
G75*
G02*
X40300000Y11215000I0J150000D01*
G01*
G37*
G36*
G01*
X40300000Y9945000D02*
X40300000Y10245000D01*
G75*
G02*
X40450000Y10395000I150000J0D01*
G01*
X42100000Y10395000D01*
G75*
G02*
X42250000Y10245000I0J-150000D01*
G01*
X42250000Y9945000D01*
G75*
G02*
X42100000Y9795000I-150000J0D01*
G01*
X40450000Y9795000D01*
G75*
G02*
X40300000Y9945000I0J150000D01*
G01*
G37*
G36*
G01*
X45250000Y9945000D02*
X45250000Y10245000D01*
G75*
G02*
X45400000Y10395000I150000J0D01*
G01*
X47050000Y10395000D01*
G75*
G02*
X47200000Y10245000I0J-150000D01*
G01*
X47200000Y9945000D01*
G75*
G02*
X47050000Y9795000I-150000J0D01*
G01*
X45400000Y9795000D01*
G75*
G02*
X45250000Y9945000I0J150000D01*
G01*
G37*
G36*
G01*
X45250000Y11215000D02*
X45250000Y11515000D01*
G75*
G02*
X45400000Y11665000I150000J0D01*
G01*
X47050000Y11665000D01*
G75*
G02*
X47200000Y11515000I0J-150000D01*
G01*
X47200000Y11215000D01*
G75*
G02*
X47050000Y11065000I-150000J0D01*
G01*
X45400000Y11065000D01*
G75*
G02*
X45250000Y11215000I0J150000D01*
G01*
G37*
G36*
G01*
X45250000Y12485000D02*
X45250000Y12785000D01*
G75*
G02*
X45400000Y12935000I150000J0D01*
G01*
X47050000Y12935000D01*
G75*
G02*
X47200000Y12785000I0J-150000D01*
G01*
X47200000Y12485000D01*
G75*
G02*
X47050000Y12335000I-150000J0D01*
G01*
X45400000Y12335000D01*
G75*
G02*
X45250000Y12485000I0J150000D01*
G01*
G37*
G36*
G01*
X45250000Y13755000D02*
X45250000Y14055000D01*
G75*
G02*
X45400000Y14205000I150000J0D01*
G01*
X47050000Y14205000D01*
G75*
G02*
X47200000Y14055000I0J-150000D01*
G01*
X47200000Y13755000D01*
G75*
G02*
X47050000Y13605000I-150000J0D01*
G01*
X45400000Y13605000D01*
G75*
G02*
X45250000Y13755000I0J150000D01*
G01*
G37*
%TD*%
%TO.C,R1*%
G36*
G01*
X20950001Y27575000D02*
X20049999Y27575000D01*
G75*
G02*
X19800000Y27824999I0J249999D01*
G01*
X19800000Y28350001D01*
G75*
G02*
X20049999Y28600000I249999J0D01*
G01*
X20950001Y28600000D01*
G75*
G02*
X21200000Y28350001I0J-249999D01*
G01*
X21200000Y27824999D01*
G75*
G02*
X20950001Y27575000I-249999J0D01*
G01*
G37*
G36*
G01*
X20950001Y29400000D02*
X20049999Y29400000D01*
G75*
G02*
X19800000Y29649999I0J249999D01*
G01*
X19800000Y30175001D01*
G75*
G02*
X20049999Y30425000I249999J0D01*
G01*
X20950001Y30425000D01*
G75*
G02*
X21200000Y30175001I0J-249999D01*
G01*
X21200000Y29649999D01*
G75*
G02*
X20950001Y29400000I-249999J0D01*
G01*
G37*
%TD*%
%TO.C,R2*%
G36*
G01*
X20950001Y25450000D02*
X20049999Y25450000D01*
G75*
G02*
X19800000Y25699999I0J249999D01*
G01*
X19800000Y26225001D01*
G75*
G02*
X20049999Y26475000I249999J0D01*
G01*
X20950001Y26475000D01*
G75*
G02*
X21200000Y26225001I0J-249999D01*
G01*
X21200000Y25699999D01*
G75*
G02*
X20950001Y25450000I-249999J0D01*
G01*
G37*
G36*
G01*
X20950001Y23625000D02*
X20049999Y23625000D01*
G75*
G02*
X19800000Y23874999I0J249999D01*
G01*
X19800000Y24400001D01*
G75*
G02*
X20049999Y24650000I249999J0D01*
G01*
X20950001Y24650000D01*
G75*
G02*
X21200000Y24400001I0J-249999D01*
G01*
X21200000Y23874999D01*
G75*
G02*
X20950001Y23625000I-249999J0D01*
G01*
G37*
%TD*%
%TO.C,R4*%
G36*
G01*
X19450000Y12049999D02*
X19450000Y12950001D01*
G75*
G02*
X19699999Y13200000I249999J0D01*
G01*
X20225001Y13200000D01*
G75*
G02*
X20475000Y12950001I0J-249999D01*
G01*
X20475000Y12049999D01*
G75*
G02*
X20225001Y11800000I-249999J0D01*
G01*
X19699999Y11800000D01*
G75*
G02*
X19450000Y12049999I0J249999D01*
G01*
G37*
G36*
G01*
X17625000Y12049999D02*
X17625000Y12950001D01*
G75*
G02*
X17874999Y13200000I249999J0D01*
G01*
X18400001Y13200000D01*
G75*
G02*
X18650000Y12950001I0J-249999D01*
G01*
X18650000Y12049999D01*
G75*
G02*
X18400001Y11800000I-249999J0D01*
G01*
X17874999Y11800000D01*
G75*
G02*
X17625000Y12049999I0J249999D01*
G01*
G37*
%TD*%
%TO.C,R5*%
G36*
G01*
X33375000Y12950001D02*
X33375000Y12049999D01*
G75*
G02*
X33125001Y11800000I-249999J0D01*
G01*
X32599999Y11800000D01*
G75*
G02*
X32350000Y12049999I0J249999D01*
G01*
X32350000Y12950001D01*
G75*
G02*
X32599999Y13200000I249999J0D01*
G01*
X33125001Y13200000D01*
G75*
G02*
X33375000Y12950001I0J-249999D01*
G01*
G37*
G36*
G01*
X31550000Y12950001D02*
X31550000Y12049999D01*
G75*
G02*
X31300001Y11800000I-249999J0D01*
G01*
X30774999Y11800000D01*
G75*
G02*
X30525000Y12049999I0J249999D01*
G01*
X30525000Y12950001D01*
G75*
G02*
X30774999Y13200000I249999J0D01*
G01*
X31300001Y13200000D01*
G75*
G02*
X31550000Y12950001I0J-249999D01*
G01*
G37*
%TD*%
%TO.C,R7*%
G36*
G01*
X92475000Y53450001D02*
X92475000Y52549999D01*
G75*
G02*
X92225001Y52300000I-249999J0D01*
G01*
X91699999Y52300000D01*
G75*
G02*
X91450000Y52549999I0J249999D01*
G01*
X91450000Y53450001D01*
G75*
G02*
X91699999Y53700000I249999J0D01*
G01*
X92225001Y53700000D01*
G75*
G02*
X92475000Y53450001I0J-249999D01*
G01*
G37*
G36*
G01*
X90650000Y53450001D02*
X90650000Y52549999D01*
G75*
G02*
X90400001Y52300000I-249999J0D01*
G01*
X89874999Y52300000D01*
G75*
G02*
X89625000Y52549999I0J249999D01*
G01*
X89625000Y53450001D01*
G75*
G02*
X89874999Y53700000I249999J0D01*
G01*
X90400001Y53700000D01*
G75*
G02*
X90650000Y53450001I0J-249999D01*
G01*
G37*
%TD*%
%TO.C,R8*%
G36*
G01*
X64549999Y37262500D02*
X65450001Y37262500D01*
G75*
G02*
X65700000Y37012501I0J-249999D01*
G01*
X65700000Y36487499D01*
G75*
G02*
X65450001Y36237500I-249999J0D01*
G01*
X64549999Y36237500D01*
G75*
G02*
X64300000Y36487499I0J249999D01*
G01*
X64300000Y37012501D01*
G75*
G02*
X64549999Y37262500I249999J0D01*
G01*
G37*
G36*
G01*
X64549999Y39087500D02*
X65450001Y39087500D01*
G75*
G02*
X65700000Y38837501I0J-249999D01*
G01*
X65700000Y38312499D01*
G75*
G02*
X65450001Y38062500I-249999J0D01*
G01*
X64549999Y38062500D01*
G75*
G02*
X64300000Y38312499I0J249999D01*
G01*
X64300000Y38837501D01*
G75*
G02*
X64549999Y39087500I249999J0D01*
G01*
G37*
%TD*%
%TO.C,R9*%
G36*
G01*
X86550000Y51950001D02*
X86550000Y51049999D01*
G75*
G02*
X86300001Y50800000I-249999J0D01*
G01*
X85774999Y50800000D01*
G75*
G02*
X85525000Y51049999I0J249999D01*
G01*
X85525000Y51950001D01*
G75*
G02*
X85774999Y52200000I249999J0D01*
G01*
X86300001Y52200000D01*
G75*
G02*
X86550000Y51950001I0J-249999D01*
G01*
G37*
G36*
G01*
X88375000Y51950001D02*
X88375000Y51049999D01*
G75*
G02*
X88125001Y50800000I-249999J0D01*
G01*
X87599999Y50800000D01*
G75*
G02*
X87350000Y51049999I0J249999D01*
G01*
X87350000Y51950001D01*
G75*
G02*
X87599999Y52200000I249999J0D01*
G01*
X88125001Y52200000D01*
G75*
G02*
X88375000Y51950001I0J-249999D01*
G01*
G37*
%TD*%
%TO.C,R10*%
G36*
G01*
X64237500Y33799999D02*
X64237500Y34700001D01*
G75*
G02*
X64487499Y34950000I249999J0D01*
G01*
X65012501Y34950000D01*
G75*
G02*
X65262500Y34700001I0J-249999D01*
G01*
X65262500Y33799999D01*
G75*
G02*
X65012501Y33550000I-249999J0D01*
G01*
X64487499Y33550000D01*
G75*
G02*
X64237500Y33799999I0J249999D01*
G01*
G37*
G36*
G01*
X66062500Y33799999D02*
X66062500Y34700001D01*
G75*
G02*
X66312499Y34950000I249999J0D01*
G01*
X66837501Y34950000D01*
G75*
G02*
X67087500Y34700001I0J-249999D01*
G01*
X67087500Y33799999D01*
G75*
G02*
X66837501Y33550000I-249999J0D01*
G01*
X66312499Y33550000D01*
G75*
G02*
X66062500Y33799999I0J249999D01*
G01*
G37*
%TD*%
%TO.C,R15*%
G36*
G01*
X90650000Y23450001D02*
X90650000Y22549999D01*
G75*
G02*
X90400001Y22300000I-249999J0D01*
G01*
X89874999Y22300000D01*
G75*
G02*
X89625000Y22549999I0J249999D01*
G01*
X89625000Y23450001D01*
G75*
G02*
X89874999Y23700000I249999J0D01*
G01*
X90400001Y23700000D01*
G75*
G02*
X90650000Y23450001I0J-249999D01*
G01*
G37*
G36*
G01*
X92475000Y23450001D02*
X92475000Y22549999D01*
G75*
G02*
X92225001Y22300000I-249999J0D01*
G01*
X91699999Y22300000D01*
G75*
G02*
X91450000Y22549999I0J249999D01*
G01*
X91450000Y23450001D01*
G75*
G02*
X91699999Y23700000I249999J0D01*
G01*
X92225001Y23700000D01*
G75*
G02*
X92475000Y23450001I0J-249999D01*
G01*
G37*
%TD*%
%TO.C,R16*%
G36*
G01*
X50412500Y9549999D02*
X50412500Y10450001D01*
G75*
G02*
X50662499Y10700000I249999J0D01*
G01*
X51187501Y10700000D01*
G75*
G02*
X51437500Y10450001I0J-249999D01*
G01*
X51437500Y9549999D01*
G75*
G02*
X51187501Y9300000I-249999J0D01*
G01*
X50662499Y9300000D01*
G75*
G02*
X50412500Y9549999I0J249999D01*
G01*
G37*
G36*
G01*
X52237500Y9549999D02*
X52237500Y10450001D01*
G75*
G02*
X52487499Y10700000I249999J0D01*
G01*
X53012501Y10700000D01*
G75*
G02*
X53262500Y10450001I0J-249999D01*
G01*
X53262500Y9549999D01*
G75*
G02*
X53012501Y9300000I-249999J0D01*
G01*
X52487499Y9300000D01*
G75*
G02*
X52237500Y9549999I0J249999D01*
G01*
G37*
%TD*%
%TO.C,R17*%
G36*
G01*
X37799999Y15587500D02*
X38700001Y15587500D01*
G75*
G02*
X38950000Y15337501I0J-249999D01*
G01*
X38950000Y14812499D01*
G75*
G02*
X38700001Y14562500I-249999J0D01*
G01*
X37799999Y14562500D01*
G75*
G02*
X37550000Y14812499I0J249999D01*
G01*
X37550000Y15337501D01*
G75*
G02*
X37799999Y15587500I249999J0D01*
G01*
G37*
G36*
G01*
X37799999Y13762500D02*
X38700001Y13762500D01*
G75*
G02*
X38950000Y13512501I0J-249999D01*
G01*
X38950000Y12987499D01*
G75*
G02*
X38700001Y12737500I-249999J0D01*
G01*
X37799999Y12737500D01*
G75*
G02*
X37550000Y12987499I0J249999D01*
G01*
X37550000Y13512501D01*
G75*
G02*
X37799999Y13762500I249999J0D01*
G01*
G37*
%TD*%
%TO.C,R18*%
G36*
G01*
X88475000Y21950001D02*
X88475000Y21049999D01*
G75*
G02*
X88225001Y20800000I-249999J0D01*
G01*
X87699999Y20800000D01*
G75*
G02*
X87450000Y21049999I0J249999D01*
G01*
X87450000Y21950001D01*
G75*
G02*
X87699999Y22200000I249999J0D01*
G01*
X88225001Y22200000D01*
G75*
G02*
X88475000Y21950001I0J-249999D01*
G01*
G37*
G36*
G01*
X86650000Y21950001D02*
X86650000Y21049999D01*
G75*
G02*
X86400001Y20800000I-249999J0D01*
G01*
X85874999Y20800000D01*
G75*
G02*
X85625000Y21049999I0J249999D01*
G01*
X85625000Y21950001D01*
G75*
G02*
X85874999Y22200000I249999J0D01*
G01*
X86400001Y22200000D01*
G75*
G02*
X86650000Y21950001I0J-249999D01*
G01*
G37*
%TD*%
%TO.C,R19*%
G36*
G01*
X37799999Y9437500D02*
X38700001Y9437500D01*
G75*
G02*
X38950000Y9187501I0J-249999D01*
G01*
X38950000Y8662499D01*
G75*
G02*
X38700001Y8412500I-249999J0D01*
G01*
X37799999Y8412500D01*
G75*
G02*
X37550000Y8662499I0J249999D01*
G01*
X37550000Y9187501D01*
G75*
G02*
X37799999Y9437500I249999J0D01*
G01*
G37*
G36*
G01*
X37799999Y11262500D02*
X38700001Y11262500D01*
G75*
G02*
X38950000Y11012501I0J-249999D01*
G01*
X38950000Y10487499D01*
G75*
G02*
X38700001Y10237500I-249999J0D01*
G01*
X37799999Y10237500D01*
G75*
G02*
X37550000Y10487499I0J249999D01*
G01*
X37550000Y11012501D01*
G75*
G02*
X37799999Y11262500I249999J0D01*
G01*
G37*
%TD*%
%TO.C,R20*%
G36*
G01*
X57162500Y9549999D02*
X57162500Y10450001D01*
G75*
G02*
X57412499Y10700000I249999J0D01*
G01*
X57937501Y10700000D01*
G75*
G02*
X58187500Y10450001I0J-249999D01*
G01*
X58187500Y9549999D01*
G75*
G02*
X57937501Y9300000I-249999J0D01*
G01*
X57412499Y9300000D01*
G75*
G02*
X57162500Y9549999I0J249999D01*
G01*
G37*
G36*
G01*
X58987500Y9549999D02*
X58987500Y10450001D01*
G75*
G02*
X59237499Y10700000I249999J0D01*
G01*
X59762501Y10700000D01*
G75*
G02*
X60012500Y10450001I0J-249999D01*
G01*
X60012500Y9549999D01*
G75*
G02*
X59762501Y9300000I-249999J0D01*
G01*
X59237499Y9300000D01*
G75*
G02*
X58987500Y9549999I0J249999D01*
G01*
G37*
%TD*%
%TO.C,R21*%
G36*
G01*
X88425000Y38450001D02*
X88425000Y37549999D01*
G75*
G02*
X88175001Y37300000I-249999J0D01*
G01*
X87649999Y37300000D01*
G75*
G02*
X87400000Y37549999I0J249999D01*
G01*
X87400000Y38450001D01*
G75*
G02*
X87649999Y38700000I249999J0D01*
G01*
X88175001Y38700000D01*
G75*
G02*
X88425000Y38450001I0J-249999D01*
G01*
G37*
G36*
G01*
X86600000Y38450001D02*
X86600000Y37549999D01*
G75*
G02*
X86350001Y37300000I-249999J0D01*
G01*
X85824999Y37300000D01*
G75*
G02*
X85575000Y37549999I0J249999D01*
G01*
X85575000Y38450001D01*
G75*
G02*
X85824999Y38700000I249999J0D01*
G01*
X86350001Y38700000D01*
G75*
G02*
X86600000Y38450001I0J-249999D01*
G01*
G37*
%TD*%
%TO.C,R22*%
G36*
G01*
X49075000Y26049999D02*
X49075000Y26950001D01*
G75*
G02*
X49324999Y27200000I249999J0D01*
G01*
X49850001Y27200000D01*
G75*
G02*
X50100000Y26950001I0J-249999D01*
G01*
X50100000Y26049999D01*
G75*
G02*
X49850001Y25800000I-249999J0D01*
G01*
X49324999Y25800000D01*
G75*
G02*
X49075000Y26049999I0J249999D01*
G01*
G37*
G36*
G01*
X50900000Y26049999D02*
X50900000Y26950001D01*
G75*
G02*
X51149999Y27200000I249999J0D01*
G01*
X51675001Y27200000D01*
G75*
G02*
X51925000Y26950001I0J-249999D01*
G01*
X51925000Y26049999D01*
G75*
G02*
X51675001Y25800000I-249999J0D01*
G01*
X51149999Y25800000D01*
G75*
G02*
X50900000Y26049999I0J249999D01*
G01*
G37*
%TD*%
%TO.C,R23*%
G36*
G01*
X52937500Y24200001D02*
X52937500Y23299999D01*
G75*
G02*
X52687501Y23050000I-249999J0D01*
G01*
X52162499Y23050000D01*
G75*
G02*
X51912500Y23299999I0J249999D01*
G01*
X51912500Y24200001D01*
G75*
G02*
X52162499Y24450000I249999J0D01*
G01*
X52687501Y24450000D01*
G75*
G02*
X52937500Y24200001I0J-249999D01*
G01*
G37*
G36*
G01*
X54762500Y24200001D02*
X54762500Y23299999D01*
G75*
G02*
X54512501Y23050000I-249999J0D01*
G01*
X53987499Y23050000D01*
G75*
G02*
X53737500Y23299999I0J249999D01*
G01*
X53737500Y24200001D01*
G75*
G02*
X53987499Y24450000I249999J0D01*
G01*
X54512501Y24450000D01*
G75*
G02*
X54762500Y24200001I0J-249999D01*
G01*
G37*
%TD*%
%TO.C,R24*%
G36*
G01*
X59812500Y19049999D02*
X59812500Y19950001D01*
G75*
G02*
X60062499Y20200000I249999J0D01*
G01*
X60587501Y20200000D01*
G75*
G02*
X60837500Y19950001I0J-249999D01*
G01*
X60837500Y19049999D01*
G75*
G02*
X60587501Y18800000I-249999J0D01*
G01*
X60062499Y18800000D01*
G75*
G02*
X59812500Y19049999I0J249999D01*
G01*
G37*
G36*
G01*
X57987500Y19049999D02*
X57987500Y19950001D01*
G75*
G02*
X58237499Y20200000I249999J0D01*
G01*
X58762501Y20200000D01*
G75*
G02*
X59012500Y19950001I0J-249999D01*
G01*
X59012500Y19049999D01*
G75*
G02*
X58762501Y18800000I-249999J0D01*
G01*
X58237499Y18800000D01*
G75*
G02*
X57987500Y19049999I0J249999D01*
G01*
G37*
%TD*%
%TO.C,R25*%
G36*
G01*
X59012500Y17200001D02*
X59012500Y16299999D01*
G75*
G02*
X58762501Y16050000I-249999J0D01*
G01*
X58237499Y16050000D01*
G75*
G02*
X57987500Y16299999I0J249999D01*
G01*
X57987500Y17200001D01*
G75*
G02*
X58237499Y17450000I249999J0D01*
G01*
X58762501Y17450000D01*
G75*
G02*
X59012500Y17200001I0J-249999D01*
G01*
G37*
G36*
G01*
X60837500Y17200001D02*
X60837500Y16299999D01*
G75*
G02*
X60587501Y16050000I-249999J0D01*
G01*
X60062499Y16050000D01*
G75*
G02*
X59812500Y16299999I0J249999D01*
G01*
X59812500Y17200001D01*
G75*
G02*
X60062499Y17450000I249999J0D01*
G01*
X60587501Y17450000D01*
G75*
G02*
X60837500Y17200001I0J-249999D01*
G01*
G37*
%TD*%
%TO.C,R26*%
G36*
G01*
X64062500Y14799999D02*
X64062500Y15700001D01*
G75*
G02*
X64312499Y15950000I249999J0D01*
G01*
X64837501Y15950000D01*
G75*
G02*
X65087500Y15700001I0J-249999D01*
G01*
X65087500Y14799999D01*
G75*
G02*
X64837501Y14550000I-249999J0D01*
G01*
X64312499Y14550000D01*
G75*
G02*
X64062500Y14799999I0J249999D01*
G01*
G37*
G36*
G01*
X62237500Y14799999D02*
X62237500Y15700001D01*
G75*
G02*
X62487499Y15950000I249999J0D01*
G01*
X63012501Y15950000D01*
G75*
G02*
X63262500Y15700001I0J-249999D01*
G01*
X63262500Y14799999D01*
G75*
G02*
X63012501Y14550000I-249999J0D01*
G01*
X62487499Y14550000D01*
G75*
G02*
X62237500Y14799999I0J249999D01*
G01*
G37*
%TD*%
%TO.C,R27*%
G36*
G01*
X88512500Y31450001D02*
X88512500Y30549999D01*
G75*
G02*
X88262501Y30300000I-249999J0D01*
G01*
X87737499Y30300000D01*
G75*
G02*
X87487500Y30549999I0J249999D01*
G01*
X87487500Y31450001D01*
G75*
G02*
X87737499Y31700000I249999J0D01*
G01*
X88262501Y31700000D01*
G75*
G02*
X88512500Y31450001I0J-249999D01*
G01*
G37*
G36*
G01*
X86687500Y31450001D02*
X86687500Y30549999D01*
G75*
G02*
X86437501Y30300000I-249999J0D01*
G01*
X85912499Y30300000D01*
G75*
G02*
X85662500Y30549999I0J249999D01*
G01*
X85662500Y31450001D01*
G75*
G02*
X85912499Y31700000I249999J0D01*
G01*
X86437501Y31700000D01*
G75*
G02*
X86687500Y31450001I0J-249999D01*
G01*
G37*
%TD*%
D10*
%TO.C,H5*%
X85750000Y33250000D03*
%TD*%
M02*
